<?xml version="1.0" encoding="UTF-8" standalone="no"?>
<svg
   xmlns:dc="http://purl.org/dc/elements/1.1/"
   xmlns:cc="http://creativecommons.org/ns#"
   xmlns:rdf="http://www.w3.org/1999/02/22-rdf-syntax-ns#"
   xmlns:svg="http://www.w3.org/2000/svg"
   xmlns="http://www.w3.org/2000/svg"
   viewBox="0 0 386.72348 385.62668"
   height="385.62668"
   width="386.72348"
   xml:space="preserve"
   id="svg2"
   version="1.1"><metadata
     id="metadata8"><rdf:RDF><cc:Work
         rdf:about=""><dc:format>image/svg+xml</dc:format><dc:type
           rdf:resource="http://purl.org/dc/dcmitype/StillImage" /></cc:Work></rdf:RDF></metadata><defs
     id="defs6"><clipPath
       id="clipPath14"
       clipPathUnits="userSpaceOnUse"><path
         id="path12"
         d="M 0,0 H 960 V 540 H 0 Z" /></clipPath><clipPath
       id="clipPath24"
       clipPathUnits="userSpaceOnUse"><path
         id="path22"
         d="M 0,1.206994e-5 H 959.76 V 540.00001 H 0 Z" /></clipPath><clipPath
       id="clipPath34"
       clipPathUnits="userSpaceOnUse"><path
         id="path32"
         d="M 0,0 H 960 V 540 H 0 Z" /></clipPath></defs><g
     clip-path="url(#clipPath14)"
     transform="matrix(1.3333333,0,0,-1.3333333,-151.93013,584.16173)"
     id="g10"><g
       id="g16" /><g
       id="g18"><g
         clip-path="url(#clipPath24)"
         id="g20"><path
           id="path26"
           style="fill:#ffffff;fill-opacity:1;fill-rule:nonzero;stroke:none"
           d="M 0,1.206994e-5 H 959.76 V 540.00001 H 0 Z" /></g></g><g
       id="g28"><g
         clip-path="url(#clipPath34)"
         id="g30"><path
           id="path36"
           style="fill:#ffffff;fill-opacity:1;fill-rule:nonzero;stroke:none"
           d="M 0,1.40816e-5 H 960 V 540.00001 H 0 Z" /><g
           transform="matrix(7.874016e-5,0,0,-7.874016e-5,115.1463,437.8602)"
           id="g38"><path
             id="path40"
             style="fill:none;stroke:#000000;stroke-width:12700;stroke-linecap:butt;stroke-linejoin:miter;stroke-miterlimit:8;stroke-dasharray:none;stroke-opacity:1"
             d="M 0,0 H 3657600 V 3657600 H 0 Z" /></g><path
           id="path42"
           style="fill:#c00000;fill-opacity:1;fill-rule:evenodd;stroke:none"
           d="m 248.3463,297.4602 c 0,3.9765 3.2235,7.2 7.2,7.2 3.9764,0 7.2,-3.2235 7.2,-7.2 0,-3.9764 -3.2236,-7.2 -7.2,-7.2 -3.9765,0 -7.2,3.2236 -7.2,7.2 z" /><g
           transform="matrix(7.874016e-5,0,0,-7.874016e-5,248.3463,304.6602)"
           id="g44"><path
             id="path46"
             style="fill:none;stroke:#2f528f;stroke-width:12700;stroke-linecap:butt;stroke-linejoin:miter;stroke-miterlimit:8;stroke-dasharray:none;stroke-opacity:1"
             d="M 0,91440 C 0,40939.08 40939.08,0 91440,0 c 50500.9,0 91440,40939.08 91440,91440 0,50500.9 -40939.1,91440 -91440,91440 C 40939.08,182880 0,141940.9 0,91440 Z" /></g><path
           id="path48"
           style="fill:#c00000;fill-opacity:0.47840002;fill-rule:evenodd;stroke:none"
           d="m 210.3355,347.2809 c 0,3.9764 3.2236,7.2 7.2,7.2 3.9765,0 7.2,-3.2236 7.2,-7.2 0,-3.9765 -3.2235,-7.2 -7.2,-7.2 -3.9764,0 -7.2,3.2235 -7.2,7.2 z" /><g
           transform="matrix(7.874016e-5,0,0,-7.874016e-5,210.3355,354.4809)"
           id="g50"><path
             id="path52"
             style="fill:none;stroke:#2f528f;stroke-width:12700;stroke-linecap:butt;stroke-linejoin:miter;stroke-miterlimit:8;stroke-dasharray:none;stroke-opacity:1"
             d="M 0,91440 C 0,40939.08 40939.08,0 91440,0 c 50500.9,0 91440,40939.08 91440,91440 0,50500.9 -40939.1,91440 -91440,91440 C 40939.08,182880 0,141940.9 0,91440 Z" /></g><path
           id="path54"
           style="fill:#c00000;fill-opacity:0.47840002;fill-rule:evenodd;stroke:none"
           d="m 287.065,347.2809 c 0,3.9764 3.2236,7.2 7.2,7.2 3.9765,0 7.2,-3.2236 7.2,-7.2 0,-3.9765 -3.2235,-7.2 -7.2,-7.2 -3.9764,0 -7.2,3.2235 -7.2,7.2 z" /><g
           transform="matrix(7.874016e-5,0,0,-7.874016e-5,287.065,354.4809)"
           id="g56"><path
             id="path58"
             style="fill:none;stroke:#2f528f;stroke-width:12700;stroke-linecap:butt;stroke-linejoin:miter;stroke-miterlimit:8;stroke-dasharray:none;stroke-opacity:1"
             d="M 0,91440 C 0,40939.08 40939.08,0 91440,0 c 50500.9,0 91440,40939.08 91440,91440 0,50500.9 -40939.1,91440 -91440,91440 C 40939.08,182880 0,141940.9 0,91440 Z" /></g><path
           id="path60"
           style="fill:#c00000;fill-opacity:0.47840002;fill-rule:evenodd;stroke:none"
           d="m 194.636,265.6395 c 0,3.9764 3.2235,7.2 7.2,7.2 3.9764,0 7.2,-3.2236 7.2,-7.2 0,-3.9765 -3.2236,-7.2 -7.2,-7.2 -3.9765,0 -7.2,3.2235 -7.2,7.2 z" /><g
           transform="matrix(7.874016e-5,0,0,-7.874016e-5,194.636,272.8395)"
           id="g62"><path
             id="path64"
             style="fill:none;stroke:#2f528f;stroke-width:12700;stroke-linecap:butt;stroke-linejoin:miter;stroke-miterlimit:8;stroke-dasharray:none;stroke-opacity:1"
             d="M 0,91440 C 0,40939.08 40939.08,0 91440,0 c 50500.9,0 91440,40939.08 91440,91440 0,50500.9 -40939.1,91440 -91440,91440 C 40939.08,182880 0,141940.9 0,91440 Z" /></g><path
           id="path66"
           style="fill:#c00000;fill-opacity:0.47840002;fill-rule:evenodd;stroke:none"
           d="m 244.7463,234.4602 c 0,3.9765 3.2235,7.2 7.2,7.2 3.9764,0 7.2,-3.2235 7.2,-7.2 0,-3.9764 -3.2236,-7.2 -7.2,-7.2 -3.9765,0 -7.2,3.2236 -7.2,7.2 z" /><g
           transform="matrix(7.874016e-5,0,0,-7.874016e-5,244.7463,241.6602)"
           id="g68"><path
             id="path70"
             style="fill:none;stroke:#2f528f;stroke-width:12700;stroke-linecap:butt;stroke-linejoin:miter;stroke-miterlimit:8;stroke-dasharray:none;stroke-opacity:1"
             d="M 0,91440 C 0,40939.08 40939.08,0 91440,0 c 50500.9,0 91440,40939.08 91440,91440 0,50500.9 -40939.1,91440 -91440,91440 C 40939.08,182880 0,141940.9 0,91440 Z" /></g><path
           id="path72"
           style="fill:#c00000;fill-opacity:0.47840002;fill-rule:evenodd;stroke:none"
           d="m 301.465,265.3705 c 0,3.9765 3.2236,7.2 7.2,7.2 3.9765,0 7.2,-3.2235 7.2,-7.2 0,-3.9764 -3.2235,-7.2 -7.2,-7.2 -3.9764,0 -7.2,3.2236 -7.2,7.2 z" /><g
           transform="matrix(7.874016e-5,0,0,-7.874016e-5,301.465,272.5705)"
           id="g74"><path
             id="path76"
             style="fill:none;stroke:#2f528f;stroke-width:12700;stroke-linecap:butt;stroke-linejoin:miter;stroke-miterlimit:8;stroke-dasharray:none;stroke-opacity:1"
             d="M 0,91440 C 0,40939.08 40939.08,0 91440,0 c 50500.9,0 91440,40939.08 91440,91440 0,50500.9 -40939.1,91440 -91440,91440 C 40939.08,182880 0,141940.9 0,91440 Z" /></g><path
           id="path78"
           style="fill:#d0cece;fill-opacity:0.47840002;fill-rule:evenodd;stroke:none"
           d="m 166.0596,398.1774 c 0,3.9765 3.2236,7.2 7.2,7.2 3.9765,0 7.2,-3.2235 7.2,-7.2 0,-3.9764 -3.2235,-7.2 -7.2,-7.2 -3.9764,0 -7.2,3.2236 -7.2,7.2 z" /><g
           transform="matrix(7.874016e-5,0,0,-7.874016e-5,166.0596,405.3774)"
           id="g80"><path
             id="path82"
             style="fill:none;stroke:#2f528f;stroke-width:12700;stroke-linecap:butt;stroke-linejoin:miter;stroke-miterlimit:8;stroke-dasharray:none;stroke-opacity:1"
             d="M 0,91440 C 0,40939.08 40939.08,0 91440,0 c 50500.9,0 91440,40939.08 91440,91440 0,50500.9 -40939.1,91440 -91440,91440 C 40939.08,182880 0,141940.9 0,91440 Z" /></g><path
           id="path84"
           style="fill:#d0cece;fill-opacity:0.47840002;fill-rule:evenodd;stroke:none"
           d="m 133.606,347.2809 c 0,3.9764 3.2235,7.2 7.2,7.2 3.9764,0 7.2,-3.2236 7.2,-7.2 0,-3.9765 -3.2236,-7.2 -7.2,-7.2 -3.9765,0 -7.2,3.2235 -7.2,7.2 z" /><g
           transform="matrix(7.874016e-5,0,0,-7.874016e-5,133.606,354.4809)"
           id="g86"><path
             id="path88"
             style="fill:none;stroke:#2f528f;stroke-width:12700;stroke-linecap:butt;stroke-linejoin:miter;stroke-miterlimit:8;stroke-dasharray:none;stroke-opacity:1"
             d="M 0,91440 C 0,40939.08 40939.08,0 91440,0 c 50500.9,0 91440,40939.08 91440,91440 0,50500.9 -40939.1,91440 -91440,91440 C 40939.08,182880 0,141940.9 0,91440 Z" /></g><path
           id="path90"
           style="fill:#d0cece;fill-opacity:0.47840002;fill-rule:evenodd;stroke:none"
           d="m 248.3463,398.1774 c 0,3.9765 3.2235,7.2 7.2,7.2 3.9764,0 7.2,-3.2235 7.2,-7.2 0,-3.9764 -3.2236,-7.2 -7.2,-7.2 -3.9765,0 -7.2,3.2236 -7.2,7.2 z" /><g
           transform="matrix(7.874016e-5,0,0,-7.874016e-5,248.3463,405.3774)"
           id="g92"><path
             id="path94"
             style="fill:none;stroke:#2f528f;stroke-width:12700;stroke-linecap:butt;stroke-linejoin:miter;stroke-miterlimit:8;stroke-dasharray:none;stroke-opacity:1"
             d="M 0,91440 C 0,40939.08 40939.08,0 91440,0 c 50500.9,0 91440,40939.08 91440,91440 0,50500.9 -40939.1,91440 -91440,91440 C 40939.08,182880 0,141940.9 0,91440 Z" /></g><path
           id="path96"
           style="fill:#d0cece;fill-opacity:0.47840002;fill-rule:evenodd;stroke:none"
           d="m 337.3118,398.1774 c 0,3.9765 3.2235,7.2 7.2,7.2 3.9764,0 7.2,-3.2235 7.2,-7.2 0,-3.9764 -3.2236,-7.2 -7.2,-7.2 -3.9765,0 -7.2,3.2236 -7.2,7.2 z" /><g
           transform="matrix(7.874016e-5,0,0,-7.874016e-5,337.3118,405.3774)"
           id="g98"><path
             id="path100"
             style="fill:none;stroke:#2f528f;stroke-width:12700;stroke-linecap:butt;stroke-linejoin:miter;stroke-miterlimit:8;stroke-dasharray:none;stroke-opacity:1"
             d="M 0,91440 C 0,40939.08 40939.08,0 91440,0 c 50500.9,0 91440,40939.08 91440,91440 0,50500.9 -40939.1,91440 -91440,91440 C 40939.08,182880 0,141940.9 0,91440 Z" /></g><path
           id="path102"
           style="fill:#d0cece;fill-opacity:0.47840002;fill-rule:evenodd;stroke:none"
           d="m 362.967,297.4602 c 0,3.9765 3.2236,7.2 7.2,7.2 3.9765,0 7.2,-3.2235 7.2,-7.2 0,-3.9764 -3.2235,-7.2 -7.2,-7.2 -3.9764,0 -7.2,3.2236 -7.2,7.2 z" /><g
           transform="matrix(7.874016e-5,0,0,-7.874016e-5,362.967,304.6602)"
           id="g104"><path
             id="path106"
             style="fill:none;stroke:#2f528f;stroke-width:12700;stroke-linecap:butt;stroke-linejoin:miter;stroke-miterlimit:8;stroke-dasharray:none;stroke-opacity:1"
             d="M 0,91440 C 0,40939.08 40939.08,0 91440,0 c 50500.9,0 91440,40939.08 91440,91440 0,50500.9 -40939.1,91440 -91440,91440 C 40939.08,182880 0,141940.9 0,91440 Z" /></g><path
           id="path108"
           style="fill:#d0cece;fill-opacity:0.47840002;fill-rule:evenodd;stroke:none"
           d="m 310.4734,190.6602 c 0,3.9765 3.2235,7.2 7.2,7.2 3.9764,0 7.2,-3.2235 7.2,-7.2 0,-3.9764 -3.2236,-7.2 -7.2,-7.2 -3.9765,0 -7.2,3.2236 -7.2,7.2 z" /><g
           transform="matrix(7.874016e-5,0,0,-7.874016e-5,310.4734,197.8602)"
           id="g110"><path
             id="path112"
             style="fill:none;stroke:#2f528f;stroke-width:12700;stroke-linecap:butt;stroke-linejoin:miter;stroke-miterlimit:8;stroke-dasharray:none;stroke-opacity:1"
             d="M 0,91440 C 0,40939.08 40939.08,0 91440,0 c 50500.9,0 91440,40939.08 91440,91440 0,50500.9 -40939.1,91440 -91440,91440 C 40939.08,182880 0,141940.9 0,91440 Z" /></g><path
           id="path114"
           style="fill:#d0cece;fill-opacity:0.47840002;fill-rule:evenodd;stroke:none"
           d="m 362.967,227.2602 c 0,3.9765 3.2236,7.2 7.2,7.2 3.9765,0 7.2,-3.2235 7.2,-7.2 0,-3.9764 -3.2235,-7.2 -7.2,-7.2 -3.9764,0 -7.2,3.2236 -7.2,7.2 z" /><g
           transform="matrix(7.874016e-5,0,0,-7.874016e-5,362.967,234.4602)"
           id="g116"><path
             id="path118"
             style="fill:none;stroke:#2f528f;stroke-width:12700;stroke-linecap:butt;stroke-linejoin:miter;stroke-miterlimit:8;stroke-dasharray:none;stroke-opacity:1"
             d="M 0,91440 C 0,40939.08 40939.08,0 91440,0 c 50500.9,0 91440,40939.08 91440,91440 0,50500.9 -40939.1,91440 -91440,91440 C 40939.08,182880 0,141940.9 0,91440 Z" /></g><path
           id="path120"
           style="fill:#d0cece;fill-opacity:0.47840002;fill-rule:evenodd;stroke:none"
           d="m 140.806,227.2602 c 0,3.9765 3.2235,7.2 7.2,7.2 3.9764,0 7.2,-3.2235 7.2,-7.2 0,-3.9764 -3.2236,-7.2 -7.2,-7.2 -3.9765,0 -7.2,3.2236 -7.2,7.2 z" /><g
           transform="matrix(7.874016e-5,0,0,-7.874016e-5,140.806,234.4602)"
           id="g122"><path
             id="path124"
             style="fill:none;stroke:#2f528f;stroke-width:12700;stroke-linecap:butt;stroke-linejoin:miter;stroke-miterlimit:8;stroke-dasharray:none;stroke-opacity:1"
             d="M 0,91440 C 0,40939.08 40939.08,0 91440,0 c 50500.9,0 91440,40939.08 91440,91440 0,50500.9 -40939.1,91440 -91440,91440 C 40939.08,182880 0,141940.9 0,91440 Z" /></g><path
           id="path126"
           style="fill:#d0cece;fill-opacity:0.47840002;fill-rule:evenodd;stroke:none"
           d="m 195.9355,185.5133 c 0,3.9765 3.2236,7.2 7.2,7.2 3.9765,0 7.2,-3.2235 7.2,-7.2 0,-3.9764 -3.2235,-7.2 -7.2,-7.2 -3.9764,0 -7.2,3.2236 -7.2,7.2 z" /><g
           transform="matrix(7.874016e-5,0,0,-7.874016e-5,195.9355,192.7133)"
           id="g128"><path
             id="path130"
             style="fill:none;stroke:#2f528f;stroke-width:12700;stroke-linecap:butt;stroke-linejoin:miter;stroke-miterlimit:8;stroke-dasharray:none;stroke-opacity:1"
             d="M 0,91440 C 0,40939.08 40939.08,0 91440,0 c 50500.9,0 91440,40939.08 91440,91440 0,50500.9 -40939.1,91440 -91440,91440 C 40939.08,182880 0,141940.9 0,91440 Z" /></g><g
           transform="matrix(0.24,0,0,0.24,215.8098,-342.72)"
           id="g132"><text
             id="text136"
             style="font-variant:normal;font-weight:normal;font-size:75px;font-family:ArialMT;-inkscape-font-specification:ArialMT;writing-mode:lr-tb;fill:#000000;fill-opacity:1;fill-rule:nonzero;stroke:none"
             transform="matrix(1,0,0,-1,0,2250)"><tspan
               id="tspan134"
               y="0"
               x="0 41.669998 83.339996 145.83749 187.50751 225.00751 250.005 291.67499">democrat</tspan></text>
</g><g
           transform="matrix(0.24,0,0,0.24,118.2976,-275.04)"
           id="g138"><text
             id="text142"
             style="font-variant:normal;font-weight:normal;font-size:75px;font-family:ArialMT;-inkscape-font-specification:ArialMT;writing-mode:lr-tb;fill:#000000;fill-opacity:1;fill-rule:nonzero;stroke:none"
             transform="matrix(1,0,0,-1,0,2250)"><tspan
               id="tspan140"
               y="0"
               x="0 41.669998 66.667503 108.3375 145.83749 162.5025 204.1725 245.8425">presiden</tspan></text>
</g><g
           transform="matrix(0.24,0,0,0.24,187.2976,-275.04)"
           id="g144"><text
             id="text148"
             style="font-variant:normal;font-weight:normal;font-size:75px;font-family:ArialMT;-inkscape-font-specification:ArialMT;writing-mode:lr-tb;fill:#000000;fill-opacity:1;fill-rule:nonzero;stroke:none"
             transform="matrix(1,0,0,-1,0,2250)"><tspan
               id="tspan146"
               y="0"
               x="0">t</tspan></text>
</g><path
           id="path150"
           style="fill:#000000;fill-opacity:1;fill-rule:nonzero;stroke:none"
           d="m 263.7617,306.4632 25.615,35.5804 -0.4057,0.2922 -25.6151,-35.5805 z m -2.0533,2.7104 -1.0709,-6.6222 5.9402,3.1166 z" /><path
           id="path152"
           style="fill:#000000;fill-opacity:1;fill-rule:nonzero;stroke:none"
           d="m 250.2505,302.4078 -24.9555,35.5461 0.4093,0.2873 24.9554,-35.5461 z m -26.6316,33.1475 -0.9922,6.6344 5.9029,-3.1869 z" /><path
           id="path154"
           style="fill:#000000;fill-opacity:1;fill-rule:nonzero;stroke:none"
           d="m 248.2107,297.6703 -37.218,-24.0184 0.2711,-0.4201 37.2181,24.0184 z m -37.8689,-21.1656 -3.4146,-5.7741 6.668,0.7328 z" /><path
           id="path156"
           style="fill:#000000;fill-opacity:1;fill-rule:nonzero;stroke:none"
           d="m 255.297,290.2787 -3.2307,-43.6136 0.4987,-0.037 3.2306,43.6137 z m -5.8993,-42.4132 2.5486,-6.2053 3.435,5.762 z" /><path
           id="path158"
           style="fill:#000000;fill-opacity:1;fill-rule:nonzero;stroke:none"
           d="m 301.3271,265.162 -36.6569,24.2406 0.2758,0.4171 36.6569,-24.2406 z m -37.3397,21.3952 -3.3499,5.8118 6.6594,-0.8071 z" /><path
           id="path160"
           style="fill:#000000;fill-opacity:1;fill-rule:nonzero;stroke:none"
           d="m 212.2526,352.2115 -30.8834,36.8808 0.3833,0.321 30.8835,-36.8807 z m -32.3498,34.3485 -1.552,6.5262 6.1522,-2.6741 z" /><path
           id="path162"
           style="fill:#000000;fill-opacity:1;fill-rule:nonzero;stroke:none"
           d="m 210.3355,347.5309 -57.3295,-10e-5 v -0.5 l 57.3295,10e-5 z m -56.3295,2.7499 -6,-3 6,-3 z" /><path
           id="path164"
           style="fill:#000000;fill-opacity:1;fill-rule:nonzero;stroke:none"
           d="m 196.6091,260.7583 -39.4477,-25.4837 0.2713,-0.42 39.4478,25.4837 z m -40.1,-22.6312 -3.4119,-5.7757 6.6677,0.7359 z" /><path
           id="path166"
           style="fill:#000000;fill-opacity:1;fill-rule:nonzero;stroke:none"
           d="m 202.0859,258.4444 1.2007,-60.7271 -0.4999,-0.01 -1.2007,60.7271 z m 3.9304,-59.673 -2.8808,-6.0581 -3.118,5.9395 z" /><path
           id="path168"
           style="fill:#000000;fill-opacity:1;fill-rule:nonzero;stroke:none"
           d="m 257.1669,229.5829 51.2673,-31.0287 -0.2589,-0.4278 -51.2673,31.0288 z m 51.8356,-28.1582 3.5797,-5.6733 -6.6864,0.5402 z" /><path
           id="path170"
           style="fill:#000000;fill-opacity:1;fill-rule:nonzero;stroke:none"
           d="m 309.6509,253.2623 8.2697,-55.3651 -0.4945,-0.0739 -8.2697,55.3652 z m -3.0666,-1.4691 2.0807,6.3773 3.8535,-5.4909 z" /><path
           id="path172"
           style="fill:#000000;fill-opacity:1;fill-rule:nonzero;stroke:none"
           d="m 318.2675,258.109 46.9278,-25.538 -0.239,-0.4392 -46.9278,25.538 z m -0.6751,-3.3327 -3.8362,5.5031 6.7042,-0.233 z" /><path
           id="path174"
           style="fill:#000000;fill-opacity:1;fill-rule:nonzero;stroke:none"
           d="m 316.0058,265.1639 42.9698,29.2745 -0.2815,0.4132 -42.9698,-29.2744 z m 43.6917,26.4388 3.2695,5.8575 -6.6477,-0.8989 z" /><path
           id="path176"
           style="fill:#000000;fill-opacity:1;fill-rule:nonzero;stroke:none"
           d="m 299.5344,352.1967 36.5574,37.1503 -0.3563,0.3507 -36.5575,-37.1503 z m 37.8162,34.5087 2.07,6.3808 -6.3467,-2.1724 z" /><path
           id="path178"
           style="fill:#000000;fill-opacity:1;fill-rule:nonzero;stroke:none"
           d="m 288.9691,352.2286 -25.6666,36.6197 0.4095,0.287 25.6666,-36.6198 z m -27.3446,34.2224 -0.987,6.6352 5.9004,-3.1914 z" /><path
           id="path180"
           style="fill:#000000;fill-opacity:1;fill-rule:nonzero;stroke:none"
           d="m 217.7257,354.3187 29.6754,34.8008 -0.3804,0.3244 -29.6754,-34.8008 z m 31.1191,32.2555 1.6103,6.512 -6.1758,-2.6189 z" /><g
           transform="matrix(7.874016e-5,0,0,-7.874016e-5,349.603,393.0862)"
           id="g182"><path
             id="path184"
             style="fill:none;stroke:#000000;stroke-width:6350;stroke-linecap:butt;stroke-linejoin:miter;stroke-miterlimit:8;stroke-dasharray:none;stroke-opacity:1"
             d="M 0,0 352603,1" /></g><g
           transform="matrix(-7.874016e-5,0,0,7.874016e-5,339.4206,403.2686)"
           id="g186"><path
             id="path188"
             style="fill:none;stroke:#000000;stroke-width:6350;stroke-linecap:butt;stroke-linejoin:miter;stroke-miterlimit:8;stroke-dasharray:none;stroke-opacity:1"
             d="M 0,0 26782,232298" /></g><g
           transform="matrix(-7.874016e-5,0,0,7.874016e-5,248.3463,398.1774)"
           id="g190"><path
             id="path192"
             style="fill:none;stroke:#000000;stroke-width:6350;stroke-linecap:butt;stroke-linejoin:miter;stroke-miterlimit:8;stroke-dasharray:none;stroke-opacity:1"
             d="M 0,0 215562,251441" /></g><g
           transform="matrix(7.874016e-5,0,0,7.874016e-5,262.7463,398.1774)"
           id="g194"><path
             id="path196"
             style="fill:none;stroke:#000000;stroke-width:6350;stroke-linecap:butt;stroke-linejoin:miter;stroke-miterlimit:8;stroke-dasharray:none;stroke-opacity:1"
             d="M 0,0 232473,291409" /></g><g
           transform="matrix(7.874016e-5,0,0,7.874016e-5,178.3508,403.2686)"
           id="g198"><path
             id="path200"
             style="fill:none;stroke:#000000;stroke-width:6350;stroke-linecap:butt;stroke-linejoin:miter;stroke-miterlimit:8;stroke-dasharray:none;stroke-opacity:1"
             d="M 0,0 79627,226751" /></g><g
           transform="matrix(-7.874016e-5,0,0,7.874016e-5,166.0596,398.1774)"
           id="g202"><path
             id="path204"
             style="fill:none;stroke:#000000;stroke-width:6350;stroke-linecap:butt;stroke-linejoin:miter;stroke-miterlimit:8;stroke-dasharray:none;stroke-opacity:1"
             d="M 0,0 267791,113375" /></g><g
           transform="matrix(-7.874016e-5,0,0,7.874016e-5,135.7148,352.3721)"
           id="g206"><path
             id="path208"
             style="fill:none;stroke:#000000;stroke-width:6350;stroke-linecap:butt;stroke-linejoin:miter;stroke-miterlimit:8;stroke-dasharray:none;stroke-opacity:1"
             d="M 0,0 241067,115032" /></g><g
           transform="matrix(-7.874016e-5,0,0,-7.874016e-5,135.7148,342.1897)"
           id="g210"><path
             id="path212"
             style="fill:none;stroke:#000000;stroke-width:6350;stroke-linecap:butt;stroke-linejoin:miter;stroke-miterlimit:8;stroke-dasharray:none;stroke-opacity:1"
             d="M 0,0 179532,125574" /></g><g
           transform="matrix(7.874016e-5,0,0,7.874016e-5,124.288,225.7188)"
           id="g214"><path
             id="path216"
             style="fill:none;stroke:#000000;stroke-width:6350;stroke-linecap:butt;stroke-linejoin:miter;stroke-miterlimit:8;stroke-dasharray:none;stroke-opacity:1"
             d="M 0,0 209778,19576" /></g><g
           transform="matrix(-7.874016e-5,0,0,-7.874016e-5,148.006,220.0602)"
           id="g218"><path
             id="path220"
             style="fill:none;stroke:#000000;stroke-width:6350;stroke-linecap:butt;stroke-linejoin:miter;stroke-miterlimit:8;stroke-dasharray:none;stroke-opacity:1"
             d="M 0,0 156098,281940" /></g><g
           transform="matrix(-7.874016e-5,0,0,-7.874016e-5,198.0443,180.4221)"
           id="g222"><path
             id="path224"
             style="fill:none;stroke:#000000;stroke-width:6350;stroke-linecap:butt;stroke-linejoin:miter;stroke-miterlimit:8;stroke-dasharray:none;stroke-opacity:1"
             d="M 0,0 170481,172927" /></g><g
           transform="matrix(7.874016e-5,0,0,-7.874016e-5,208.2267,180.4221)"
           id="g226"><path
             id="path228"
             style="fill:none;stroke:#000000;stroke-width:6350;stroke-linecap:butt;stroke-linejoin:miter;stroke-miterlimit:8;stroke-dasharray:none;stroke-opacity:1"
             d="M 0,0 170481,172927" /></g><g
           transform="matrix(-7.874016e-5,0,0,-7.874016e-5,312.5822,185.5691)"
           id="g230"><path
             id="path232"
             style="fill:none;stroke:#000000;stroke-width:6350;stroke-linecap:butt;stroke-linejoin:miter;stroke-miterlimit:8;stroke-dasharray:none;stroke-opacity:1"
             d="M 0,0 141188,236463" /></g><g
           transform="matrix(7.874016e-5,0,0,-7.874016e-5,324.8734,190.6602)"
           id="g234"><path
             id="path236"
             style="fill:none;stroke:#000000;stroke-width:6350;stroke-linecap:butt;stroke-linejoin:miter;stroke-miterlimit:8;stroke-dasharray:none;stroke-opacity:1"
             d="M 0,0 249408,174189" /></g><g
           transform="matrix(7.874016e-5,0,0,-7.874016e-5,375.2582,222.1691)"
           id="g238"><path
             id="path240"
             style="fill:none;stroke:#000000;stroke-width:6350;stroke-linecap:butt;stroke-linejoin:miter;stroke-miterlimit:8;stroke-dasharray:none;stroke-opacity:1"
             d="M 0,0 217661,267348" /></g><g
           transform="matrix(7.874016e-5,0,0,7.874016e-5,375.2582,232.3514)"
           id="g242"><path
             id="path244"
             style="fill:none;stroke:#000000;stroke-width:6350;stroke-linecap:butt;stroke-linejoin:miter;stroke-miterlimit:8;stroke-dasharray:none;stroke-opacity:1"
             d="M 0,0 217661,179050" /></g><g
           transform="matrix(7.874016e-5,0,0,-7.874016e-5,375.2582,292.369)"
           id="g246"><path
             id="path248"
             style="fill:none;stroke:#000000;stroke-width:6350;stroke-linecap:butt;stroke-linejoin:miter;stroke-miterlimit:8;stroke-dasharray:none;stroke-opacity:1"
             d="M 0,0 192009,104765" /></g><g
           transform="matrix(7.874016e-5,0,0,7.874016e-5,375.2582,302.5514)"
           id="g250"><path
             id="path252"
             style="fill:none;stroke:#000000;stroke-width:6350;stroke-linecap:butt;stroke-linejoin:miter;stroke-miterlimit:8;stroke-dasharray:none;stroke-opacity:1"
             d="M 0,0 155962,156098" /></g><g
           transform="matrix(7.874016e-5,0,0,-7.874016e-5,177.2698,378.9576)"
           id="g254"><path
             id="path256"
             style="fill:none;stroke:#000000;stroke-width:12700;stroke-linecap:butt;stroke-linejoin:miter;stroke-miterlimit:8;stroke-dasharray:38100, 12700;stroke-dashoffset:0;stroke-opacity:1"
             d="M 0,1051560 C 0,470799.4 470799.4,0 1051560,0 c 580760,0 1051560,470799.4 1051560,1051560 0,580760 -470800,1051560 -1051560,1051560 C 470799.4,2103120 0,1632320 0,1051560 Z" /></g><g
           transform="matrix(0.24,0,0,0.24,267.8375,-246.72)"
           id="g258"><text
             id="text262"
             style="font-variant:normal;font-weight:normal;font-size:75px;font-family:ArialMT;-inkscape-font-specification:ArialMT;writing-mode:lr-tb;fill:#000000;fill-opacity:1;fill-rule:nonzero;stroke:none"
             transform="matrix(1,0,0,-1,0,2250)"><tspan
               id="tspan260"
               y="0"
               x="0 41.669998 83.339996 120.84 162.50999 187.50751 229.17751 270.8475">governor</tspan></text>
</g></g></g></g></svg>