<?xml version="1.0" standalone="no"?>
<!DOCTYPE svg PUBLIC "-//W3C//DTD SVG 20010904//EN"
 "http://www.w3.org/TR/2001/REC-SVG-20010904/DTD/svg10.dtd">
<svg version="1.0" xmlns="http://www.w3.org/2000/svg"
 width="900.000000pt" height="900.000000pt" viewBox="0 0 900.000000 900.000000"
 preserveAspectRatio="xMidYMid meet">

<g transform="translate(0.000000,900.000000) scale(0.100000,-0.100000)"
fill="#a80707" stroke="none">
<path d="M4085 8939 c-115 -11 -242 -27 -300 -38 -27 -5 -90 -17 -140 -26 -49
-8 -101 -19 -115 -25 -14 -5 -41 -12 -60 -15 -71 -12 -135 -29 -145 -37 -5 -4
-17 -8 -28 -8 -19 0 -55 -11 -207 -61 -116 -38 -197 -67 -245 -89 -22 -10 -65
-28 -95 -40 -30 -12 -72 -30 -93 -41 -22 -10 -45 -19 -53 -19 -8 0 -14 -4 -14
-10 0 -5 -5 -10 -10 -10 -19 0 -316 -154 -330 -171 -3 -3 -21 -14 -40 -24 -45
-23 -313 -199 -333 -220 -9 -8 -20 -15 -25 -15 -6 0 -12 -4 -14 -8 -1 -5 -30
-28 -63 -52 -52 -39 -82 -63 -129 -105 -6 -5 -34 -28 -61 -50 -44 -35 -177
-159 -269 -251 -56 -56 -141 -148 -201 -219 -33 -38 -62 -72 -65 -75 -3 -3
-28 -34 -55 -70 -28 -36 -52 -67 -55 -70 -14 -13 -113 -153 -156 -220 -26 -41
-51 -76 -56 -78 -4 -2 -8 -8 -8 -13 0 -5 -19 -39 -43 -76 -23 -38 -55 -93 -71
-123 -16 -30 -37 -66 -46 -80 -9 -14 -23 -40 -31 -57 -8 -18 -17 -33 -21 -33
-5 0 -8 -9 -8 -19 0 -11 -4 -22 -9 -26 -5 -3 -12 -19 -16 -35 -4 -17 -11 -30
-16 -30 -5 0 -9 -9 -9 -20 0 -11 -4 -20 -10 -20 -5 0 -10 -7 -10 -15 0 -13
-36 -100 -61 -147 -5 -10 -9 -24 -9 -32 0 -8 -3 -16 -7 -18 -7 -3 -27 -53 -68
-173 -10 -27 -22 -58 -26 -67 -5 -10 -9 -27 -9 -37 0 -11 -4 -23 -10 -26 -5
-3 -10 -14 -10 -24 0 -22 -28 -118 -41 -143 -5 -10 -9 -25 -9 -35 0 -9 -4 -30
-10 -47 -16 -52 -49 -202 -61 -273 -6 -37 -15 -93 -20 -123 -37 -211 -48 -382
-48 -705 0 -284 8 -437 29 -585 31 -217 44 -290 61 -351 13 -50 38 -158 46
-207 3 -18 9 -35 14 -38 5 -3 9 -14 9 -25 0 -11 7 -44 16 -72 34 -109 76 -233
88 -262 7 -16 19 -46 26 -65 16 -46 24 -66 49 -122 12 -26 21 -50 21 -53 0 -2
23 -52 50 -110 27 -58 50 -110 50 -114 0 -5 4 -11 8 -13 4 -1 20 -28 34 -58
28 -57 69 -131 78 -140 3 -3 12 -18 20 -35 19 -39 170 -278 180 -285 6 -4 43
-58 75 -109 6 -9 12 -18 15 -21 5 -5 72 -87 97 -120 191 -249 599 -643 829
-801 27 -18 55 -39 62 -46 7 -7 17 -13 21 -13 4 0 17 -9 28 -20 24 -21 194
-133 264 -172 24 -14 62 -35 84 -48 22 -12 45 -26 50 -30 32 -25 400 -200 420
-200 8 0 17 -4 20 -10 3 -5 15 -10 26 -10 10 0 19 -4 19 -9 0 -5 10 -11 23
-14 21 -4 180 -59 222 -76 50 -21 184 -61 203 -61 12 0 23 -4 26 -9 3 -5 20
-11 38 -14 18 -3 83 -17 143 -31 139 -34 216 -49 390 -76 121 -19 425 -40 590
-41 170 -1 537 17 565 27 8 3 49 10 90 14 41 5 98 13 125 19 28 5 79 14 115
21 104 18 295 64 335 80 11 5 31 11 45 14 64 13 129 32 136 39 4 4 16 7 26 7
10 0 26 4 36 9 20 11 116 46 152 57 14 4 48 17 75 29 28 13 86 38 130 56 44
18 109 48 145 66 35 18 70 33 76 33 7 0 14 3 16 8 2 4 23 18 48 31 140 74 175
94 178 102 2 5 9 9 15 9 7 0 36 16 64 35 29 19 54 35 57 35 6 0 335 228 352
244 7 6 29 25 50 43 97 79 193 161 237 203 150 139 360 362 412 435 11 15 29
37 40 49 11 11 47 57 80 101 33 44 63 81 68 83 4 2 7 8 7 12 0 5 31 54 70 109
39 54 70 104 70 110 0 6 5 11 10 11 6 0 10 4 10 10 0 5 17 36 37 67 20 32 50
83 65 113 15 30 41 78 58 105 17 28 34 59 39 71 5 11 28 60 51 108 22 48 50
111 61 139 11 28 31 74 43 102 13 27 26 61 30 75 8 26 22 63 37 92 5 10 9 26
9 36 0 10 4 22 8 28 8 9 14 25 48 149 9 33 20 69 24 80 5 11 11 31 13 45 3 14
17 71 31 127 14 56 30 130 36 165 6 35 16 88 21 118 11 62 24 154 39 280 5 47
12 216 16 375 7 362 -8 561 -67 900 -6 33 -22 107 -35 165 -14 58 -30 128 -36
155 -7 28 -15 54 -20 60 -4 5 -8 19 -8 32 0 12 -4 32 -9 45 -5 13 -17 50 -27
83 -9 33 -21 64 -26 69 -4 6 -8 17 -8 26 0 36 -137 364 -227 545 -94 186 -294
525 -323 545 -6 4 -44 59 -75 109 -5 9 -12 18 -15 21 -3 3 -49 59 -102 125
-53 66 -111 136 -130 156 -18 20 -67 73 -108 119 -41 46 -86 93 -98 104 -13
12 -36 32 -51 46 -199 184 -218 200 -231 200 -6 0 -10 4 -10 8 0 9 -105 96
-190 156 -30 22 -57 43 -60 46 -3 4 -20 15 -37 25 -18 11 -33 23 -33 27 0 4
-6 8 -14 8 -8 0 -16 3 -18 8 -5 10 -146 102 -158 102 -5 0 -10 3 -10 8 0 4
-17 16 -37 27 -21 11 -69 38 -108 60 -112 65 -442 225 -463 225 -6 0 -27 9
-49 19 -21 11 -85 36 -143 56 -58 21 -113 41 -122 46 -10 5 -26 9 -36 9 -10 0
-22 4 -28 9 -5 4 -43 16 -84 26 -41 10 -84 21 -95 26 -30 12 -250 63 -345 80
-170 31 -287 47 -425 59 -129 10 -704 10 -820 -1z m3025 -1514 c0 -8 -4 -15
-8 -15 -5 0 -13 -9 -18 -20 -5 -10 -54 -57 -109 -102 -55 -46 -104 -93 -110
-106 -5 -12 -13 -22 -17 -22 -5 0 -8 -11 -8 -24 0 -14 -4 -28 -10 -31 -12 -8
-13 -199 -1 -223 5 -9 18 -44 29 -77 21 -64 50 -148 63 -180 4 -11 11 -33 15
-50 10 -40 10 -329 -1 -484 -5 -80 -4 -167 4 -250 46 -513 58 -1032 25 -1200
-9 -50 -21 -91 -26 -91 -4 0 -8 -7 -8 -16 0 -23 -50 -70 -89 -83 -19 -6 -56
-11 -83 -11 -116 0 -194 54 -215 150 -37 164 -41 548 -10 1056 14 238 15 391
5 614 -9 205 1 290 50 400 49 111 72 197 72 270 0 43 -5 81 -11 87 -16 16
-173 -86 -324 -209 -154 -125 -162 -132 -312 -242 -119 -88 -153 -116 -211
-175 -43 -44 -43 -46 -39 -100 2 -31 10 -76 16 -101 22 -83 53 -185 62 -202 5
-10 9 -28 9 -41 0 -13 4 -27 9 -32 5 -6 16 -50 26 -100 26 -133 14 -297 -29
-410 -5 -11 -14 -37 -22 -57 -60 -162 -136 -269 -277 -391 -12 -10 -33 -28
-47 -40 -14 -12 -43 -35 -65 -52 -22 -16 -45 -34 -51 -40 -6 -5 -24 -19 -39
-30 -16 -11 -62 -53 -102 -94 -101 -104 -143 -196 -143 -316 0 -65 9 -108 34
-165 22 -51 120 -171 184 -227 37 -32 69 -60 72 -63 3 -4 43 -33 90 -65 47
-32 87 -62 90 -65 3 -3 45 -34 93 -69 49 -35 99 -73 112 -85 13 -12 34 -30 46
-42 20 -17 79 -83 121 -133 47 -57 136 -275 158 -386 6 -33 16 -78 21 -100 11
-42 7 -316 -5 -375 -27 -136 -86 -310 -108 -318 -4 -2 -8 -9 -8 -15 0 -45
-193 -268 -295 -343 -22 -16 -42 -31 -45 -34 -15 -15 -71 -50 -80 -50 -5 0
-10 -3 -10 -7 0 -5 -30 -21 -65 -38 -36 -16 -65 -33 -65 -37 0 -5 -6 -8 -12
-8 -7 0 -42 -12 -78 -26 -36 -15 -75 -30 -87 -35 -13 -5 -33 -13 -45 -18 -61
-23 -229 -64 -380 -90 -210 -37 -488 -51 -658 -32 -244 27 -427 66 -567 122
-13 5 -33 13 -45 18 -13 5 -39 15 -58 22 -53 19 -243 112 -258 126 -8 7 -23
18 -35 25 -42 21 -182 136 -227 185 -25 27 -63 75 -85 108 -22 33 -43 62 -46
65 -6 5 -44 106 -67 181 -15 44 -16 275 -2 284 6 3 10 16 10 27 0 28 32 132
42 136 5 2 8 11 9 20 0 21 100 184 154 253 53 68 129 145 190 194 28 22 52 43
55 46 13 15 152 98 205 123 104 48 149 68 170 76 11 4 31 12 45 18 14 5 54 18
90 27 36 9 74 21 85 25 11 4 47 13 80 20 33 6 76 15 95 20 19 5 62 12 95 16
33 3 69 8 80 10 11 3 92 9 180 15 88 6 169 12 180 14 11 2 46 4 78 4 l58 1
-45 65 c-25 36 -51 81 -58 100 -6 19 -16 35 -20 35 -4 0 -8 8 -8 18 0 10 -4
22 -8 27 -22 25 -66 256 -57 300 3 17 8 46 11 65 7 41 33 120 47 137 15 20 0
30 -40 26 -56 -6 -351 27 -433 47 -88 22 -156 42 -172 51 -10 5 -25 9 -33 9
-19 0 -212 99 -245 126 -99 81 -162 139 -191 176 -18 24 -36 45 -40 48 -14 10
-105 167 -128 220 -13 30 -27 63 -32 72 -5 10 -9 25 -9 33 0 8 -4 23 -10 33
-15 27 -60 226 -60 265 0 20 -5 58 -12 86 l-11 51 -619 0 c-345 0 -618 4 -618
9 0 9 42 48 144 136 32 28 64 55 70 60 20 19 170 149 236 205 36 30 85 73 110
95 24 22 50 45 56 50 30 26 74 64 129 110 33 28 62 52 65 55 19 19 114 102
154 135 27 22 61 51 76 65 24 22 111 98 160 140 10 8 40 34 66 56 27 23 61 52
75 65 14 13 52 46 85 74 32 27 64 54 70 60 6 5 22 19 35 31 166 143 314 272
373 326 l41 37 1628 1 c1440 0 1627 -2 1627 -15z"/>
<path d="M4269 6692 c-113 -19 -129 -24 -129 -33 0 -5 -6 -9 -12 -9 -19 0
-118 -52 -118 -62 0 -4 -4 -8 -10 -8 -12 0 -55 -35 -84 -69 -12 -13 -27 -29
-33 -37 -7 -7 -13 -15 -13 -18 0 -3 -16 -30 -35 -60 -19 -30 -35 -60 -35 -66
0 -5 -4 -18 -9 -28 -48 -95 -81 -252 -81 -389 0 -86 37 -319 59 -368 5 -11 14
-36 21 -55 16 -46 39 -101 50 -122 6 -10 10 -25 10 -33 0 -8 3 -15 8 -15 4 0
13 -15 21 -32 18 -42 95 -163 130 -204 14 -17 41 -49 58 -71 83 -103 208 -206
333 -274 306 -169 602 -94 793 198 15 24 27 47 27 52 0 5 4 11 8 13 4 2 18 25
30 51 29 61 41 98 81 253 14 54 14 310 0 371 -40 174 -52 218 -60 227 -5 6 -9
16 -9 24 0 29 -114 262 -132 270 -5 2 -8 10 -8 18 0 8 -3 14 -8 14 -4 0 -16
17 -27 37 -21 39 -245 273 -262 273 -5 0 -18 8 -29 18 -36 31 -72 51 -179 97
-70 30 -95 36 -186 43 -66 5 -119 3 -170 -6z"/>
<path d="M4420 3568 c-117 -16 -246 -42 -330 -65 -78 -21 -112 -35 -227 -89
-46 -21 -83 -40 -83 -44 0 -3 -17 -13 -38 -23 -59 -28 -149 -109 -237 -209
-14 -17 -78 -138 -96 -183 -34 -83 -48 -274 -29 -390 10 -62 40 -166 49 -175
3 -3 19 -32 36 -65 38 -76 44 -84 136 -177 41 -42 113 -100 160 -130 75 -48
110 -66 239 -121 40 -18 173 -55 240 -68 132 -25 226 -31 415 -25 184 5 258
14 365 45 19 5 51 14 71 19 20 5 51 17 69 26 18 9 37 16 41 16 14 0 124 54
127 62 2 4 8 8 14 8 26 0 238 173 238 195 0 3 11 18 25 33 33 35 77 122 106
207 21 61 24 88 24 220 0 129 -3 161 -24 230 -28 95 -61 175 -73 175 -4 0 -8
5 -8 11 0 11 -50 82 -62 87 -5 2 -8 8 -8 13 0 27 -180 176 -275 229 -197 109
-302 145 -520 181 -87 14 -270 18 -345 7z"/>
</g>
</svg>
