<?xml version="1.0" encoding="UTF-8" standalone="no"?>
<!DOCTYPE svg PUBLIC "-//W3C//DTD SVG 1.1//EN" "http://www.w3.org/Graphics/SVG/1.1/DTD/svg11.dtd">
<svg xmlns="http://www.w3.org/2000/svg" xmlns:xlink="http://www.w3.org/1999/xlink" version="1.1" width="290.5441pt" height="290.43098pt" viewBox="0 0 290.5441 290.43098">
<g enable-background="new">
<clipPath id="cp0">
<path transform="matrix(1,0,0,-1,-113.3447,439.2006)" d="M 0 .00001206994 L 959.76 .00001206994 L 959.76 540 L 0 540 Z "/>
</clipPath>
<g clip-path="url(#cp0)">
<path transform="matrix(1,0,0,-1,-113.3447,439.2006)" d="M 0 .00001206994 L 959.76 .00001206994 L 959.76 540 L 0 540 Z " fill="#ffffff"/>
</g>
<clipPath id="cp1">
<path transform="matrix(1,0,0,-1,-113.3447,439.2006)" d="M 0 0 L 960 0 L 960 540 L 0 540 Z "/>
</clipPath>
<g clip-path="url(#cp1)">
<path transform="matrix(1,0,0,-1,-113.3447,439.2006)" d="M 0 .0000140816 L 960 .0000140816 L 960 540 L 0 540 Z " fill="#ffffff"/>
<path transform="matrix(.00007874016,0,0,.00007874016,1.8015976,1.3403931)" stroke-width="12700" stroke-linecap="butt" stroke-miterlimit="8" stroke-linejoin="miter" fill="none" stroke="#000000" d="M 0 0 L 3657600 0 L 3657600 3657600 L 0 3657600 Z "/>
<path transform="matrix(1,0,0,-1,-113.3447,439.2006)" d="M 234.8068 391.3462 C 234.8068 397.3109 239.6422 402.1462 245.6068 402.1462 C 251.5715 402.1462 256.4068 397.3109 256.4068 391.3462 C 256.4068 385.3815 251.5715 380.5462 245.6068 380.5462 C 239.6422 380.5462 234.8068 385.3815 234.8068 391.3462 Z " fill="#e7e6e6" fill-rule="evenodd"/>
<path transform="matrix(.00007874016,0,0,.00007874016,121.46209,37.054384)" stroke-width="12700" stroke-linecap="butt" stroke-miterlimit="8" stroke-linejoin="miter" fill="none" stroke="#000000" d="M 0 137160 C 0 61408.62 61408.62 0 137160 0 C 212911.4 0 274320 61408.62 274320 137160 C 274320 212911.4 212911.4 274320 137160 274320 C 61408.62 274320 0 212911.4 0 137160 Z "/>
<path transform="matrix(1,0,0,-1,-113.3447,439.2006)" d="M 234.8068 346.9176 C 234.8068 352.8822 239.6422 357.7176 245.6068 357.7176 C 251.5715 357.7176 256.4068 352.8822 256.4068 346.9176 C 256.4068 340.9529 251.5715 336.1176 245.6068 336.1176 C 239.6422 336.1176 234.8068 340.9529 234.8068 346.9176 Z " fill="#d0cece" fill-rule="evenodd"/>
<path transform="matrix(.00007874016,0,0,.00007874016,121.46209,81.483)" stroke-width="12700" stroke-linecap="butt" stroke-miterlimit="8" stroke-linejoin="miter" fill="none" stroke="#000000" d="M 0 137160 C 0 61408.62 61408.62 0 137160 0 C 212911.4 0 274320 61408.62 274320 137160 C 274320 212911.4 212911.4 274320 137160 274320 C 61408.62 274320 0 212911.4 0 137160 Z "/>
<path transform="matrix(1,0,0,-1,-113.3447,439.2006)" d="M 271.2724 304.2273 C 271.2724 310.1919 276.1077 315.0273 282.0724 315.0273 C 288.037 315.0273 292.8724 310.1919 292.8724 304.2273 C 292.8724 298.2626 288.037 293.4273 282.0724 293.4273 C 276.1077 293.4273 271.2724 298.2626 271.2724 304.2273 Z " fill="#afabab" fill-rule="evenodd"/>
<path transform="matrix(.00007874016,0,0,.00007874016,157.9277,124.17328)" stroke-width="12700" stroke-linecap="butt" stroke-miterlimit="8" stroke-linejoin="miter" fill="none" stroke="#000000" d="M 0 137160 C 0 61408.62 61408.62 0 137160 0 C 212911.4 0 274320 61408.62 274320 137160 C 274320 212911.4 212911.4 274320 137160 274320 C 61408.62 274320 0 212911.4 0 137160 Z "/>
<path transform="matrix(1,0,0,-1,-113.3447,439.2006)" d="M 271.2724 266.2696 C 271.2724 272.2343 276.1077 277.0696 282.0724 277.0696 C 288.037 277.0696 292.8724 272.2343 292.8724 266.2696 C 292.8724 260.3049 288.037 255.4696 282.0724 255.4696 C 276.1077 255.4696 271.2724 260.3049 271.2724 266.2696 Z " fill="#767171" fill-rule="evenodd"/>
<path transform="matrix(.00007874016,0,0,.00007874016,157.9277,162.13098)" stroke-width="12700" stroke-linecap="butt" stroke-miterlimit="8" stroke-linejoin="miter" fill="none" stroke="#000000" d="M 0 137160 C 0 61408.62 61408.62 0 137160 0 C 212911.4 0 274320 61408.62 274320 137160 C 274320 212911.4 212911.4 274320 137160 274320 C 61408.62 274320 0 212911.4 0 137160 Z "/>
<path transform="matrix(1,0,0,-1,-113.3447,439.2006)" d="M 245.6068 224.0148 C 245.6068 229.9795 250.4422 234.8148 256.4068 234.8148 C 262.3715 234.8148 267.2068 229.9795 267.2068 224.0148 C 267.2068 218.0501 262.3715 213.2148 256.4068 213.2148 C 250.4422 213.2148 245.6068 218.0501 245.6068 224.0148 Z " fill="#c00000" fill-rule="evenodd"/>
<path transform="matrix(.00007874016,0,0,.00007874016,132.26209,204.38579)" stroke-width="12700" stroke-linecap="butt" stroke-miterlimit="8" stroke-linejoin="miter" fill="none" stroke="#000000" d="M 0 137160 C 0 61408.62 61408.62 0 137160 0 C 212911.4 0 274320 61408.62 274320 137160 C 274320 212911.4 212911.4 274320 137160 274320 C 61408.62 274320 0 212911.4 0 137160 Z "/>
<path transform="matrix(1,0,0,-1,-113.3447,439.2006)" d="M 297.7035 224.0148 C 297.7035 229.9795 302.5389 234.8148 308.5035 234.8148 C 314.4682 234.8148 319.3035 229.9795 319.3035 224.0148 C 319.3035 218.0501 314.4682 213.2148 308.5035 213.2148 C 302.5389 213.2148 297.7035 218.0501 297.7035 224.0148 Z " fill="#c00000" fill-rule="evenodd"/>
<path transform="matrix(.00007874016,0,0,.00007874016,184.3588,204.38579)" stroke-width="12700" stroke-linecap="butt" stroke-miterlimit="8" stroke-linejoin="miter" fill="none" stroke="#000000" d="M 0 137160 C 0 61408.62 61408.62 0 137160 0 C 212911.4 0 274320 61408.62 274320 137160 C 274320 212911.4 212911.4 274320 137160 274320 C 61408.62 274320 0 212911.4 0 137160 Z "/>
<path transform="matrix(1,0,0,-1,-113.3447,439.2006)" d="M 245.8569 375.5462 L 245.8569 357.7176 L 245.3569 357.7176 L 245.3569 375.5462 Z M 242.6069 374.5462 L 245.6068 380.5462 L 248.6069 374.5462 Z "/>
<path transform="matrix(1,0,0,-1,-113.3447,439.2006)" d="M 234.4943 335.6519 L 214.5854 310.22 L 215.3728 309.6036 L 235.2817 335.0355 Z M 236.6338 332.707 L 237.9701 339.2808 L 231.9093 336.4055 Z "/>
<path transform="matrix(1,0,0,-1,-113.3447,439.2006)" d="M 256.697 335.6306 L 274.8312 312.1698 L 274.04 311.5582 L 255.9058 335.019 Z M 254.5394 332.6989 L 253.2436 339.2808 L 259.2866 336.3683 Z "/>
<path transform="matrix(1,0,0,-1,-113.3447,439.2006)" d="M 207.8424 286.4751 L 207.8424 275.7873 L 206.8424 275.7873 L 206.8424 286.4751 Z M 204.3424 285.475 L 207.3424 291.4751 L 210.3424 285.4751 Z "/>
<path transform="matrix(1,0,0,-1,-113.3447,439.2006)" d="M 272.1719 254.1467 L 263.577 231.8313 L 264.5102 231.4719 L 273.1051 253.7873 Z M 275.0786 251.9555 L 274.4356 258.6328 L 269.4795 254.112 Z "/>
<path transform="matrix(1,0,0,-1,-113.3447,439.2006)" d="M 292.0819 254.2034 L 301.3288 231.8427 L 300.4047 231.4605 L 291.1578 253.8213 Z M 289.2297 251.9418 L 289.7091 258.6328 L 294.7743 254.2347 Z "/>
<text xml:space="preserve" transform="matrix(.24 0 -0 .24 70.6668 571.4406)" font-size="75" font-family="ArialMT"><tspan y="-2250" x="0 20.835001 74.97001">ICD</tspan></text>
<text xml:space="preserve" transform="matrix(.24 0 -0 .24 101.666698 571.4406)" font-size="75" font-family="ArialMT"><tspan y="-2250" x="0">-</tspan></text>
<text xml:space="preserve" transform="matrix(.24 0 -0 .24 107.666698 571.4406)" font-size="75" font-family="ArialMT"><tspan y="-2250" x="0">9</tspan></text>
<text xml:space="preserve" transform="matrix(.24 0 -0 .24 117.666698 571.4406)" font-size="75" font-family="ArialMT"><tspan y="-2250" x="0">-</tspan></text>
<text xml:space="preserve" transform="matrix(.24 0 -0 .24 123.666698 571.4406)" font-size="75" font-family="ArialMT"><tspan y="-2250" x="0 54.165 116.655 137.52 162.51001 187.50002 229.14003 270.78004 291.64503">CM (root)</tspan></text>
<path transform="matrix(1,0,0,-1,-113.3447,439.2006)" d="M 196.5424 302.275 C 196.5424 308.2397 201.3777 313.075 207.3424 313.075 C 213.307 313.075 218.1424 308.2397 218.1424 302.275 C 218.1424 296.3104 213.307 291.475 207.3424 291.475 C 201.3777 291.475 196.5424 296.3104 196.5424 302.275 Z " fill="#afabab" fill-rule="evenodd"/>
<path transform="matrix(.00007874016,0,0,.00007874016,83.1977,126.12558)" stroke-width="12700" stroke-linecap="butt" stroke-miterlimit="8" stroke-linejoin="miter" fill="none" stroke="#000000" d="M 0 137160 C 0 61408.62 61408.62 0 137160 0 C 212911.4 0 274320 61408.62 274320 137160 C 274320 212911.4 212911.4 274320 137160 274320 C 61408.62 274320 0 212911.4 0 137160 Z "/>
<path transform="matrix(1,0,0,-1,-113.3447,439.2006)" d="M 196.5424 264.9873 C 196.5424 270.9519 201.3777 275.7873 207.3424 275.7873 C 213.307 275.7873 218.1424 270.9519 218.1424 264.9873 C 218.1424 259.0226 213.307 254.1873 207.3424 254.1873 C 201.3777 254.1873 196.5424 259.0226 196.5424 264.9873 Z " fill="#767171" fill-rule="evenodd"/>
<path transform="matrix(.00007874016,0,0,.00007874016,83.1977,163.4133)" stroke-width="12700" stroke-linecap="butt" stroke-miterlimit="8" stroke-linejoin="miter" fill="none" stroke="#000000" d="M 0 137160 C 0 61408.62 61408.62 0 137160 0 C 212911.4 0 274320 61408.62 274320 137160 C 274320 212911.4 212911.4 274320 137160 274320 C 61408.62 274320 0 212911.4 0 137160 Z "/>
<path transform="matrix(1,0,0,-1,-113.3447,439.2006)" d="M 282.5724 288.4273 L 282.5724 277.0696 L 281.5724 277.0696 L 281.5724 288.4272 Z M 279.0724 287.4272 L 282.0724 293.4273 L 285.0724 287.4273 Z "/>
<path transform="matrix(1,0,0,-1,-113.3447,439.2006)" d="M 196.5424 224.5677 C 196.5424 230.5324 201.3777 235.3677 207.3424 235.3677 C 213.307 235.3677 218.1424 230.5324 218.1424 224.5677 C 218.1424 218.6031 213.307 213.7677 207.3424 213.7677 C 201.3777 213.7677 196.5424 218.6031 196.5424 224.5677 Z " fill="#c00000" fill-rule="evenodd"/>
<path transform="matrix(.00007874016,0,0,.00007874016,83.1977,203.83289)" stroke-width="12700" stroke-linecap="butt" stroke-miterlimit="8" stroke-linejoin="miter" fill="none" stroke="#000000" d="M 0 137160 C 0 61408.62 61408.62 0 137160 0 C 212911.4 0 274320 61408.62 274320 137160 C 274320 212911.4 212911.4 274320 137160 274320 C 61408.62 274320 0 212911.4 0 137160 Z "/>
<path transform="matrix(1,0,0,-1,-113.3447,439.2006)" d="M 207.8424 249.1873 L 207.8424 235.3677 L 206.8424 235.3677 L 206.8424 249.1873 Z M 204.3424 248.1872 L 207.3424 254.1873 L 210.3424 248.1873 Z "/>
<text xml:space="preserve" transform="matrix(.24 0 -0 .24 134.92429 622.32058)" font-size="75" font-family="ArialMT"><tspan y="-2250" x="0 54.165006 70.83 95.8275 133.3275 174.9975 191.66249 233.33249 254.1675 295.8375 320.835 358.335 379.16999 416.66999 454.16999 491.66999 512.50497 554.1749">Circulatory system</tspan></text>
<text xml:space="preserve" transform="matrix(.24 0 -0 .24 182.3115 681.3606)" font-size="75" font-family="ArialMT"><tspan y="-2250" x="0 54.165006 98.64751 119.48251 161.15253 177.81752 215.31752 256.98753 298.65754 336.15754 377.82756">HT disease </tspan></text>
<text xml:space="preserve" transform="matrix(.24 0 -0 .24 5.2026979 660.4806)" font-size="75" font-family="ArialMT"><tspan y="-2250" x="0 58.335008 79.170009 120.85501 162.54001 187.57501 208.41002 250.09503 291.78004 333.46504 358.50004 379.33503">Other heart </tspan></text>
<text xml:space="preserve" transform="matrix(.24 0 -0 .24 19.70269 681.3606)" font-size="75" font-family="ArialMT"><tspan y="-2250" x="0 41.670007 58.335008 95.83501 137.505 179.17502 216.67502 258.34504">disease </tspan></text>
<text xml:space="preserve" transform="matrix(.24 0 -0 .24 183.80112 720.7206)" font-size="75" font-family="ArialMT"><tspan y="-2250" x="0 50.002508 87.5025 125.0025 166.67252 208.34253 229.17754 245.84255 287.51255 304.17756 325.01255 379.17756 423.66007">Essential HT </tspan></text>
<text xml:space="preserve" transform="matrix(.24 0 -0 .24 17.031792 782.40066)" font-size="75" font-family="ArialMT"><tspan y="-2250" x="0 41.670003 83.340007 104.16 124.98 145.8 187.47 229.14 270.81 295.83003 316.65003">Left heart </tspan></text>
<text xml:space="preserve" transform="matrix(.24 0 -0 .24 30.531792 803.5206)" font-size="75" font-family="ArialMT"><tspan y="-2250" x="0 20.835001 62.520006 79.15501 95.79001 137.475 162.51001">failure</tspan></text>
<text xml:space="preserve" transform="matrix(.24 0 -0 .24 187.0618 783.3606)" font-size="75" font-family="ArialMT"><tspan y="-2250" x="0 50.002508 91.68001 133.35752 150.06002 191.73752 233.41503">Benign </tspan></text>
<text xml:space="preserve" transform="matrix(.24 0 -0 .24 187.0618 804.4806)" font-size="75" font-family="ArialMT"><tspan y="-2250" x="0 50.002508 87.5025 125.0025 166.67252 208.34253 229.17754 245.84255 287.51255 304.17756 325.01255 379.17756">Essential HT</tspan></text>
<text xml:space="preserve" transform="matrix(.24 0 -0 .24 26.943703 720.4806)" font-size="75" font-family="ArialMT"><tspan y="-2250" x="0 54.165 95.80501 137.44503 162.43503 183.30004">Heart </tspan></text>
<text xml:space="preserve" transform="matrix(.24 0 -0 .24 24.443703 741.3606)" font-size="75" font-family="ArialMT"><tspan y="-2250" x="0 20.835001 62.520006 79.15501 95.79001 137.475 162.51001 204.195">failure </tspan></text>
<text xml:space="preserve" transform="matrix(.24 0 -0 .24 100.768398 785.5206)" font-size="75" font-family="ArialMT"><tspan y="-2250" x="0 62.497507 104.14501 120.81751 137.49002 179.13753 220.78504 262.43254 304.08003 324.8775">Malignant </tspan></text>
</g>
</g>
</svg>
