<?xml version="1.0" encoding="UTF-8" standalone="no"?>
<svg
   xmlns:dc="http://purl.org/dc/elements/1.1/"
   xmlns:cc="http://creativecommons.org/ns#"
   xmlns:rdf="http://www.w3.org/1999/02/22-rdf-syntax-ns#"
   xmlns:svg="http://www.w3.org/2000/svg"
   xmlns="http://www.w3.org/2000/svg"
   viewBox="0 0 602.52625 604.05072"
   height="604.05072"
   width="602.52625"
   xml:space="preserve"
   id="svg2"
   version="1.1"><metadata
     id="metadata8"><rdf:RDF><cc:Work
         rdf:about=""><dc:format>image/svg+xml</dc:format><dc:type
           rdf:resource="http://purl.org/dc/dcmitype/StillImage" /></cc:Work></rdf:RDF></metadata><defs
     id="defs6"><clipPath
       id="clipPath14"
       clipPathUnits="userSpaceOnUse"><path
         id="path12"
         d="M 0,0 H 1024 V 768 H 0 Z" /></clipPath><clipPath
       id="clipPath24"
       clipPathUnits="userSpaceOnUse"><path
         id="path22"
         d="M 0,0 H 1024 V 768 H 0 Z" /></clipPath><clipPath
       id="clipPath220"
       clipPathUnits="userSpaceOnUse"><path
         id="path218"
         d="m 488.0252,169.1973 h 25.69259 v 11 H 488.0252 Z" /></clipPath><clipPath
       id="clipPath234"
       clipPathUnits="userSpaceOnUse"><path
         id="path232"
         d="M 0,0 H 1024 V 768 H 0 Z" /></clipPath><clipPath
       id="clipPath262"
       clipPathUnits="userSpaceOnUse"><path
         id="path260"
         d="m 562.8108,119.2482 h 82.49278 v 32.41986 H 562.8108 Z" /></clipPath><clipPath
       id="clipPath280"
       clipPathUnits="userSpaceOnUse"><path
         id="path278"
         d="m 586.5052,168.5399 h 37.22311 v 17.92479 H 586.5052 Z" /></clipPath><clipPath
       id="clipPath290"
       clipPathUnits="userSpaceOnUse"><path
         id="path288"
         d="m 585.8573,210.5516 h 76.71006 v 17.92479 H 585.8573 Z" /></clipPath><clipPath
       id="clipPath300"
       clipPathUnits="userSpaceOnUse"><path
         id="path298"
         d="m 586.5052,147.8191 h 16.74372 v 17.92479 H 586.5052 Z" /></clipPath><clipPath
       id="clipPath310"
       clipPathUnits="userSpaceOnUse"><path
         id="path308"
         d="m 586.5052,189.2867 h 61.48493 v 17.92479 H 586.5052 Z" /></clipPath><clipPath
       id="clipPath320"
       clipPathUnits="userSpaceOnUse"><path
         id="path318"
         d="m 553.3643,201.324 h 28.46855 v 32.37991 H 553.3643 Z" /></clipPath><clipPath
       id="clipPath334"
       clipPathUnits="userSpaceOnUse"><path
         id="path332"
         d="m 550.1858,185.2803 h 34.08744 v 25.04473 H 550.1858 Z" /></clipPath><clipPath
       id="clipPath348"
       clipPathUnits="userSpaceOnUse"><path
         id="path346"
         d="m 552.9952,165.2924 h 28.46855 v 23.7159 H 552.9952 Z" /></clipPath><clipPath
       id="clipPath362"
       clipPathUnits="userSpaceOnUse"><path
         id="path360"
         d="m 550.1858,140.2637 h 34.08744 v 30.17107 H 550.1858 Z" /></clipPath><clipPath
       id="clipPath376"
       clipPathUnits="userSpaceOnUse"><path
         id="path374"
         d="m 579.2415,147.801 h 4 v 80.9411 h -4 z" /></clipPath><clipPath
       id="clipPath388"
       clipPathUnits="userSpaceOnUse"><path
         id="path386"
         d="m 659.5258,196.63 h 64.47757 v 45.31995 H 659.5258 Z" /></clipPath><clipPath
       id="clipPath416"
       clipPathUnits="userSpaceOnUse"><path
         id="path414"
         d="m 597.271,142.2636 h 64.47757 v 27.31995 H 597.271 Z" /></clipPath><clipPath
       id="clipPath434"
       clipPathUnits="userSpaceOnUse"><path
         id="path432"
         d="M 0,0 H 1024 V 768 H 0 Z" /></clipPath></defs><g
     clip-path="url(#clipPath14)"
     transform="matrix(1.3333333,0,0,-1.3333333,-408.78147,719.64107)"
     id="g10"><g
       id="g16" /><g
       id="g18"><g
         clip-path="url(#clipPath24)"
         id="g20"><path
           id="path26"
           style="fill:#ffffff;fill-opacity:1;fill-rule:nonzero;stroke:none"
           d="M 0,0 H 1024 V 768 H 0 Z" /><g
           transform="translate(629.6448,286.158)"
           id="g28"><text
             id="text32"
             style="font-variant:normal;font-weight:normal;font-size:16px;font-family:HelveticaNeue;-inkscape-font-specification:HelveticaNeue;writing-mode:lr-tb;fill:#000000;fill-opacity:1;fill-rule:nonzero;stroke:none"
             transform="scale(1,-1)"><tspan
               id="tspan30"
               y="0"
               x="0 8.8959999 17.792 23.120001 32.015999 40.911999 46.240002 55.136002">02/26/15</tspan></text>
</g><g
           transform="matrix(1,0,0,-1,616.9391,304.2921)"
           id="g34"><path
             id="path36"
             style="fill:none;stroke:#000000;stroke-width:2;stroke-linecap:butt;stroke-linejoin:miter;stroke-miterlimit:4;stroke-dasharray:none;stroke-opacity:1"
             d="m 8.6,0 h 1 c 20.94197,1.047027e-6 41.88394,0 62.8259,0" /></g><path
           id="path38"
           style="fill:#000000;fill-opacity:1;fill-rule:nonzero;stroke:none"
           d="m 626.5391,309.0921 -9.6,-4.8 9.6,-4.8 z" /><g
           transform="translate(506.4167,297.901)"
           id="g40"><text
             id="text44"
             style="font-variant:normal;font-weight:bold;font-size:18px;font-family:Arial;-inkscape-font-specification:Arial-BoldMT;writing-mode:lr-tb;fill:#000000;fill-opacity:1;fill-rule:nonzero;stroke:none"
             transform="scale(1,-1)"><tspan
               id="tspan42"
               y="0"
               x="0 14.0004 24.994801 34.999199 45.003601 52.001999 62.996399 78.994797 88.999199 99.993599">Government</tspan></text>
</g><g
           transform="translate(337.7182,423.7454)"
           id="g46"><text
             id="text50"
             style="font-variant:normal;font-weight:bold;font-size:18px;font-family:Arial;-inkscape-font-specification:Arial-BoldMT;writing-mode:lr-tb;fill:#000000;fill-opacity:1;fill-rule:nonzero;stroke:none"
             transform="scale(1,-1)"><tspan
               id="tspan48"
               y="0"
               x="0 10.9944 20.9988 27.9972 43.995602">Farm </tspan></text>
</g><g
           transform="translate(337.7182,423.7454)"
           id="g52" /><g
           transform="translate(328.8808,402.7454)"
           id="g54"><text
             id="text58"
             style="font-variant:normal;font-weight:bold;font-size:18px;font-family:Arial;-inkscape-font-specification:Arial-BoldMT;writing-mode:lr-tb;fill:#000000;fill-opacity:1;fill-rule:nonzero;stroke:none"
             transform="scale(1,-1)"><tspan
               id="tspan56"
               y="0"
               x="0 16.6644 27.6588 34.6572 44.661598 54.666">Worker</tspan></text>
</g><g
           transform="translate(311.7201,307.0166)"
           id="g60"><text
             id="text64"
             style="font-variant:normal;font-weight:bold;font-size:18px;font-family:Arial;-inkscape-font-specification:Arial-BoldMT;writing-mode:lr-tb;fill:#000000;fill-opacity:1;fill-rule:nonzero;stroke:none"
             transform="scale(1,-1)"><tspan
               id="tspan62"
               y="0"
               x="0 12.9996 23.993999 30.999599 36 46.0116 57.006001 62.006401 68.000397 78.994797 86.000397 96.012001">Agriculture </tspan></text>
</g><g
           transform="translate(311.7201,307.0166)"
           id="g66" /><g
           transform="translate(325.2201,286.0166)"
           id="g68"><text
             id="text72"
             style="font-variant:normal;font-weight:bold;font-size:18px;font-family:Arial;-inkscape-font-specification:Arial-BoldMT;writing-mode:lr-tb;fill:#000000;fill-opacity:1;fill-rule:nonzero;stroke:none"
             transform="scale(1,-1)"><tspan
               id="tspan70"
               y="0"
               x="0 14.994 19.9944 30.9888 35.989201 46.000801 51.994801 59.000401">Ministry</tspan></text>
</g><g
           transform="translate(693.8651,297.901)"
           id="g74"><text
             id="text78"
             style="font-variant:normal;font-weight:bold;font-size:18px;font-family:Arial;-inkscape-font-specification:Arial-BoldMT;writing-mode:lr-tb;fill:#000000;fill-opacity:1;fill-rule:nonzero;stroke:none"
             transform="scale(1,-1)"><tspan
               id="tspan76"
               y="0"
               x="0 12.9996 18 23.993999 28.9944 37.9944 48.006001">Citizen</tspan></text>
</g><g
           transform="translate(362.8389,345.4364)"
           id="g80"><text
             id="text84"
             style="font-variant:normal;font-weight:normal;font-size:16px;font-family:ArialMT;-inkscape-font-specification:ArialMT;writing-mode:lr-tb;fill:#000000;fill-opacity:1;fill-rule:nonzero;stroke:none"
             transform="scale(1,-1)"><tspan
               id="tspan82"
               y="0"
               x="0 11.5552 20.454399 29.3536 38.2528 42.703999 46.259201 55.158401 59.6096 63.164799 72.064003">Negotiation</tspan></text>
</g><g
           transform="translate(630.9231,311.0717)"
           id="g86"><text
             id="text90"
             style="font-variant:normal;font-weight:normal;font-size:16px;font-family:HelveticaNeue;-inkscape-font-specification:HelveticaNeue;writing-mode:lr-tb;fill:#000000;fill-opacity:1;fill-rule:nonzero;stroke:none"
             transform="scale(1,-1)"><tspan
               id="tspan88"
               y="0"
               x="0 11.552 16.879999 20.431999 25.472 29.024 37.616001 41.167999 48.848">Criticize</tspan></text>
</g><g
           transform="translate(415.5335,307.9795)"
           id="g92"><text
             id="text96"
             style="font-variant:normal;font-weight:normal;font-size:16px;font-family:HelveticaNeue;-inkscape-font-specification:HelveticaNeue;writing-mode:lr-tb;fill:#000000;fill-opacity:1;fill-rule:nonzero;stroke:none"
             transform="scale(1,-1)"><tspan
               id="tspan94"
               y="0"
               x="0 10.368 18.959999 27.552 36.448002 44.448002">Accuse</tspan></text>
</g><g
           transform="matrix(1,0,0,-1,359.726,394.931)"
           id="g98"><path
             id="path100"
             style="fill:none;stroke:#000000;stroke-width:2;stroke-linecap:butt;stroke-linejoin:miter;stroke-miterlimit:4;stroke-dasharray:none;stroke-opacity:1"
             d="m 0,8.6 v 1 48.11766 1" /></g><path
           id="path102"
           style="fill:#000000;fill-opacity:1;fill-rule:nonzero;stroke:none"
           d="m 354.926,337.2133 4.8,-9.6 4.8,9.6 z" /><path
           id="path104"
           style="fill:#000000;fill-opacity:1;fill-rule:nonzero;stroke:none"
           d="m 364.526,385.331 -4.8,9.6 -4.8,-9.6 z" /><g
           transform="matrix(1,0,0,-1,414.7323,303.8934)"
           id="g106"><path
             id="path108"
             style="fill:none;stroke:#000000;stroke-width:2;stroke-linecap:butt;stroke-linejoin:miter;stroke-miterlimit:4;stroke-dasharray:none;stroke-opacity:1"
             d="m 0,0.6043704 77.58458,-0.53782385 0.99998,-0.006932" /></g><path
           id="path110"
           style="fill:#000000;fill-opacity:1;fill-rule:nonzero;stroke:none"
           d="m 492.3502,299.027 9.5665,4.8664 -9.6331,4.7334 z" /><g
           transform="translate(363.4144,362.97)"
           id="g112"><text
             id="text116"
             style="font-variant:normal;font-weight:normal;font-size:16px;font-family:ArialMT;-inkscape-font-specification:ArialMT;writing-mode:lr-tb;fill:#000000;fill-opacity:1;fill-rule:nonzero;stroke:none"
             transform="scale(1,-1)"><tspan
               id="tspan114"
               y="0"
               x="0 8.8992004 17.798401 22.249599 31.1488 40.048 44.499199 53.398399">02/24/15</tspan></text>
</g><g
           transform="translate(412.0375,288.8686)"
           id="g118"><text
             id="text122"
             style="font-variant:normal;font-weight:normal;font-size:16px;font-family:HelveticaNeue;-inkscape-font-specification:HelveticaNeue;writing-mode:lr-tb;fill:#000000;fill-opacity:1;fill-rule:nonzero;stroke:none"
             transform="scale(1,-1)"><tspan
               id="tspan120"
               y="0"
               x="0 8.8959999 17.792 23.120001 32.015999 40.911999 46.240002 55.136002">02/27/15</tspan></text>
</g><g
           transform="matrix(1,0,0,-1,395.0712,399.2218)"
           id="g124"><path
             id="path126"
             style="fill:none;stroke:#000000;stroke-width:2;stroke-linecap:butt;stroke-linejoin:miter;stroke-miterlimit:4;stroke-dasharray:none;stroke-opacity:1"
             d="M 132.3148,76.42286 131.4488,75.92272 0,0" /></g><path
           id="path128"
           style="fill:#000000;fill-opacity:1;fill-rule:nonzero;stroke:none"
           d="m 524.1193,319.1425 10.7138,-0.6448 -5.9124,8.9579 z" /><g
           transform="rotate(-28.999999,1010.4755,-588.65743)"
           id="g130"><text
             id="text134"
             style="font-variant:normal;font-weight:normal;font-size:16px;font-family:ArialMT;-inkscape-font-specification:ArialMT;writing-mode:lr-tb;fill:#000000;fill-opacity:1;fill-rule:nonzero;stroke:none"
             transform="scale(1,-1)"><tspan
               id="tspan132"
               y="0"
               x="0 10.672 18.672001 27.571199 32.8992 41.798401 49.798401 57.798401 62.243198 65.798401 74.697601 79.142403 88.041603 96.940804 101.3856 105.8304 110.2752 119.1744">Express intent to </tspan></text>
</g><g
           transform="rotate(-28.999999,1010.4755,-588.65743)"
           id="g136" /><g
           transform="rotate(-28.999999,974.7865,-583.0936)"
           id="g138"><text
             id="text142"
             style="font-variant:normal;font-weight:normal;font-size:16px;font-family:ArialMT;-inkscape-font-specification:ArialMT;writing-mode:lr-tb;fill:#000000;fill-opacity:1;fill-rule:nonzero;stroke:none"
             transform="scale(1,-1)"><tspan
               id="tspan140"
               y="0"
               x="0 5.3280001 14.2272 17.7824 26.681601 35.580799 43.580799 52.48 56.924801 65.823997 71.152 80.051201 88.950401 97.849602 103.1776 107.6224">release property</tspan></text>
</g><g
           transform="rotate(-27.000001,1086.9089,-720.12937)"
           id="g144"><text
             id="text148"
             style="font-variant:normal;font-weight:normal;font-size:16px;font-family:ArialMT;-inkscape-font-specification:ArialMT;writing-mode:lr-tb;fill:#000000;fill-opacity:1;fill-rule:nonzero;stroke:none"
             transform="scale(1,-1)"><tspan
               id="tspan146"
               y="0"
               x="0 8.8992004 17.798401 22.249599 31.1488 40.048 44.499199 53.398399">02/23/15</tspan></text>
</g><g
           transform="matrix(1,0,0,-1,391.2854,145.6143)"
           id="g150"><path
             id="path152"
             style="fill:none;stroke:#000000;stroke-width:2;stroke-linecap:butt;stroke-linejoin:miter;stroke-miterlimit:4;stroke-dasharray:none;stroke-opacity:1"
             d="M 0,0 H 123.41" /></g><g
           transform="matrix(0,1,1,0,391.7875,144.9112)"
           id="g154"><path
             id="path156"
             style="fill:none;stroke:#000000;stroke-width:2;stroke-linecap:butt;stroke-linejoin:miter;stroke-miterlimit:4;stroke-dasharray:none;stroke-opacity:1"
             d="M 0,0 H 75.06157" /></g><path
           id="path158"
           style="fill:#a9a8aa;fill-opacity:1;fill-rule:nonzero;stroke:none"
           d="m 404.083,151.023 h 19.86987 v 28.50688 H 404.083 Z" /><path
           id="path160"
           style="fill:#b42a44;fill-opacity:1;fill-rule:nonzero;stroke:none"
           d="m 462.4899,150.7889 h 19.86987 v 60.30618 H 462.4899 Z" /><g
           transform="matrix(1,0,0,-1,386.9189,209.7498)"
           id="g162"><path
             id="path164"
             style="fill:none;stroke:#000000;stroke-width:2;stroke-linecap:butt;stroke-linejoin:miter;stroke-miterlimit:4;stroke-dasharray:none;stroke-opacity:1"
             d="M 0,0 H 9.810303" /></g><g
           transform="matrix(1,0,0,-1,387.2254,178.1114)"
           id="g166"><path
             id="path168"
             style="fill:none;stroke:#000000;stroke-width:2;stroke-linecap:butt;stroke-linejoin:miter;stroke-miterlimit:4;stroke-dasharray:none;stroke-opacity:1"
             d="M 0,0 H 9.503825" /></g><g
           transform="translate(428.5333,127.6205)"
           id="g170"><text
             id="text174"
             style="font-variant:normal;font-weight:normal;font-size:16px;font-family:ArialMT;-inkscape-font-specification:ArialMT;writing-mode:lr-tb;fill:#000000;fill-opacity:1;fill-rule:nonzero;stroke:none"
             transform="scale(1,-1)"><tspan
               id="tspan172"
               y="0"
               x="0 10.672 18.672001 27.571199 36.470402 40.915199">Events</tspan></text>
</g><g
           transform="matrix(1,0,0,-1,417.733,152.7065)"
           id="g176"><path
             id="path178"
             style="fill:none;stroke:#000000;stroke-width:1.171875;stroke-linecap:butt;stroke-linejoin:miter;stroke-miterlimit:10;stroke-dasharray:none;stroke-opacity:1"
             d="M 10.80029,26.78125 H 59.71436" /></g><g
           transform="translate(367.7225,172.9049)"
           id="g180"><text
             id="text184"
             style="font-variant:normal;font-weight:bold;font-size:12px;font-family:Arial;-inkscape-font-specification:Arial-BoldMT;writing-mode:lr-tb;fill:#929292;fill-opacity:1;fill-rule:nonzero;stroke:none"
             transform="scale(1,-1)"><tspan
               id="tspan182"
               y="0"
               x="0 6.6743999 10.0128">0.2</tspan></text>
</g><g
           transform="translate(368.5047,205.7709)"
           id="g186"><text
             id="text190"
             style="font-variant:normal;font-weight:bold;font-size:12px;font-family:Arial;-inkscape-font-specification:Arial-BoldMT;writing-mode:lr-tb;fill:#929292;fill-opacity:1;fill-rule:nonzero;stroke:none"
             transform="scale(1,-1)"><tspan
               id="tspan188"
               y="0"
               x="0 6.6743999 10.0128">0.4</tspan></text>
</g><path
           id="path192"
           style="fill:#d6d5d5;fill-opacity:1;fill-rule:nonzero;stroke:none"
           d="m 491.649,151.5078 h 19.86987 v 13.92479 H 491.649 Z" /><path
           id="path194"
           style="fill:#929292;fill-opacity:1;fill-rule:nonzero;stroke:none"
           d="m 433.064,150.8983 h 19.86987 v 41.44585 H 433.064 Z" /><g
           transform="translate(404.8044,183.4954)"
           id="g196"><text
             id="text200"
             style="font-variant:normal;font-weight:bold;font-size:12px;font-family:Arial;-inkscape-font-specification:Arial-BoldMT;writing-mode:lr-tb;fill:#000000;fill-opacity:1;fill-rule:nonzero;stroke:none"
             transform="scale(1,-1)"><tspan
               id="tspan198"
               y="0"
               x="0 6.6743999 10.0128">0.2</tspan></text>
</g><g
           transform="translate(433.6582,196.8859)"
           id="g202"><text
             id="text206"
             style="font-variant:normal;font-weight:bold;font-size:12px;font-family:Arial;-inkscape-font-specification:Arial-BoldMT;writing-mode:lr-tb;fill:#000000;fill-opacity:1;fill-rule:nonzero;stroke:none"
             transform="scale(1,-1)"><tspan
               id="tspan204"
               y="0"
               x="0 6.6743999 10.0128">0.3</tspan></text>
</g><g
           transform="translate(463.262,214.7497)"
           id="g208"><text
             id="text212"
             style="font-variant:normal;font-weight:bold;font-size:12px;font-family:Arial;-inkscape-font-specification:Arial-BoldMT;writing-mode:lr-tb;fill:#000000;fill-opacity:1;fill-rule:nonzero;stroke:none"
             transform="scale(1,-1)"><tspan
               id="tspan210"
               y="0"
               x="0 6.6743999 10.0128">0.4</tspan></text>
</g></g></g><g
       id="g214"><g
         clip-path="url(#clipPath220)"
         id="g216"><g
           transform="translate(492.5306,169.1328)"
           id="g222"><text
             id="text226"
             style="font-variant:normal;font-weight:bold;font-size:12px;font-family:Arial;-inkscape-font-specification:Arial-BoldMT;writing-mode:lr-tb;fill:#000000;fill-opacity:1;fill-rule:nonzero;stroke:none"
             transform="scale(1,-1)"><tspan
               id="tspan224"
               y="0"
               x="0 6.6743999 10.0128">0.1</tspan></text>
</g></g></g><g
       id="g228"><g
         clip-path="url(#clipPath234)"
         id="g230"><g
           transform="translate(446.7929,229.5906)"
           id="g236"><text
             id="text240"
             style="font-variant:normal;font-weight:normal;font-size:16px;font-family:HelveticaNeue;-inkscape-font-specification:HelveticaNeue;writing-mode:lr-tb;fill:#000000;fill-opacity:1;fill-rule:nonzero;stroke:none"
             transform="scale(1,-1)"><tspan
               id="tspan238"
               y="0"
               x="0 10.368 15.408 24.591999 29.632 38.223999 46.223999">Protest</tspan></text>
</g><g
           transform="matrix(1,0,0,-1,431.3655,247.7347)"
           id="g242"><path
             id="path244"
             style="fill:none;stroke:#000000;stroke-width:0.80000001;stroke-linecap:butt;stroke-linejoin:miter;stroke-miterlimit:10;stroke-dasharray:none;stroke-opacity:1"
             d="m 15.42735,19.74404 h 51.264" /></g><g
           transform="translate(487.1769,183.5754)"
           id="g246"><text
             id="text250"
             style="font-variant:normal;font-weight:normal;font-size:16px;font-family:HelveticaNeue;-inkscape-font-specification:HelveticaNeue;writing-mode:lr-tb;fill:#000000;fill-opacity:1;fill-rule:nonzero;stroke:none"
             transform="scale(1,-1)"><tspan
               id="tspan248"
               y="0"
               x="0 9.4879999 13.04 21.040001 24.591999">Visit</tspan></text>
</g><g
           transform="matrix(1,0,0,-1,478.5072,201.7194)"
           id="g252"><path
             id="path254"
             style="fill:none;stroke:#000000;stroke-width:0.80000001;stroke-linecap:butt;stroke-linejoin:miter;stroke-miterlimit:10;stroke-dasharray:none;stroke-opacity:1"
             d="M 8.669703,19.74404 H 38.3017" /></g></g></g><g
       id="g256"><g
         clip-path="url(#clipPath262)"
         id="g258"><g
           transform="translate(581.3854,130.5821)"
           id="g264"><text
             id="text268"
             style="font-variant:normal;font-weight:normal;font-size:16px;font-family:ArialMT;-inkscape-font-specification:ArialMT;writing-mode:lr-tb;fill:#000000;fill-opacity:1;fill-rule:nonzero;stroke:none"
             transform="scale(1,-1)"><tspan
               id="tspan266"
               y="0"
               x="0 10.672 18.672001 23.1168 32.015999 37.344002">Actors</tspan></text>
</g><g
           transform="matrix(1,0,0,-1,563.2796,151.6681)"
           id="g270"><path
             id="path272"
             style="fill:none;stroke:#000000;stroke-width:1.171875;stroke-linecap:butt;stroke-linejoin:miter;stroke-miterlimit:10;stroke-dasharray:none;stroke-opacity:1"
             d="M 18.10576,22.78125 H 63.44951" /></g></g></g><g
       id="g274"><g
         clip-path="url(#clipPath280)"
         id="g276"><path
           id="path282"
           style="fill:#abaaac;fill-opacity:1;fill-rule:nonzero;stroke:none"
           d="m 587.5052,169.5399 h 35.22311 v 15.92479 H 587.5052 Z" /></g></g><g
       id="g284"><g
         clip-path="url(#clipPath290)"
         id="g286"><path
           id="path292"
           style="fill:#b42a44;fill-opacity:1;fill-rule:nonzero;stroke:none"
           d="m 586.8573,211.5516 h 74.71006 v 15.92479 H 586.8573 Z" /></g></g><g
       id="g294"><g
         clip-path="url(#clipPath300)"
         id="g296"><path
           id="path302"
           style="fill:#d6d5d5;fill-opacity:1;fill-rule:nonzero;stroke:none"
           d="m 587.5052,148.8191 h 14.74372 v 15.92479 H 587.5052 Z" /></g></g><g
       id="g304"><g
         clip-path="url(#clipPath310)"
         id="g306"><path
           id="path312"
           style="fill:#929292;fill-opacity:1;fill-rule:nonzero;stroke:none"
           d="m 587.5052,190.2867 h 59.48493 v 15.92479 H 587.5052 Z" /></g></g><g
       id="g314"><g
         clip-path="url(#clipPath320)"
         id="g316"><g
           transform="translate(559.2577,213.6395)"
           id="g322"><text
             id="text326"
             style="font-variant:normal;font-weight:bold;font-size:12px;font-family:Arial;-inkscape-font-specification:Arial-BoldMT;writing-mode:lr-tb;fill:#000000;fill-opacity:1;fill-rule:nonzero;stroke:none"
             transform="scale(1,-1)"><tspan
               id="tspan324"
               y="0"
               x="0 6.6743999 10.0128">0.4</tspan></text>
</g></g></g><g
       id="g328"><g
         clip-path="url(#clipPath334)"
         id="g330"><g
           transform="translate(558.8887,193.2605)"
           id="g336"><text
             id="text340"
             style="font-variant:normal;font-weight:bold;font-size:12px;font-family:Arial;-inkscape-font-specification:Arial-BoldMT;writing-mode:lr-tb;fill:#000000;fill-opacity:1;fill-rule:nonzero;stroke:none"
             transform="scale(1,-1)"><tspan
               id="tspan338"
               y="0"
               x="0 6.6743999 10.0128">0.3</tspan></text>
</g></g></g><g
       id="g342"><g
         clip-path="url(#clipPath348)"
         id="g344"><g
           transform="translate(558.8887,172.9438)"
           id="g350"><text
             id="text354"
             style="font-variant:normal;font-weight:bold;font-size:12px;font-family:Arial;-inkscape-font-specification:Arial-BoldMT;writing-mode:lr-tb;fill:#000000;fill-opacity:1;fill-rule:nonzero;stroke:none"
             transform="scale(1,-1)"><tspan
               id="tspan352"
               y="0"
               x="0 6.6743999 10.0128">0.2</tspan></text>
</g></g></g><g
       id="g356"><g
         clip-path="url(#clipPath362)"
         id="g358"><g
           transform="translate(558.8887,151.3703)"
           id="g364"><text
             id="text368"
             style="font-variant:normal;font-weight:bold;font-size:12px;font-family:Arial;-inkscape-font-specification:Arial-BoldMT;writing-mode:lr-tb;fill:#000000;fill-opacity:1;fill-rule:nonzero;stroke:none"
             transform="scale(1,-1)"><tspan
               id="tspan366"
               y="0"
               x="0 6.6743999 10.0128">0.1</tspan></text>
</g></g></g><g
       id="g370"><g
         clip-path="url(#clipPath376)"
         id="g372"><g
           transform="matrix(0,1,1,0,581.2415,148.801)"
           id="g378"><path
             id="path380"
             style="fill:none;stroke:#000000;stroke-width:2;stroke-linecap:butt;stroke-linejoin:miter;stroke-miterlimit:4;stroke-dasharray:none;stroke-opacity:1"
             d="M 0,0 H 78.94112" /></g></g></g><g
       id="g382"><g
         clip-path="url(#clipPath388)"
         id="g384"><g
           transform="translate(673.3886,223.146)"
           id="g390"><text
             id="text394"
             style="font-variant:normal;font-weight:normal;font-size:16px;font-family:HelveticaNeue;-inkscape-font-specification:HelveticaNeue;writing-mode:lr-tb;fill:#000000;fill-opacity:1;fill-rule:nonzero;stroke:none"
             transform="scale(1,-1)"><tspan
               id="tspan392"
               y="0"
               x="0 9.184 17.775999 23.104 36.751999">Farm </tspan></text>
</g><g
           transform="translate(667.3326,205.146)"
           id="g396"><text
             id="text400"
             style="font-variant:normal;font-weight:normal;font-size:16px;font-family:HelveticaNeue;-inkscape-font-specification:HelveticaNeue;writing-mode:lr-tb;fill:#000000;fill-opacity:1;fill-rule:nonzero;stroke:none"
             transform="scale(1,-1)"><tspan
               id="tspan398"
               y="0"
               x="0 12.128 21.312 26.639999 34.944 43.535999">worker</tspan></text>
</g><g
           transform="matrix(1,0,0,-1,660.1857,241.29)"
           id="g402"><path
             id="path404"
             style="fill:none;stroke:#000000;stroke-width:0.80000001;stroke-linecap:butt;stroke-linejoin:miter;stroke-miterlimit:10;stroke-dasharray:none;stroke-opacity:1"
             d="m 13.20281,19.74404 h 36.752" /></g><g
           transform="matrix(1,0,0,-1,660.1857,241.29)"
           id="g406"><path
             id="path408"
             style="fill:none;stroke:#000000;stroke-width:0.80000001;stroke-linecap:butt;stroke-linejoin:miter;stroke-miterlimit:10;stroke-dasharray:none;stroke-opacity:1"
             d="M 7.146811,37.74404 H 56.01081" /></g></g></g><g
       id="g410"><g
         clip-path="url(#clipPath416)"
         id="g412"><g
           transform="translate(603.7418,150.7796)"
           id="g418"><text
             id="text422"
             style="font-variant:normal;font-weight:normal;font-size:16px;font-family:HelveticaNeue;-inkscape-font-specification:HelveticaNeue;writing-mode:lr-tb;fill:#000000;fill-opacity:1;fill-rule:nonzero;stroke:none"
             transform="scale(1,-1)"><tspan
               id="tspan420"
               y="0"
               x="0 8.8959999 17.488001 29.615999 37.616001 46.208">Lawyer</tspan></text>
</g><g
           transform="matrix(1,0,0,-1,597.931,168.9236)"
           id="g424"><path
             id="path426"
             style="fill:none;stroke:#000000;stroke-width:0.80000001;stroke-linecap:butt;stroke-linejoin:miter;stroke-miterlimit:10;stroke-dasharray:none;stroke-opacity:1"
             d="M 5.810811,19.74404 H 57.34681" /></g></g></g><g
       id="g428"><g
         clip-path="url(#clipPath434)"
         id="g430"><g
           transform="matrix(1,0,0,-1,539.8702,490.1044)"
           id="g436"><path
             id="path438"
             style="fill:none;stroke:#b42a44;stroke-width:1;stroke-linecap:butt;stroke-linejoin:miter;stroke-miterlimit:4;stroke-dasharray:1, 1;stroke-dashoffset:0;stroke-opacity:1"
             d="M 7.125,0 C 3.186864,0 0,3.186864 0,7.125 v 128.5 c 0,3.9382 3.186864,7.125 7.125,7.125 h 94.6875 l 14.25,13.0312 14.25,-13.0312 H 192 c 3.9382,0 7.125,-3.1869 7.125,-7.125 V 7.125 C 199.125,3.186864 195.9381,0 192,0 Z" /></g><g
           transform="translate(554.9249,460.5323)"
           id="g440"><text
             id="text444"
             style="font-variant:normal;font-weight:normal;font-size:18px;font-family:ArialMT;-inkscape-font-specification:ArialMT;writing-mode:lr-tb;fill:#000000;fill-opacity:1;fill-rule:nonzero;stroke:none"
             transform="scale(1,-1)"><tspan
               id="tspan442"
               y="0"
               x="0 12.006 21.006001 31.017599 41.029202 46.029598 51.029999 63.035999 73.0476 88.041603 103.0356 113.0472 119.0412">Event Summary</tspan></text>
</g><g
           transform="translate(554.9249,460.5323)"
           id="g446"><text
             id="text450"
             style="font-variant:normal;font-weight:normal;font-size:18px;font-family:ArialMT;-inkscape-font-specification:ArialMT;writing-mode:lr-tb;fill:#000000;fill-opacity:1;fill-rule:nonzero;stroke:none"
             transform="matrix(1,0,0,-1,128.0391,0)"><tspan
               id="tspan448"
               y="0"
               x="0 5.0004001 9.0108004 20.023199">: A </tspan></text>
</g><g
           transform="translate(554.9249,441.5734)"
           id="g452"><text
             id="text456"
             style="font-variant:normal;font-weight:normal;font-size:18px;font-family:ArialMT;-inkscape-font-specification:ArialMT;writing-mode:lr-tb;fill:#000000;fill-opacity:1;fill-rule:nonzero;stroke:none"
             transform="scale(1,-1)"><tspan
               id="tspan454"
               y="0"
               x="0 12.006 22.017599 26.0172 30.0168 35.0172 39.0168 48.0168 52.016399 62.028 72.039597 77.040001 87.051598 92.052002 97.052399 107.064 116.064 125.064 135.07561 145.0872 150.0876 155.088 165.09959 175.11121">Politician attacked the </tspan></text>
</g><g
           transform="translate(554.9249,422.6145)"
           id="g458"><text
             id="text462"
             style="font-variant:normal;font-weight:normal;font-size:18px;font-family:ArialMT;-inkscape-font-specification:ArialMT;writing-mode:lr-tb;fill:#000000;fill-opacity:1;fill-rule:nonzero;stroke:none"
             transform="scale(1,-1)"><tspan
               id="tspan460"
               y="0"
               x="0 9 14.0004 24.011999 29.0124 39.023998 44.024399 54.035999 64.0476 73.0476 83.059196 89.0532 99.064796 114.0588 124.0704 134.082 139.0824 144.08279 154.09441 164.106">state government on </tspan></text>
</g><g
           transform="translate(554.9249,403.6556)"
           id="g464"><text
             id="text468"
             style="font-variant:normal;font-weight:normal;font-size:18px;font-family:ArialMT;-inkscape-font-specification:ArialMT;writing-mode:lr-tb;fill:#000000;fill-opacity:1;fill-rule:nonzero;stroke:none"
             transform="scale(1,-1)"><tspan
               id="tspan466"
               y="0"
               x="0 9 19.0116 25.0056 29.005199 39.0168 49.0284 58.0284 63.028801 68.029198 74.023201 84.034798 94.046402 99.046799 108.0468 113.0472 122.0472 132.05881 141.05881 151.0704 156.0708 166.0824 175.0824">various fronts such as </tspan></text>
</g><g
           transform="translate(554.9249,384.6967)"
           id="g470"><text
             id="text474"
             style="font-variant:normal;font-weight:normal;font-size:18px;font-family:ArialMT;-inkscape-font-specification:ArialMT;writing-mode:lr-tb;fill:#000000;fill-opacity:1;fill-rule:nonzero;stroke:none"
             transform="scale(1,-1)"><tspan
               id="tspan472"
               y="0"
               x="0 5.0004001 15.012 21.006001 26.006399 30.006001 34.0056 38.005199 47.005199 57.0168 63.010799 68.0112 77.0112 83.005203 93.0168 103.0284 112.0284 122.04 127.0404 137.052 147.0636 157.0752">fertilizer crunch and </tspan></text>
</g><g
           transform="translate(554.9249,365.7378)"
           id="g476"><text
             id="text480"
             style="font-variant:normal;font-weight:normal;font-size:18px;font-family:ArialMT;-inkscape-font-specification:ArialMT;writing-mode:lr-tb;fill:#000000;fill-opacity:1;fill-rule:nonzero;stroke:none"
             transform="scale(1,-1)"><tspan
               id="tspan478"
               y="0"
               x="0 3.9995999 14.0112 24.0228 34.034401 39.034801 49.046398 58.046398 68.057999 78.069603 82.069199 91.069199 95.068802 100.0692 104.0688 114.0804 124.092 129.09241 139.104 148.104 153.1044">land acquisition act.</tspan></text>
</g><g
           transform="matrix(1,0,0,-1,550.9249,491.1289)"
           id="g482"><path
             id="path484"
             style="fill:none;stroke:#000000;stroke-width:1.31835902;stroke-linecap:butt;stroke-linejoin:miter;stroke-miterlimit:10;stroke-dasharray:none;stroke-opacity:1"
             d="M 4,32.50391 H 132.0391" /></g><g
           transform="translate(405.3714,213.4805)"
           id="g486"><text
             id="text490"
             style="font-variant:normal;font-weight:normal;font-size:16px;font-family:HelveticaNeue;-inkscape-font-specification:HelveticaNeue;writing-mode:lr-tb;fill:#000000;fill-opacity:1;fill-rule:nonzero;stroke:none"
             transform="scale(1,-1)"><tspan
               id="tspan488"
               y="0"
               x="0 11.552 20.736 29.632 37.632 46.528 50.080002">Consult</tspan></text>
</g><g
           transform="matrix(1,0,0,-1,396.7906,231.6245)"
           id="g492"><path
             id="path494"
             style="fill:none;stroke:#000000;stroke-width:0.80000001;stroke-linecap:butt;stroke-linejoin:miter;stroke-miterlimit:10;stroke-dasharray:none;stroke-opacity:1"
             d="M 8.580808,19.74404 H 63.70081" /></g><g
           transform="matrix(1,0,0,-1,308.2924,538.3476)"
           id="g496"><path
             id="path498"
             style="fill:none;stroke:#000000;stroke-width:1;stroke-linecap:butt;stroke-linejoin:miter;stroke-miterlimit:4;stroke-dasharray:none;stroke-opacity:1"
             d="M 0,0 H 450 V 450 H 0 Z" /></g></g></g></g></svg>