<?xml version="1.0" encoding="utf-8"?>
<!-- Generator: Adobe Illustrator 22.0.1, SVG Export Plug-In . SVG Version: 6.00 Build 0)  -->
<svg version="1.1" id="Layer_1" xmlns="http://www.w3.org/2000/svg" xmlns:xlink="http://www.w3.org/1999/xlink" x="0px" y="0px"
	 width="250.2px" height="106.8px" viewBox="0 0 250.2 106.8" enable-background="new 0 0 250.2 106.8" xml:space="preserve">
<g>
	<path fill="#A32638" d="M33.65,21.04v0.43v6.8l-0.05,0.03l0,0.39L8.91,38.41c-5.54,2.54-4,8.13,0.76,11.04v0.86
		c-1.19-0.27-2.32-0.56-3.05-0.85c-3.86-1.24-6.53-3.71-6.53-7.52v-6.71l15.94-6.86l0.07,0.03l0.7-0.29l-0.08-0.03l16.89-7.29
		l0.04,0.03V21.04z"/>
	<path fill="#FFFFFF" d="M50.16,39.14l-0.87-1.96l0.56-0.93l-4.38-1.66l-0.39-9.63l0.62-0.36l-0.06-1.09l-0.73-0.3l-5.2-6.47
		l0.01-0.7l0.77-0.08l-1.59-2.09l-1.43,0.38v-0.62l-0.77-0.44l0.01-2.39l-0.17-0.09l-2.72-8.84l-0.68-0.01l-2.61,9.21v2.21L30,13.65
		v0.77l-0.03-0.01l-1.69-0.32l-1.59,2.08l0.78,0.08v1.57l-5.37,6.59l0.02,0.71l0.53,0.37l-0.03,1.84l-3.47,1.58l-2.43-0.82L9.7,31.1
		v19.23c2.8,0.8,11.03,2.54,25.37,4.17c16.26,1.85,22.75,4.25,22.75,4.25l0.16,0.05V41.83L50.16,39.14z"/>
	<path fill="#A32638" d="M94.53,63.38c0.24,0,0.51,0.03,0.81,0.09c0.3,0.06,0.59,0.18,0.87,0.37c0.28,0.19,0.52,0.46,0.73,0.8
		c0.21,0.35,0.34,0.81,0.39,1.38h-0.86c-0.07-0.42-0.19-0.74-0.32-0.99c-0.14-0.24-0.3-0.42-0.48-0.54
		c-0.18-0.12-0.37-0.2-0.57-0.24c-0.2-0.03-0.4-0.05-0.59-0.05c-0.23,0-0.44,0.03-0.64,0.09c-0.2,0.06-0.37,0.15-0.52,0.25
		c-0.15,0.11-0.27,0.24-0.36,0.38c-0.09,0.14-0.13,0.3-0.13,0.47c0,0.23,0.06,0.41,0.2,0.55c0.13,0.14,0.31,0.26,0.52,0.35
		c0.21,0.1,0.46,0.18,0.74,0.24c0.28,0.06,0.56,0.13,0.84,0.2c0.29,0.07,0.57,0.16,0.84,0.26c0.27,0.1,0.52,0.23,0.74,0.39
		c0.21,0.16,0.39,0.36,0.52,0.61c0.13,0.25,0.2,0.55,0.2,0.91c0,0.33-0.07,0.63-0.21,0.91c-0.14,0.27-0.34,0.5-0.61,0.7
		c-0.26,0.19-0.58,0.34-0.96,0.44c-0.37,0.1-0.79,0.16-1.26,0.16c-0.48,0-0.91-0.08-1.25-0.23c-0.35-0.15-0.64-0.36-0.86-0.62
		c-0.23-0.26-0.39-0.56-0.5-0.9c-0.11-0.34-0.16-0.71-0.16-1.09h0.83c0,0.35,0.05,0.65,0.14,0.9c0.1,0.25,0.23,0.46,0.4,0.62
		c0.17,0.17,0.38,0.29,0.6,0.37c0.24,0.08,0.49,0.12,0.77,0.12c0.31,0,0.6-0.02,0.86-0.07c0.26-0.05,0.49-0.13,0.67-0.24
		c0.19-0.11,0.33-0.25,0.44-0.42c0.11-0.17,0.16-0.38,0.16-0.62c0-0.36-0.11-0.63-0.33-0.82c-0.22-0.19-0.5-0.34-0.84-0.45
		c-0.34-0.11-0.71-0.21-1.1-0.29c-0.4-0.08-0.76-0.2-1.1-0.34c-0.34-0.14-0.62-0.34-0.84-0.59C92.11,66.21,92,65.86,92,65.4
		c0-0.35,0.07-0.65,0.22-0.9c0.15-0.25,0.35-0.46,0.59-0.63c0.24-0.17,0.51-0.29,0.81-0.37C93.92,63.42,94.23,63.38,94.53,63.38
		 M120.33,63.53v5.36c0,0.38,0.09,0.7,0.27,0.99c0.18,0.28,0.41,0.51,0.69,0.7c0.28,0.18,0.59,0.32,0.94,0.42
		c0.35,0.09,0.69,0.14,1.03,0.14c0.34,0,0.69-0.05,1.04-0.14c0.35-0.1,0.67-0.23,0.95-0.42c0.28-0.19,0.51-0.42,0.69-0.7
		c0.18-0.28,0.27-0.61,0.27-0.99v-5.36h-0.84v5.18c0,0.25-0.06,0.48-0.17,0.67c-0.12,0.2-0.27,0.36-0.46,0.5
		c-0.19,0.13-0.42,0.24-0.67,0.31c-0.26,0.07-0.52,0.11-0.8,0.11c-0.28,0-0.54-0.03-0.8-0.1c-0.25-0.07-0.47-0.17-0.67-0.3
		c-0.19-0.13-0.34-0.3-0.46-0.5c-0.11-0.2-0.17-0.43-0.17-0.69v-5.18H120.33z M184.13,63.38c-0.53,0-1.01,0.08-1.45,0.24
		c-0.43,0.16-0.8,0.4-1.11,0.72c-0.31,0.32-0.55,0.73-0.71,1.21c-0.17,0.48-0.25,1.05-0.25,1.69c0,0.65,0.08,1.21,0.25,1.7
		c0.16,0.48,0.4,0.89,0.7,1.21c0.31,0.32,0.68,0.57,1.11,0.73c0.43,0.16,0.92,0.25,1.46,0.25c0.38,0,0.75-0.06,1.11-0.17
		c0.36-0.11,0.7-0.29,0.99-0.52c0.29-0.23,0.54-0.53,0.75-0.89c0.2-0.36,0.34-0.78,0.4-1.27h-0.83c-0.06,0.36-0.16,0.66-0.31,0.91
		c-0.16,0.26-0.35,0.46-0.57,0.63c-0.22,0.16-0.46,0.28-0.73,0.36c-0.27,0.08-0.53,0.11-0.81,0.11c-0.32,0-0.64-0.05-0.95-0.16
		c-0.32-0.11-0.6-0.28-0.85-0.52c-0.25-0.24-0.45-0.55-0.61-0.94c-0.16-0.39-0.23-0.87-0.23-1.43c0-0.56,0.08-1.04,0.23-1.42
		c0.16-0.39,0.36-0.7,0.61-0.94c0.25-0.24,0.53-0.41,0.85-0.52c0.31-0.11,0.63-0.16,0.95-0.16c0.25,0,0.51,0.03,0.77,0.09
		c0.25,0.06,0.49,0.16,0.72,0.3c0.22,0.14,0.41,0.33,0.57,0.56c0.16,0.23,0.27,0.52,0.32,0.86h0.84c-0.08-0.48-0.21-0.89-0.39-1.23
		c-0.18-0.34-0.41-0.61-0.68-0.82c-0.28-0.21-0.6-0.36-0.95-0.45C184.96,63.43,184.57,63.38,184.13,63.38 M211.57,63.38
		c-0.53,0-1.02,0.08-1.46,0.24c-0.43,0.16-0.81,0.4-1.12,0.72c-0.32,0.32-0.56,0.73-0.73,1.21c-0.17,0.48-0.25,1.05-0.25,1.69
		c0,0.65,0.08,1.21,0.25,1.7c0.17,0.48,0.41,0.89,0.71,1.21c0.31,0.32,0.68,0.57,1.12,0.73c0.44,0.16,0.93,0.24,1.47,0.24
		c0.53,0,1.01-0.08,1.44-0.24c0.43-0.16,0.8-0.4,1.09-0.72c0.3-0.32,0.53-0.73,0.69-1.21c0.16-0.48,0.24-1.05,0.24-1.7
		c0-0.65-0.08-1.22-0.25-1.71c-0.17-0.48-0.4-0.89-0.7-1.21c-0.3-0.32-0.67-0.56-1.1-0.71C212.56,63.46,212.09,63.38,211.57,63.38
		 M211.57,64.2c0.32,0,0.64,0.05,0.95,0.16c0.31,0.11,0.59,0.28,0.83,0.52c0.24,0.24,0.44,0.55,0.6,0.94
		c0.15,0.39,0.23,0.86,0.23,1.42c0,0.56-0.08,1.03-0.22,1.42c-0.15,0.39-0.35,0.71-0.59,0.95c-0.25,0.24-0.52,0.42-0.84,0.53
		c-0.31,0.11-0.63,0.16-0.96,0.16c-0.32,0-0.64-0.05-0.96-0.16c-0.32-0.11-0.61-0.28-0.86-0.52c-0.25-0.24-0.46-0.55-0.62-0.94
		c-0.16-0.39-0.24-0.87-0.24-1.43c0-0.56,0.08-1.04,0.24-1.42c0.16-0.39,0.37-0.7,0.62-0.94c0.26-0.24,0.54-0.41,0.86-0.52
		C210.93,64.26,211.25,64.2,211.57,64.2 M228.4,63.38c-0.53,0-1.02,0.08-1.45,0.24c-0.44,0.16-0.81,0.4-1.12,0.72
		c-0.31,0.32-0.56,0.73-0.73,1.21c-0.17,0.48-0.25,1.05-0.25,1.69c0,0.65,0.08,1.21,0.25,1.7c0.17,0.48,0.4,0.89,0.71,1.21
		c0.31,0.32,0.68,0.57,1.12,0.73c0.44,0.16,0.93,0.24,1.47,0.24c0.53,0,1.01-0.08,1.44-0.24c0.43-0.16,0.8-0.4,1.1-0.72
		c0.3-0.32,0.53-0.73,0.69-1.21c0.16-0.48,0.24-1.05,0.24-1.7c0-0.65-0.08-1.22-0.25-1.71c-0.17-0.48-0.4-0.89-0.71-1.21
		c-0.3-0.32-0.66-0.56-1.09-0.71C229.39,63.46,228.92,63.38,228.4,63.38 M228.4,64.2c0.32,0,0.64,0.05,0.95,0.16
		c0.32,0.11,0.59,0.28,0.84,0.52c0.24,0.24,0.44,0.55,0.59,0.94c0.15,0.39,0.23,0.86,0.23,1.42c0,0.56-0.07,1.03-0.22,1.42
		c-0.15,0.39-0.35,0.71-0.59,0.95c-0.24,0.24-0.52,0.42-0.83,0.53c-0.31,0.11-0.63,0.16-0.96,0.16c-0.32,0-0.64-0.05-0.96-0.16
		c-0.32-0.11-0.61-0.28-0.86-0.52c-0.25-0.24-0.46-0.55-0.62-0.94c-0.16-0.39-0.24-0.87-0.24-1.43c0-0.56,0.08-1.04,0.24-1.42
		c0.16-0.39,0.37-0.7,0.62-0.94c0.26-0.24,0.54-0.41,0.86-0.52C227.76,64.26,228.08,64.2,228.4,64.2 M234.5,67.25
		c0,0.65,0.1,1.21,0.31,1.7c0.2,0.49,0.48,0.89,0.83,1.22c0.35,0.32,0.75,0.56,1.22,0.72c0.47,0.16,0.97,0.24,1.51,0.24
		c0.14,0,0.34-0.01,0.58-0.02c0.25-0.01,0.5-0.03,0.78-0.06c0.28-0.03,0.55-0.06,0.83-0.12c0.27-0.05,0.51-0.11,0.71-0.18v-3.63
		h-2.56v0.82h1.72v2.14c-0.12,0.04-0.27,0.07-0.46,0.09c-0.19,0.03-0.39,0.05-0.6,0.07c-0.21,0.02-0.4,0.03-0.58,0.04
		c-0.18,0.01-0.32,0.02-0.43,0.02c-0.32,0-0.66-0.06-1.01-0.16c-0.35-0.11-0.67-0.28-0.97-0.53c-0.29-0.24-0.54-0.56-0.73-0.94
		c-0.19-0.39-0.29-0.86-0.29-1.42c0-0.56,0.08-1.04,0.24-1.42c0.16-0.39,0.36-0.7,0.61-0.94c0.25-0.24,0.53-0.41,0.85-0.52
		c0.31-0.11,0.63-0.16,0.95-0.16c0.25,0,0.51,0.03,0.76,0.09c0.26,0.06,0.49,0.16,0.72,0.3c0.22,0.14,0.41,0.33,0.57,0.56
		c0.16,0.23,0.27,0.52,0.32,0.86h0.84c-0.08-0.48-0.21-0.89-0.39-1.23c-0.18-0.34-0.41-0.61-0.68-0.82
		c-0.28-0.21-0.6-0.36-0.95-0.45c-0.36-0.09-0.76-0.14-1.19-0.14c-0.54,0-1.02,0.08-1.45,0.24c-0.43,0.16-0.8,0.4-1.11,0.72
		c-0.31,0.32-0.55,0.73-0.72,1.21C234.58,66.04,234.5,66.6,234.5,67.25 M99.2,29.3h-1.46l-0.43,1.34c-0.52-0.24-1.03-0.46-1.52-0.67
		c-0.49-0.21-0.97-0.4-1.46-0.57c-0.48-0.17-0.99-0.31-1.51-0.43c-0.53-0.12-1.08-0.2-1.66-0.26c-0.89-0.05-1.78-0.06-2.68-0.02
		c-0.89,0.04-1.76,0.19-2.6,0.45c-0.74,0.21-1.43,0.52-2.09,0.93c-0.66,0.41-1.25,0.92-1.77,1.56c-0.44,0.55-0.8,1.18-1.06,1.89
		c-0.27,0.71-0.41,1.46-0.43,2.25c0,0.58,0.06,1.17,0.18,1.77c0.12,0.61,0.34,1.18,0.65,1.73c0.23,0.45,0.61,0.88,1.12,1.3
		c0.51,0.42,1.1,0.82,1.75,1.18c0.65,0.34,1.38,0.66,2.15,0.95c0.77,0.29,1.56,0.53,2.34,0.71c0.74,0.18,1.48,0.35,2.23,0.49
		c0.75,0.15,1.5,0.31,2.27,0.49c0.74,0.18,1.46,0.4,2.18,0.63c0.72,0.24,1.44,0.53,2.15,0.87c0.4,0.21,0.75,0.49,1.07,0.83
		c0.31,0.34,0.56,0.73,0.73,1.16c0.17,0.43,0.25,0.93,0.25,1.48c0,0.55-0.09,1.16-0.28,1.81c-0.13,0.47-0.35,0.94-0.65,1.4
		c-0.3,0.46-0.68,0.89-1.12,1.28c-0.42,0.37-0.9,0.7-1.46,0.98c-0.55,0.29-1.15,0.49-1.81,0.59c-0.58,0.11-1.18,0.17-1.79,0.2
		c-0.62,0.02-1.26,0-1.91-0.08c-0.66-0.08-1.32-0.24-1.99-0.47c-0.67-0.24-1.33-0.57-1.99-0.99c-0.66-0.42-1.26-0.89-1.79-1.4
		c-0.54-0.51-1.04-1.06-1.52-1.63c-0.45-0.58-0.88-1.18-1.3-1.79c-0.42-0.62-0.82-1.26-1.18-1.91l-1.46,0.24l2.56,9.3h1.69
		l0.55-1.89c0.34,0.18,0.7,0.38,1.06,0.59c0.37,0.21,0.74,0.41,1.1,0.59c0.5,0.24,1,0.45,1.5,0.63c0.5,0.18,0.98,0.32,1.46,0.4
		c0.6,0.08,1.19,0.15,1.77,0.22c0.58,0.06,1.14,0.11,1.7,0.14c0.55,0,1.12-0.04,1.7-0.1c0.58-0.06,1.17-0.19,1.77-0.37
		c0.66-0.18,1.33-0.43,2.01-0.75c0.68-0.32,1.34-0.71,1.97-1.18c0.55-0.42,1.06-0.91,1.52-1.46c0.46-0.55,0.86-1.17,1.2-1.85
		c0.19-0.45,0.35-0.97,0.49-1.56c0.14-0.59,0.22-1.2,0.22-1.83c0-0.63-0.07-1.27-0.22-1.91c-0.14-0.64-0.39-1.23-0.73-1.75
		c-0.37-0.58-0.81-1.08-1.3-1.5c-0.5-0.42-1.05-0.79-1.66-1.1c-0.6-0.31-1.26-0.58-1.97-0.81c-0.71-0.22-1.45-0.44-2.21-0.65
		c-0.84-0.21-1.7-0.4-2.56-0.57c-0.87-0.17-1.72-0.36-2.56-0.57c-0.73-0.18-1.46-0.41-2.17-0.69c-0.71-0.28-1.38-0.64-2.01-1.08
		c-0.29-0.21-0.57-0.45-0.85-0.73c-0.28-0.28-0.49-0.6-0.65-0.99c-0.16-0.38-0.24-0.81-0.24-1.28c0-0.47,0.13-1.01,0.4-1.62
		c0.23-0.47,0.56-0.88,0.98-1.22c0.42-0.34,0.91-0.63,1.46-0.87c0.52-0.21,1.09-0.37,1.69-0.47c0.6-0.11,1.21-0.14,1.81-0.12
		c0.71,0.03,1.36,0.13,1.95,0.31c0.59,0.18,1.16,0.42,1.71,0.71c0.47,0.26,0.94,0.57,1.42,0.91c0.47,0.34,0.97,0.71,1.5,1.1
		l3.11,3.47l1.11-0.55L99.2,29.3z M106.28,33.43l-1.98,6.11l1.27,0.4c0.16-0.45,0.37-0.88,0.64-1.29c0.27-0.41,0.57-0.81,0.91-1.19
		c0.45-0.47,0.95-0.89,1.51-1.27c0.56-0.38,1.15-0.69,1.78-0.94c0.45-0.15,0.91-0.27,1.38-0.35c0.47-0.08,0.95-0.12,1.44-0.12
		c0.16,0,0.31,0.03,0.46,0.08c0.15,0.06,0.27,0.13,0.39,0.23c0.11,0.1,0.2,0.24,0.27,0.42c0.07,0.18,0.1,0.39,0.1,0.64v18.76
		l-3.46,0.94v1.04h10.6v-1.07l-3.72-0.97V36.08c0-0.27,0.03-0.49,0.1-0.65c0.06-0.17,0.17-0.3,0.3-0.4c0.14-0.1,0.3-0.17,0.5-0.2
		c0.2-0.03,0.44-0.05,0.71-0.05c0.56,0.02,1.08,0.1,1.57,0.22c0.49,0.13,0.96,0.29,1.41,0.49c0.47,0.22,0.92,0.49,1.34,0.81
		c0.43,0.31,0.82,0.66,1.17,1.04c0.36,0.38,0.69,0.79,0.99,1.22c0.3,0.44,0.57,0.87,0.82,1.29l1.21-0.37l-1.88-6.04H106.28z
		 M129.76,33.46v1.04l3.06,0.84v19.74l-2.92,0.77v1.04h19.8l3.09-7.38l-1.14-0.44c-0.4,0.53-0.81,1.04-1.22,1.51
		c-0.41,0.47-0.83,0.9-1.26,1.31c-0.6,0.56-1.21,1.05-1.83,1.48c-0.62,0.43-1.23,0.77-1.83,1.04c-0.65,0.29-1.31,0.51-1.98,0.67
		c-0.67,0.15-1.34,0.26-2.01,0.3c-0.54,0.02-1.07,0.01-1.6-0.03c-0.53-0.04-1.06-0.11-1.59-0.2c-0.27-0.05-0.53-0.15-0.77-0.32
		c-0.25-0.16-0.46-0.37-0.64-0.62c-0.15-0.22-0.29-0.48-0.4-0.75c-0.11-0.28-0.17-0.56-0.17-0.82v-7.45h5.61l1.17,4.33h1.17V39.23
		h-1.27l-1.04,4.33h-5.64v-6.14c0-0.27,0.05-0.53,0.14-0.79c0.09-0.26,0.21-0.48,0.37-0.69c0.16-0.22,0.36-0.41,0.61-0.57
		c0.25-0.16,0.51-0.27,0.8-0.33c0.51-0.09,1.04-0.15,1.56-0.17c0.53-0.02,1.06-0.01,1.59,0.03c0.67,0.05,1.34,0.15,2,0.32
		c0.66,0.17,1.29,0.39,1.9,0.65c0.51,0.22,1.02,0.48,1.51,0.77c0.49,0.29,0.96,0.6,1.41,0.94c0.45,0.36,0.88,0.74,1.28,1.14
		c0.4,0.4,0.77,0.83,1.1,1.27l1.04-0.3l-2.24-6.24H129.76z M180.35,33.46v1.04l3.06,0.84v19.74l-2.92,0.77v1.04h19.8l3.09-7.38
		l-1.14-0.44c-0.4,0.53-0.81,1.04-1.22,1.51c-0.41,0.47-0.84,0.9-1.26,1.31c-0.6,0.56-1.21,1.05-1.83,1.48
		c-0.61,0.43-1.23,0.77-1.83,1.04c-0.64,0.29-1.31,0.51-1.98,0.67c-0.67,0.15-1.35,0.26-2.01,0.3c-0.54,0.02-1.07,0.01-1.6-0.03
		c-0.53-0.04-1.06-0.11-1.6-0.2c-0.27-0.05-0.52-0.15-0.77-0.32c-0.24-0.16-0.46-0.37-0.64-0.62c-0.16-0.22-0.29-0.48-0.4-0.75
		c-0.12-0.28-0.17-0.56-0.17-0.82v-7.45h5.61l1.18,4.33h1.17V39.23h-1.27l-1.04,4.33h-5.64v-6.14c0-0.27,0.05-0.53,0.14-0.79
		c0.09-0.26,0.21-0.48,0.37-0.69c0.16-0.22,0.36-0.41,0.61-0.57c0.25-0.16,0.51-0.27,0.8-0.33c0.52-0.09,1.04-0.15,1.56-0.17
		c0.52-0.02,1.06-0.01,1.59,0.03c0.67,0.05,1.34,0.15,2,0.32c0.66,0.17,1.29,0.39,1.89,0.65c0.52,0.22,1.02,0.48,1.51,0.77
		c0.49,0.29,0.96,0.6,1.41,0.94c0.45,0.36,0.87,0.74,1.27,1.14c0.4,0.4,0.77,0.83,1.11,1.27l1.04-0.3l-2.25-6.24H180.35z
		 M33.65,63.14c8.83,1.31,18.71,2.55,23.81,4.59v0.81v8.36L33.56,93.66L9.77,77.86V56.72c6.89,2.54,17.19,5.41,23.99,6.42
		 M33.62,96.3v10.4L0.1,82.8V50.35c1.57,2.51,5.37,4.98,7.46,5.74c0,1.31-0.06,3.84-0.06,5.22v17.16L33.62,96.3z M33.52,1.35
		c0.19,0,0.36,0.04,0.49,0.09c0.07-0.06,0.12-0.13,0.14-0.22c-0.08-0.23-0.34-0.4-0.67-0.4c-0.32,0-0.58,0.17-0.66,0.39
		c0.03,0.09,0.08,0.18,0.16,0.25C33.11,1.4,33.3,1.35,33.52,1.35z M31.94,9.11l-0.7,0.48l2-7.38l0.09-0.05L32.3,9.11H31.94z
		 M33.27,0.6c-0.06-0.05-0.09-0.13-0.09-0.21c0-0.16,0.12-0.29,0.27-0.29c0.15,0,0.27,0.13,0.27,0.29c0,0.08-0.03,0.15-0.08,0.2
		c-0.06-0.01-0.12-0.02-0.17-0.02C33.41,0.58,33.34,0.59,33.27,0.6z M30.56,12.92l-0.01,0.01l-0.03,0.57l1.73-0.39l2.85,0.09
		l1.65,0.3v-0.68l-0.02-0.01l0.33-0.22l0.1-1.94l-2.04-1.12H32.1l-2.06,1.22l0.18,1.88L30.56,12.92z M32.28,10.18h2.51l1.95,1.11
		l-0.04,1.5l-1.42-1h-3.25l-1.44,1.1v-1.61L32.28,10.18z M33.24,18.01l-9.57,5.01l3.84-4.86v1.35l-0.24,0.31l0.61-0.27v-3.41
		l0.81-1.03l0.92,0.1v3.59l0.4-0.17l0.02-3.71l1.64,0.89l0.09-0.47l-1.67-0.86l1.95-0.83L33.24,18.01z M22.89,25.25L22.39,25v-0.65
		l10.99-5.68l0.27,0.71l0.32,21l-2.59-9.57l0.21-0.49l-0.12,0.27l0.19-0.06L31.45,25c-0.02-0.35-0.51-1.65-0.86-1.8
		c-0.33,0.32-0.72,1.51-0.68,2.18l0.17,3.93l-1.24-0.45l-0.1-2.57c-0.02-0.33-0.5-1.65-0.87-1.8c-0.33,0.32-0.71,1.51-0.68,2.18
		l0.07,1.62l-1.02-0.37l-0.01-0.37c-0.02-0.35-0.49-1.65-0.86-1.8c-0.33,0.32-0.59,1.41-0.64,1.62l-1.09-0.4h-0.32l-0.43,0.2
		L22.89,25.25z M42.46,25.43c0,0,0.58,0.8,0.73,1.78c0,0.04,0,0.07,0,0.11v5.82l-1.56-0.55v-5.75
		C41.63,26.82,41.61,26.1,42.46,25.43z M38.85,25.91c0,0,0.17-0.96,1-1.7c0,0,0.87,1.19,0.87,2.19v5.84l-1.86-0.64V25.91z
		 M24.19,27.68l-0.43,0.98l-0.79,9.96l11.1,3.1l-2.96-10.86l0.27-0.6L24.19,27.68z M30.22,34.36l-2.77-0.82l-0.1,5.29l-0.1,0.22
		l-0.11-0.26l-0.93-5.35l1.15-0.25l3.02,1.04L30.22,34.36z M37,23.1c0,0,0.94,1.34,0.94,2.34v5.83l-2.04-0.7v-5.6
		C35.9,24.97,36.1,23.64,37,23.1z M33.52,1.63c0.32,0,0.59,0.1,0.7,0.25c-0.06,0.08-0.17,0.15-0.31,0.2
		c-0.1-0.09-0.23-0.14-0.39-0.14c-0.16,0-0.3,0.05-0.39,0.14c-0.15-0.05-0.25-0.12-0.31-0.21C32.93,1.73,33.2,1.63,33.52,1.63z
		 M53.17,46.64l-4.25-9.55l0.36-0.6l-3.89-1.42l0.59,9.81L53.17,46.64z M48.05,39.95l2.16,0.76l-0.12,0.09l-1.98-0.48l0.07,4.55
		l-1.37-4.92H48.05z M19.31,30.21l-0.16-0.76l3.34-1.57l0.47,0.78l-0.78,9.96l-3.9,1.59L19.31,30.21z M37.53,15.02v3.34l0.49,0.25
		l0.04-3.31l0.6-0.19l0.68,0.83v3.35l0.67,0.34l-0.24-0.31v-1.95l4.01,5.01l-9.71-4.38l1.14-4.48l1.83,0.97l-1.52,0.66l0.38,0.42
		L37.53,15.02z M34.79,9.11l-1.02-6.95l0.09,0.05l2.04,7.32l-0.74-0.42H34.79z M33.55,2.16l0.83,6.94H32.8L33.55,2.16z M34.7,13.51
		l-1.06,4.14l-1.06-4.14H34.7z M45.39,24.5l-0.54,0.31l0.04,0.53L33.97,20.7l-0.03-1.43l0.28-0.6l11.16,5.07V24.5z M20.21,45.21
		c0.17,0,0.31,0.31,0.3,0.68c-0.01,0.37-0.15,0.67-0.33,0.66c-0.17,0-0.3-0.31-0.29-0.68C19.9,45.51,20.04,45.21,20.21,45.21z
		 M51.44,50.53c-0.64,0.57-0.7,1.5-0.7,1.5l1.47,0.23c0-0.03-0.01-0.07-0.02-0.1C52.04,51.05,51.44,50.53,51.44,50.53z M51.46,51.96
		c-0.21,0-0.38-0.23-0.38-0.51c0-0.28,0.17-0.51,0.38-0.51c0.21,0,0.37,0.23,0.37,0.51C51.84,51.73,51.67,51.96,51.46,51.96z
		 M50.76,52.49l1.42,0.22v4.53c-0.45-0.11-0.93-0.2-1.42-0.31V52.49z M48.38,52.02l1.5,0.23v4.5c-0.48-0.1-0.98-0.19-1.5-0.29V52.02
		z M49.1,50.04c-0.65,0.56-0.72,1.5-0.72,1.5l1.5,0.23c0-0.03-0.01-0.06-0.01-0.1C49.71,50.56,49.1,50.04,49.1,50.04z M49.12,51.47
		c-0.21,0-0.38-0.23-0.38-0.51c0-0.28,0.17-0.51,0.38-0.51c0.21,0,0.38,0.23,0.38,0.51C49.5,51.24,49.33,51.47,49.12,51.47z
		 M56.86,53.05c0,0,0.77,0.92,0.87,1.99l-1.88-0.35C55.93,54.36,56.08,53.37,56.86,53.05z M42.72,50.11v5.39
		c-0.04-0.01-0.1-0.01-0.15-0.02v-5.37c0-1.87-2.05-3.8-2.37-4.09c-0.32,0.2-2.18,1.43-2.18,3.21v5.64
		c-0.05-0.01-0.11-0.02-0.15-0.02v-5.62c0-2.02,2.27-3.35,2.3-3.36l0.05-0.03l0.04,0.03C40.36,45.95,42.72,48.02,42.72,50.11z
		 M57.86,42.07L50.3,39.5l3.44,7.26l0.82,0.18l-0.01,0.37l-0.53,0.31l0.12,10.08l0.12,0.03l-0.09-7.68l3.69,0.85v-0.23l-3.69-0.85
		l0-0.13l3.69,0.87v-0.29l-3.7-0.87l0-0.28l3.7,0.93V42.07z M56.74,45.44l-1.4-0.3l0.04,3.88l-0.21-0.21l-0.17-3.73l-1.12-0.31h1.29
		l1.65,0.51L56.74,45.44z M54.43,47.15l-8.38-2.08l0-0.16l-2.32-0.57v-5.27c0-0.04,0-0.07,0-0.11c-0.15-0.98-0.73-1.78-0.73-1.78
		c-0.85,0.67-0.83,1.4-0.83,1.4v5.38l-1.03-0.25v-5.44c0-1-0.87-2.19-0.87-2.19c-0.83,0.74-1,1.7-1,1.7v5.48l-1.14-0.28
		c0-1.08-0.01-4.94-0.01-5.5c0-1-0.94-2.34-0.94-2.34c-0.83,0.74-1.1,1.87-1.1,1.87l0.02,5.47L34.6,42.1l0,0.05l-11.88-3.37
		l-0.05-0.02l-4.6,1.89l-8.31-2.14v0.31l8.28,2.13l0.04,0.01v0.31l-0.01,0l-8.31-2.16v0.23l8.32,2.16v10.58
		c0.4,0.07,0.86,0.15,1.34,0.23l-0.05-5.06l1.61-0.42v5.74c0.57,0.09,1.15,0.18,1.7,0.26V39.71L34.59,43l0,0.01l11.31,2.73
		l7.71,1.93l0.29-0.17l-7.84-1.96l0-0.15l7.96,1.96L54.43,47.15z M19.41,47.02c0-1.46,0.79-2.61,0.79-2.61s0.72,0.91,0.72,2.19
		L19.41,47.02z M34.6,42.76l-11.92-3.29v-0.38l0.01,0l11.91,3.38L34.6,42.76z M57.75,55.62c0,0.67,0.02,1.97,0.04,3.11
		c-0.41-0.13-1.06-0.33-1.92-0.57l-0.03-2.88L57.75,55.62z M15.09,46.86l-3.44-0.63c0,0-0.1-1.49,1.75-2.28
		C13.4,43.96,15.21,45.01,15.09,46.86z M26.29,47.31l1.96,0.3l-0.02,6.05l-1.94-0.26V47.31z M18.98,30.24l0.17-0.79l-3.12-1.08
		L2.6,34.15v2.1L18,40.16L18.98,30.24z M15.26,33.18l-2.91-0.93l-0.3,5.55l-0.29,0.16l-0.11-0.26l-0.63-5.45l1.22-0.44l3.3,1.14
		L15.26,33.18z M11.58,47.07l3.47,0.6v3.87c-1.17-0.25-2.78-0.58-3.47-0.74V47.07z M42.09,50.42c0.01,0.04,0,0.07,0,0.11v4.88
		c-0.43-0.06-0.99-0.13-1.56-0.21v-5.16c0,0-0.02-0.72,0.83-1.4C41.36,48.64,41.95,49.44,42.09,50.42z M28.23,46.86
		c-0.21-1.46-0.91-2.21-0.91-2.21c-1.04,0.78-1.03,2.03-1.03,2.03l1.96,0.31C28.24,46.94,28.23,46.9,28.23,46.86z M27.26,46.6
		c-0.31,0-0.55-0.3-0.55-0.67c0-0.37,0.25-0.67,0.55-0.67c0.31,0,0.55,0.3,0.55,0.67C27.82,46.29,27.57,46.6,27.26,46.6z
		 M40.3,48.53c-0.34,0-0.62-0.33-0.62-0.73c0-0.4,0.28-0.72,0.62-0.72c0.34,0,0.62,0.32,0.62,0.72
		C40.93,48.2,40.65,48.53,40.3,48.53z M39.35,48.32c0,0,0.58,0.8,0.73,1.78c0,0.03,0,0.07,0,0.11v4.93
		c-0.57-0.08-1.12-0.16-1.56-0.22v-5.2C38.51,49.71,38.49,48.99,39.35,48.32z M30.54,45.4c-0.99,0.75-0.98,1.93-0.98,1.93l1.86,0.29
		c0-0.04-0.01-0.08-0.02-0.12C31.21,46.11,30.54,45.4,30.54,45.4z M30.5,47.24c-0.29,0-0.53-0.28-0.53-0.63
		c0-0.35,0.24-0.63,0.53-0.63c0.29,0,0.52,0.28,0.52,0.63C31.02,46.96,30.78,47.24,30.5,47.24z M29.57,47.92l1.86,0.29v5.86
		l-1.86-0.23V47.92z M79.63,63.53h-0.85v7.47h0.85V63.53z M82.91,63.53h0.8l4.28,6.03v-6.03h0.76v7.47h-0.81l-4.27-5.96v5.96h-0.76
		V63.53z M105.57,63.53v0.82h-2.47v6.64h-0.84v-6.64H99.8v-0.82H105.57z M109.22,70.99h-0.85v-7.47h0.85V70.99z M117.76,63.53v0.82
		h-2.47v6.64h-0.84v-6.64H112v-0.82H117.76z M134.58,63.53v0.82h-2.47v6.64h-0.84v-6.64h-2.46v-0.82H134.58z M142.66,63.53v0.82
		h-4.64v2.25h4.38v0.84h-4.38v2.72h4.65v0.82h-5.48v-7.47H142.66z M169.9,63.52v0.83h-2.47v6.64h-0.84v-6.64h-2.46v-0.83H169.9z
		 M177.98,63.52v0.83h-4.64v2.25h4.38v0.84h-4.38v2.72h4.65v0.82h-5.48v-7.47H177.98z M191.2,63.52v3.17h4.13v-3.17h0.83v7.47h-0.83
		v-3.45h-4.13v3.45h-0.85v-7.47H191.2z M199.31,63.52h0.8l4.27,6.03v-6.03h0.76v7.47h-0.8l-4.28-5.96v5.96h-0.76V63.52z
		 M218.7,63.52v6.64h3.78v0.82h-4.64v-7.47H218.7z M246.86,67.2l2.22-3.67h1.02L247.29,68v2.99h-0.84V68l-2.84-4.47h1.04
		L246.86,67.2z M78.59,75.36h171.43v1.1H78.59V75.36z M150.95,70.32c-1.22,0-1.91-0.75-1.91-2.03c0-2.24,1.34-3.91,3.13-3.91
		c1.31,0,1.91,0.82,1.91,2.04C154.08,68.6,152.79,70.32,150.95,70.32 M152.01,65.1c-1.26,0-2,1.41-2,3.24c0,0.88,0.39,1.24,1.1,1.24
		c1.31,0,1.99-1.54,1.99-3.26C153.11,65.43,152.6,65.1,152.01,65.1 M159.04,62.94c-0.25-0.17-0.53-0.26-0.84-0.26
		c-0.49,0-0.83,0.35-0.97,0.99l-0.16,0.87h1.56l-0.4,0.67h-1.28l-1.01,5.12c-0.21,1.04-0.44,1.65-0.87,2.19l-0.72-0.39
		c0.35-0.49,0.56-1.01,0.74-1.87l0.98-5.04h-0.58l0.13-0.67h0.57l0.15-0.75c0.15-0.74,0.42-1.23,0.86-1.51
		c0.3-0.21,0.65-0.28,1.07-0.28c0.48,0,0.82,0.09,1.11,0.28L159.04,62.94z M162.78,33.33v1.17l-3.32,0.91l6.71,17.69l6.91-17.72
		l-3.69-0.97v-0.97h9.06v0.91l-3.09,0.8l-8.9,21.75h-2.18l-8.8-21.75l-2.79-0.74v-1.07H162.78z M212.5,33.46l11.41,18.59V35.41
		l-3.39-0.91v-0.97h8.36v1.04l-3.02,0.84v21.58h-3.09l-12.79-20.81v18.79l3.42,0.94v1.01h-8.39v-1.01l3.05-0.81v-19.7l-3.05-0.84
		v-1.11H212.5z M245.81,34.11h-1.18l-0.35,1.09c-0.42-0.19-0.83-0.37-1.23-0.54c-0.39-0.17-0.79-0.32-1.18-0.46
		c-0.39-0.14-0.8-0.25-1.23-0.35c-0.42-0.1-0.87-0.16-1.34-0.21c-0.72-0.04-1.45-0.05-2.17-0.02c-0.72,0.03-1.43,0.16-2.1,0.37
		c-0.6,0.17-1.16,0.42-1.69,0.75c-0.53,0.33-1.01,0.75-1.43,1.26c-0.36,0.44-0.65,0.96-0.86,1.53c-0.22,0.57-0.33,1.18-0.35,1.82
		c0,0.47,0.05,0.95,0.14,1.44c0.09,0.49,0.27,0.96,0.53,1.41c0.19,0.36,0.5,0.71,0.91,1.05c0.42,0.34,0.89,0.66,1.42,0.96
		c0.53,0.28,1.11,0.53,1.74,0.77c0.63,0.23,1.26,0.43,1.9,0.57c0.59,0.15,1.2,0.28,1.8,0.4c0.61,0.12,1.22,0.25,1.84,0.4
		c0.6,0.15,1.18,0.32,1.77,0.51c0.58,0.19,1.16,0.43,1.74,0.7c0.32,0.17,0.61,0.4,0.86,0.67c0.26,0.28,0.45,0.59,0.59,0.94
		c0.14,0.35,0.21,0.75,0.21,1.2c0,0.45-0.07,0.94-0.22,1.47c-0.11,0.38-0.29,0.76-0.53,1.13c-0.25,0.37-0.55,0.72-0.91,1.04
		c-0.34,0.3-0.73,0.56-1.18,0.8c-0.45,0.23-0.94,0.39-1.47,0.48c-0.47,0.08-0.95,0.14-1.45,0.16c-0.5,0.02-1.01,0-1.55-0.06
		c-0.53-0.06-1.07-0.19-1.61-0.38c-0.54-0.19-1.08-0.46-1.61-0.8c-0.54-0.34-1.02-0.72-1.45-1.13c-0.44-0.41-0.85-0.86-1.23-1.32
		c-0.36-0.47-0.71-0.95-1.06-1.45c-0.34-0.5-0.66-1.02-0.95-1.55l-1.18,0.19l2.07,7.53h1.37l0.45-1.53
		c0.28,0.15,0.56,0.31,0.86,0.48c0.3,0.17,0.6,0.33,0.89,0.48c0.41,0.19,0.81,0.36,1.21,0.51c0.41,0.15,0.8,0.25,1.18,0.32
		c0.49,0.06,0.97,0.12,1.43,0.18c0.47,0.05,0.93,0.09,1.37,0.11c0.45,0,0.9-0.03,1.37-0.08c0.47-0.05,0.95-0.15,1.44-0.3
		c0.53-0.15,1.08-0.35,1.63-0.61c0.56-0.25,1.09-0.57,1.6-0.96c0.45-0.34,0.85-0.73,1.23-1.18c0.37-0.45,0.7-0.95,0.97-1.5
		c0.15-0.36,0.28-0.78,0.4-1.26c0.12-0.48,0.17-0.97,0.17-1.48c0-0.51-0.06-1.02-0.17-1.55c-0.12-0.52-0.32-1-0.59-1.42
		c-0.3-0.46-0.65-0.87-1.05-1.21c-0.41-0.34-0.85-0.64-1.34-0.89c-0.49-0.25-1.02-0.47-1.59-0.65c-0.57-0.18-1.17-0.36-1.79-0.53
		c-0.68-0.17-1.37-0.32-2.07-0.46c-0.7-0.14-1.39-0.29-2.08-0.46c-0.59-0.15-1.18-0.34-1.75-0.56c-0.58-0.22-1.12-0.52-1.63-0.88
		c-0.23-0.17-0.46-0.37-0.68-0.59c-0.22-0.22-0.4-0.49-0.53-0.8c-0.13-0.31-0.19-0.65-0.19-1.03c0-0.38,0.11-0.82,0.32-1.31
		c0.19-0.38,0.46-0.71,0.8-0.99c0.34-0.28,0.73-0.51,1.18-0.7c0.43-0.17,0.88-0.3,1.37-0.38c0.49-0.09,0.98-0.12,1.47-0.09
		c0.57,0.02,1.1,0.1,1.58,0.25c0.48,0.15,0.94,0.34,1.39,0.57c0.38,0.21,0.77,0.46,1.15,0.73c0.39,0.28,0.79,0.57,1.22,0.89
		l2.52,2.81l0.89-0.45L245.81,34.11z"/>
	<path fill="#9A989A" d="M84.03,81v0.79h-2.37v6.36h-0.8v-6.36h-2.36V81H84.03z M86.02,81v7.15h0.82v-3.3h3.95v3.3h0.8V81h-0.8v3.04
		h-3.95V81H86.02z M94.11,81v7.15h5.25v-0.79h-4.45v-2.61h4.19v-0.81h-4.19v-2.16h4.44V81H94.11z M106.32,81h-0.82v7.15h0.82V81z
		 M108.95,88.14h0.73v-5.71l4.09,5.71h0.77V81h-0.73v5.77L109.72,81h-0.77V88.14z M117.05,88.14h0.73v-5.71l4.09,5.71h0.77V81h-0.73
		v5.77L117.82,81h-0.77V88.14z M134.13,81h-0.95l2.41,7.15H137l2.45-7.15h-0.9l-2.05,6.36h-0.35L134.13,81z M145.39,88.14h0.94
		L143.77,81h-1.42l-2.49,7.15h0.9l0.56-1.75h3.5L145.39,88.14z M142.85,81.79h0.35l1.36,3.78h-2.96L142.85,81.79z M146.93,81v0.79
		h2.36v6.36h0.8v-6.36h2.36V81H146.93z M155.43,81h-0.82v7.15h0.82V81z M166.72,88.14h0.73v-5.71l4.09,5.71h0.77V81h-0.73v5.77
		L167.49,81h-0.77V88.14z M186.58,88.14h0.73v-5.71l4.09,5.71h0.77V81h-0.73v5.77L187.35,81h-0.77V88.14z M195.7,81h-0.82v7.15h0.82
		V81z M198.66,81h-0.95l2.41,7.15h1.42l2.45-7.15h-0.9l-2.05,6.36h-0.35L198.66,81z M205.91,81v7.15h5.25v-0.79h-4.45v-2.61h4.19
		v-0.81h-4.19v-2.16h4.44V81H205.91z M230.1,81h-0.82v7.15h0.82V81z M232.25,81v0.79h2.36v6.36h0.8v-6.36h2.36V81H232.25z
		 M240.09,81h-1l2.72,4.28v2.87h0.8v-2.87L245.3,81h-0.98l-2.12,3.51L240.09,81z M57.35,79.53c1.49-1.03,6.98-5.83-2.77-10.86v-1.88
		c24.49,7.06,4.35,20.83,4.32,20.84c-25.55,18.85-25.29,19.07-25.29,19.07l-0.6-0.43l0.07-10.33l0.54,0.37
		C33.61,96.3,57.21,79.62,57.35,79.53 M59.77,59.32c2.55,0.91,5.2,2.12,7.36,3.75V35.23L33.66,20.81l-0.05,7.88l0.01,0l26.12,10.49
		v19.69C59.74,59.02,59.75,59.17,59.77,59.32 M128.28,80.86c0.5,0,0.95,0.08,1.36,0.22c0.41,0.15,0.76,0.38,1.05,0.68
		c0.29,0.31,0.51,0.69,0.67,1.16c0.16,0.47,0.24,1.01,0.24,1.64c0,0.63-0.08,1.17-0.23,1.63c-0.15,0.46-0.38,0.85-0.66,1.16
		c-0.29,0.31-0.64,0.54-1.05,0.69c-0.41,0.15-0.87,0.23-1.38,0.23c-0.52,0-0.99-0.08-1.41-0.23c-0.42-0.16-0.78-0.39-1.07-0.7
		c-0.3-0.31-0.52-0.7-0.68-1.16c-0.16-0.46-0.24-1-0.24-1.62c0-0.62,0.08-1.16,0.24-1.62c0.16-0.46,0.39-0.85,0.69-1.16
		c0.3-0.31,0.66-0.54,1.07-0.69C127.3,80.93,127.77,80.86,128.28,80.86 M128.28,81.65c-0.31,0-0.61,0.05-0.92,0.15
		c-0.31,0.1-0.58,0.27-0.82,0.5c-0.24,0.23-0.44,0.53-0.59,0.9c-0.15,0.37-0.23,0.82-0.23,1.36c0,0.54,0.08,1,0.23,1.37
		c0.15,0.37,0.35,0.67,0.59,0.9c0.24,0.23,0.52,0.4,0.82,0.5c0.31,0.1,0.61,0.15,0.92,0.15c0.31,0,0.62-0.05,0.92-0.15
		c0.3-0.1,0.57-0.27,0.8-0.5c0.23-0.23,0.42-0.54,0.56-0.91c0.14-0.37,0.21-0.82,0.21-1.36c0-0.54-0.07-0.99-0.22-1.36
		c-0.15-0.37-0.34-0.67-0.57-0.9c-0.23-0.23-0.5-0.4-0.8-0.5C128.89,81.7,128.59,81.65,128.28,81.65 M161.2,80.86
		c0.5,0,0.95,0.08,1.36,0.22c0.41,0.15,0.76,0.38,1.05,0.68c0.29,0.31,0.51,0.69,0.67,1.16c0.16,0.47,0.24,1.01,0.24,1.64
		c0,0.63-0.08,1.17-0.23,1.63c-0.15,0.46-0.38,0.85-0.66,1.16c-0.29,0.31-0.64,0.54-1.05,0.69c-0.41,0.15-0.87,0.23-1.38,0.23
		c-0.52,0-0.99-0.08-1.41-0.23c-0.42-0.16-0.78-0.39-1.07-0.7c-0.3-0.31-0.52-0.7-0.68-1.16c-0.16-0.46-0.24-1-0.24-1.62
		c0-0.62,0.08-1.16,0.24-1.62c0.16-0.46,0.39-0.85,0.69-1.16c0.3-0.31,0.66-0.54,1.07-0.69C160.23,80.93,160.69,80.86,161.2,80.86
		 M161.2,81.65c-0.31,0-0.61,0.05-0.92,0.15c-0.31,0.1-0.58,0.27-0.82,0.5c-0.24,0.23-0.44,0.53-0.59,0.9
		c-0.15,0.37-0.23,0.82-0.23,1.36c0,0.54,0.08,1,0.23,1.37c0.15,0.37,0.35,0.67,0.59,0.9c0.24,0.23,0.52,0.4,0.82,0.5
		c0.31,0.1,0.61,0.15,0.92,0.15c0.31,0,0.62-0.05,0.92-0.15c0.3-0.1,0.57-0.27,0.8-0.5c0.23-0.23,0.42-0.54,0.56-0.91
		c0.14-0.37,0.21-0.82,0.21-1.36c0-0.54-0.07-0.99-0.22-1.36c-0.15-0.37-0.34-0.67-0.57-0.9c-0.23-0.23-0.5-0.4-0.8-0.5
		C161.81,81.7,161.51,81.65,161.2,81.65 M178.47,81v5.13c0,0.36,0.09,0.67,0.25,0.94c0.17,0.27,0.39,0.49,0.66,0.67
		c0.27,0.18,0.57,0.31,0.91,0.4c0.33,0.09,0.66,0.13,0.99,0.13c0.33,0,0.66-0.05,0.99-0.13c0.34-0.09,0.64-0.22,0.91-0.4
		c0.27-0.18,0.49-0.4,0.66-0.67c0.17-0.27,0.25-0.58,0.25-0.94V81h-0.8v4.96c0,0.24-0.06,0.46-0.17,0.64
		c-0.11,0.19-0.26,0.35-0.44,0.48c-0.18,0.13-0.4,0.23-0.64,0.3c-0.24,0.07-0.5,0.1-0.77,0.1c-0.27,0-0.52-0.03-0.76-0.1
		c-0.24-0.06-0.45-0.16-0.64-0.29c-0.18-0.13-0.33-0.29-0.44-0.48c-0.11-0.19-0.17-0.41-0.17-0.66V81H178.47z M216.25,84.81h-2.06
		v3.33h-0.8v-7.12c0.16-0.01,0.39-0.01,0.7-0.01c0.31,0,0.64-0.01,0.98-0.01c0.34,0,0.67,0,0.99,0h0.75c0.74,0,1.32,0.14,1.75,0.41
		c0.43,0.28,0.64,0.72,0.64,1.34c0,0.29-0.05,0.56-0.16,0.8c-0.11,0.24-0.25,0.45-0.44,0.63c-0.19,0.18-0.4,0.32-0.65,0.43
		c-0.25,0.11-0.52,0.17-0.8,0.18l2.51,3.34h-1.03L216.25,84.81z M216.9,84.13c0.19,0,0.37-0.03,0.55-0.09
		c0.18-0.06,0.34-0.14,0.47-0.25c0.13-0.11,0.24-0.24,0.32-0.4c0.08-0.16,0.13-0.34,0.13-0.55c0-0.38-0.14-0.65-0.41-0.81
		c-0.27-0.16-0.64-0.24-1.11-0.24h-0.32h-0.47c-0.17,0-0.36,0-0.55,0c-0.19,0-0.37,0.01-0.55,0.01c-0.17,0-0.33,0.01-0.47,0.01
		c-0.14,0-0.25,0.01-0.32,0.02v2.31H216.9z M224.05,80.86c-0.29,0-0.59,0.04-0.88,0.12c-0.29,0.08-0.55,0.19-0.78,0.35
		c-0.23,0.16-0.42,0.36-0.56,0.6c-0.14,0.24-0.21,0.53-0.21,0.86c0,0.43,0.11,0.77,0.32,1.01c0.21,0.24,0.48,0.43,0.8,0.57
		c0.32,0.14,0.67,0.25,1.05,0.32c0.38,0.08,0.73,0.17,1.05,0.28c0.32,0.11,0.59,0.25,0.8,0.43c0.21,0.18,0.32,0.44,0.32,0.78
		c0,0.23-0.05,0.43-0.15,0.59c-0.1,0.16-0.24,0.3-0.42,0.4c-0.18,0.1-0.39,0.18-0.65,0.22c-0.25,0.05-0.53,0.07-0.83,0.07
		c-0.27,0-0.51-0.04-0.73-0.12c-0.22-0.08-0.42-0.19-0.58-0.35c-0.16-0.16-0.29-0.36-0.39-0.6c-0.09-0.24-0.14-0.53-0.14-0.86h-0.8
		c0,0.37,0.05,0.71,0.15,1.04c0.1,0.33,0.26,0.62,0.47,0.86c0.22,0.25,0.49,0.44,0.82,0.59c0.33,0.15,0.73,0.22,1.2,0.22
		c0.45,0,0.85-0.05,1.2-0.15c0.36-0.1,0.66-0.24,0.91-0.42c0.25-0.18,0.45-0.4,0.58-0.66c0.14-0.26,0.2-0.55,0.2-0.87
		c0-0.35-0.06-0.64-0.19-0.87c-0.13-0.24-0.29-0.43-0.5-0.58c-0.21-0.15-0.44-0.28-0.71-0.37c-0.26-0.1-0.53-0.18-0.81-0.25
		c-0.27-0.07-0.54-0.13-0.8-0.19c-0.26-0.06-0.5-0.14-0.71-0.23c-0.21-0.09-0.37-0.21-0.5-0.34c-0.13-0.13-0.19-0.31-0.19-0.53
		c0-0.16,0.04-0.31,0.13-0.45c0.08-0.14,0.2-0.26,0.34-0.36c0.14-0.1,0.31-0.18,0.5-0.24c0.19-0.06,0.4-0.09,0.62-0.09
		c0.19,0,0.38,0.02,0.57,0.05c0.19,0.03,0.38,0.11,0.55,0.22c0.17,0.12,0.32,0.29,0.46,0.52c0.13,0.23,0.24,0.54,0.31,0.94h0.83
		c-0.05-0.55-0.18-0.99-0.38-1.32c-0.2-0.33-0.43-0.59-0.69-0.77c-0.26-0.18-0.54-0.3-0.83-0.35
		C224.53,80.89,224.27,80.86,224.05,80.86"/>
	<path fill="#FFFFFF" d="M22.32,74.11v-0.39h0.92c0.24,0,0.45-0.18,0.45-0.41v-4.55c0-0.23-0.24-0.41-0.57-0.41v-0.28h2.03v5.24
		c0,0.23,0.2,0.41,0.44,0.41h0.91v0.39H22.32z M30.32,74.2c1.26,0,2.27-0.93,2.27-1.85c0-0.75-0.53-1.36-1.26-1.7
		c0.47-0.24,0.81-0.71,0.81-1.22c0-0.79-0.82-1.45-1.83-1.45c-1.01,0-1.83,0.65-1.83,1.45c0,0.51,0.32,0.95,0.8,1.21
		c-0.73,0.34-1.25,0.96-1.25,1.7C28.04,73.27,29.06,74.2,30.32,74.2 M31.08,73.09c0,0.39-0.34,0.71-0.76,0.71
		c-0.42,0-0.76-0.32-0.76-0.71v-1.5c0-0.39,0.34-0.71,0.76-0.71c0.42,0,0.76,0.32,0.76,0.71V73.09z M30.9,69.94
		c0,0.3-0.26,0.54-0.58,0.54c-0.32,0-0.58-0.24-0.58-0.54v-1.02c0-0.29,0.26-0.54,0.58-0.54c0.32,0,0.58,0.24,0.58,0.54V69.94z
		 M38.46,68.07h-4.27v0.81h0.28c0-0.22,0.21-0.4,0.45-0.4h1.82l-2.26,5.64h1.53L38.46,68.07z M42.17,74.18
		c1.27,0,2.33-0.91,2.33-2.02v-2.19c0-1.11-1.07-2.02-2.33-2.02c-1.23,0-2.3,0.91-2.3,2.02v2.19
		C39.87,73.28,40.93,74.18,42.17,74.18 M43.05,72.86c0,0.47-0.42,0.87-0.87,0.87c-0.42,0-0.85-0.4-0.85-0.87v-3.6
		c0-0.48,0.43-0.86,0.85-0.86c0.46,0,0.87,0.4,0.87,0.86V72.86z M34.03,81.13c-0.64-0.71-0.98-1.63-1-2.57h-0.05h-0.04
		c-0.02,0.93-0.36,1.86-1,2.57c-0.64,0.71-1.49,1.08-2.34,1.11v0.05v0.04c0.85,0.03,1.69,0.39,2.34,1.11c0.64,0.71,0.98,1.64,1,2.57
		h0.05h0.04c0.03-0.93,0.36-1.86,1.01-2.57c0.64-0.71,1.49-1.08,2.33-1.11v-0.05v-0.05C35.51,82.22,34.67,81.85,34.03,81.13"/>
</g>
</svg>
