<?xml version="1.0" encoding="UTF-8" standalone="no"?>
<!DOCTYPE svg PUBLIC "-//W3C//DTD SVG 1.1//EN" "http://www.w3.org/Graphics/SVG/1.1/DTD/svg11.dtd">
<svg xmlns="http://www.w3.org/2000/svg" xmlns:xlink="http://www.w3.org/1999/xlink" version="1.1" width="289.1401pt" height="289.8969pt" viewBox="0 0 289.1401 289.8969">
<g enable-background="new">
<clipPath id="cp0">
<path transform="matrix(1,0,0,-1,-116.9209,433.8266)" d="M 0 .00001206994 L 959.76 .00001206994 L 959.76 540 L 0 540 Z "/>
</clipPath>
<g clip-path="url(#cp0)">
<path transform="matrix(1,0,0,-1,-116.9209,433.8266)" d="M 0 .00001206994 L 959.76 .00001206994 L 959.76 540 L 0 540 Z " fill="#ffffff"/>
</g>
<clipPath id="cp1">
<path transform="matrix(1,0,0,-1,-116.9209,433.8266)" d="M 0 0 L 960 0 L 960 540 L 0 540 Z "/>
</clipPath>
<g clip-path="url(#cp1)">
<path transform="matrix(1,0,0,-1,-116.9209,433.8266)" d="M 0 .0000140816 L 960 .0000140816 L 960 540 L 0 540 Z " fill="#ffffff"/>
<path transform="matrix(.00007874016,0,0,.00007874016,1.1444016,.8312988)" stroke-width="12700" stroke-linecap="butt" stroke-miterlimit="8" stroke-linejoin="miter" fill="none" stroke="#000000" d="M 0 0 L 3657600 0 L 3657600 3657600 L 0 3657600 Z "/>
<path transform="matrix(1,0,0,-1,-116.9209,433.8266)" d="M 123.7104 333.3219 C 123.7104 337.2983 126.9339 340.5219 130.9104 340.5219 C 134.8868 340.5219 138.1104 337.2983 138.1104 333.3219 C 138.1104 329.3454 134.8868 326.1219 130.9104 326.1219 C 126.9339 326.1219 123.7104 329.3454 123.7104 333.3219 Z " fill="#c00000" fill-rule="evenodd"/>
<path transform="matrix(.00007874016,0,0,.00007874016,6.789505,93.30469)" stroke-width="12700" stroke-linecap="butt" stroke-miterlimit="8" stroke-linejoin="miter" fill="none" stroke="#2f528f" d="M 0 91440 C 0 40939.08 40939.08 0 91440 0 C 141940.9 0 182880 40939.08 182880 91440 C 182880 141940.9 141940.9 182880 91440 182880 C 40939.08 182880 0 141940.9 0 91440 Z "/>
<path transform="matrix(1,0,0,-1,-116.9209,433.8266)" d="M 123.7104 309.5545 C 123.7104 313.5309 126.9339 316.7545 130.9104 316.7545 C 134.8868 316.7545 138.1104 313.5309 138.1104 309.5545 C 138.1104 305.578 134.8868 302.3545 130.9104 302.3545 C 126.9339 302.3545 123.7104 305.578 123.7104 309.5545 Z " fill="#c00000" fill-rule="evenodd"/>
<path transform="matrix(.00007874016,0,0,.00007874016,6.789505,117.07211)" stroke-width="12700" stroke-linecap="butt" stroke-miterlimit="8" stroke-linejoin="miter" fill="none" stroke="#2f528f" d="M 0 91440 C 0 40939.08 40939.08 0 91440 0 C 141940.9 0 182880 40939.08 182880 91440 C 182880 141940.9 141940.9 182880 91440 182880 C 40939.08 182880 0 141940.9 0 91440 Z "/>
<path transform="matrix(1,0,0,-1,-116.9209,433.8266)" d="M 123.7104 285.7871 C 123.7104 289.7635 126.9339 292.9871 130.9104 292.9871 C 134.8868 292.9871 138.1104 289.7635 138.1104 285.7871 C 138.1104 281.8106 134.8868 278.5871 130.9104 278.5871 C 126.9339 278.5871 123.7104 281.8106 123.7104 285.7871 Z " fill="#c00000" fill-rule="evenodd"/>
<path transform="matrix(.00007874016,0,0,.00007874016,6.789505,140.83951)" stroke-width="12700" stroke-linecap="butt" stroke-miterlimit="8" stroke-linejoin="miter" fill="none" stroke="#2f528f" d="M 0 91440 C 0 40939.08 40939.08 0 91440 0 C 141940.9 0 182880 40939.08 182880 91440 C 182880 141940.9 141940.9 182880 91440 182880 C 40939.08 182880 0 141940.9 0 91440 Z "/>
<path transform="matrix(1,0,0,-1,-116.9209,433.8266)" d="M 123.7104 262.0197 C 123.7104 265.9961 126.9339 269.2197 130.9104 269.2197 C 134.8868 269.2197 138.1104 265.9961 138.1104 262.0197 C 138.1104 258.0432 134.8868 254.8197 130.9104 254.8197 C 126.9339 254.8197 123.7104 258.0432 123.7104 262.0197 Z " fill="#c00000" fill-rule="evenodd"/>
<path transform="matrix(.00007874016,0,0,.00007874016,6.789505,164.6069)" stroke-width="12700" stroke-linecap="butt" stroke-miterlimit="8" stroke-linejoin="miter" fill="none" stroke="#2f528f" d="M 0 91440 C 0 40939.08 40939.08 0 91440 0 C 141940.9 0 182880 40939.08 182880 91440 C 182880 141940.9 141940.9 182880 91440 182880 C 40939.08 182880 0 141940.9 0 91440 Z "/>
<path transform="matrix(1,0,0,-1,-116.9209,433.8266)" d="M 123.7104 238.2523 C 123.7104 242.2288 126.9339 245.4523 130.9104 245.4523 C 134.8868 245.4523 138.1104 242.2288 138.1104 238.2523 C 138.1104 234.2759 134.8868 231.0523 130.9104 231.0523 C 126.9339 231.0523 123.7104 234.2759 123.7104 238.2523 Z " fill="#c00000" fill-rule="evenodd"/>
<path transform="matrix(.00007874016,0,0,.00007874016,6.789505,188.3743)" stroke-width="12700" stroke-linecap="butt" stroke-miterlimit="8" stroke-linejoin="miter" fill="none" stroke="#2f528f" d="M 0 91440 C 0 40939.08 40939.08 0 91440 0 C 141940.9 0 182880 40939.08 182880 91440 C 182880 141940.9 141940.9 182880 91440 182880 C 40939.08 182880 0 141940.9 0 91440 Z "/>
<path transform="matrix(1,0,0,-1,-116.9209,433.8266)" d="M 149.7794 309.5545 C 149.7794 313.5309 153.0029 316.7545 156.9794 316.7545 C 160.9558 316.7545 164.1794 313.5309 164.1794 309.5545 C 164.1794 305.578 160.9558 302.3545 156.9794 302.3545 C 153.0029 302.3545 149.7794 305.578 149.7794 309.5545 Z " fill="#c00000" fill-opacity=".6" fill-rule="evenodd"/>
<path transform="matrix(.00007874016,0,0,.00007874016,32.858507,117.07211)" stroke-width="12700" stroke-linecap="butt" stroke-miterlimit="8" stroke-linejoin="miter" fill="none" stroke="#2f528f" d="M 0 91440 C 0 40939.08 40939.08 0 91440 0 C 141940.9 0 182880 40939.08 182880 91440 C 182880 141940.9 141940.9 182880 91440 182880 C 40939.08 182880 0 141940.9 0 91440 Z "/>
<path transform="matrix(1,0,0,-1,-116.9209,433.8266)" d="M 149.7794 285.7871 C 149.7794 289.7635 153.0029 292.9871 156.9794 292.9871 C 160.9558 292.9871 164.1794 289.7635 164.1794 285.7871 C 164.1794 281.8106 160.9558 278.5871 156.9794 278.5871 C 153.0029 278.5871 149.7794 281.8106 149.7794 285.7871 Z " fill="#c00000" fill-opacity=".6" fill-rule="evenodd"/>
<path transform="matrix(.00007874016,0,0,.00007874016,32.858507,140.83951)" stroke-width="12700" stroke-linecap="butt" stroke-miterlimit="8" stroke-linejoin="miter" fill="none" stroke="#2f528f" d="M 0 91440 C 0 40939.08 40939.08 0 91440 0 C 141940.9 0 182880 40939.08 182880 91440 C 182880 141940.9 141940.9 182880 91440 182880 C 40939.08 182880 0 141940.9 0 91440 Z "/>
<path transform="matrix(1,0,0,-1,-116.9209,433.8266)" d="M 149.7794 262.0197 C 149.7794 265.9961 153.0029 269.2197 156.9794 269.2197 C 160.9558 269.2197 164.1794 265.9961 164.1794 262.0197 C 164.1794 258.0432 160.9558 254.8197 156.9794 254.8197 C 153.0029 254.8197 149.7794 258.0432 149.7794 262.0197 Z " fill="#c00000" fill-opacity=".6" fill-rule="evenodd"/>
<path transform="matrix(.00007874016,0,0,.00007874016,32.858507,164.6069)" stroke-width="12700" stroke-linecap="butt" stroke-miterlimit="8" stroke-linejoin="miter" fill="none" stroke="#2f528f" d="M 0 91440 C 0 40939.08 40939.08 0 91440 0 C 141940.9 0 182880 40939.08 182880 91440 C 182880 141940.9 141940.9 182880 91440 182880 C 40939.08 182880 0 141940.9 0 91440 Z "/>
<path transform="matrix(1,0,0,-1,-116.9209,433.8266)" d="M 175.8483 285.7871 C 175.8483 289.7635 179.0719 292.9871 183.0483 292.9871 C 187.0248 292.9871 190.2483 289.7635 190.2483 285.7871 C 190.2483 281.8106 187.0248 278.5871 183.0483 278.5871 C 179.0719 278.5871 175.8483 281.8106 175.8483 285.7871 Z " fill="#c00000" fill-opacity=".298" fill-rule="evenodd"/>
<path transform="matrix(.00007874016,0,0,.00007874016,58.9274,140.83951)" stroke-width="12700" stroke-linecap="butt" stroke-miterlimit="8" stroke-linejoin="miter" fill="none" stroke="#2f528f" d="M 0 91440 C 0 40939.08 40939.08 0 91440 0 C 141940.9 0 182880 40939.08 182880 91440 C 182880 141940.9 141940.9 182880 91440 182880 C 40939.08 182880 0 141940.9 0 91440 Z "/>
<path transform="matrix(1,0,0,-1,-116.9209,433.8266)" d="M 174.4828 262.4044 C 174.4828 266.3809 177.7064 269.6044 181.6828 269.6044 C 185.6593 269.6044 188.8828 266.3809 188.8828 262.4044 C 188.8828 258.428 185.6593 255.2044 181.6828 255.2044 C 177.7064 255.2044 174.4828 258.428 174.4828 262.4044 Z " fill="#c00000" fill-opacity=".298" fill-rule="evenodd"/>
<path transform="matrix(.00007874016,0,0,.00007874016,57.561906,164.2222)" stroke-width="12700" stroke-linecap="butt" stroke-miterlimit="8" stroke-linejoin="miter" fill="none" stroke="#2f528f" d="M 0 91440 C 0 40939.08 40939.08 0 91440 0 C 141940.9 0 182880 40939.08 182880 91440 C 182880 141940.9 141940.9 182880 91440 182880 C 40939.08 182880 0 141940.9 0 91440 Z "/>
<path transform="matrix(1,0,0,-1,-116.9209,433.8266)" d="M 175.8483 308.2661 C 175.8483 312.2426 179.0719 315.4661 183.0483 315.4661 C 187.0248 315.4661 190.2483 312.2426 190.2483 308.2661 C 190.2483 304.2897 187.0248 301.0661 183.0483 301.0661 C 179.0719 301.0661 175.8483 304.2897 175.8483 308.2661 Z " fill="#c00000" fill-opacity=".298" fill-rule="evenodd"/>
<path transform="matrix(.00007874016,0,0,.00007874016,58.9274,118.360507)" stroke-width="12700" stroke-linecap="butt" stroke-miterlimit="8" stroke-linejoin="miter" fill="none" stroke="#2f528f" d="M 0 91440 C 0 40939.08 40939.08 0 91440 0 C 141940.9 0 182880 40939.08 182880 91440 C 182880 141940.9 141940.9 182880 91440 182880 C 40939.08 182880 0 141940.9 0 91440 Z "/>
<path transform="matrix(1,0,0,-1,-116.9209,433.8266)" d="M 201.9173 285.7871 C 201.9173 289.7635 205.1409 292.9871 209.1173 292.9871 C 213.0938 292.9871 216.3173 289.7635 216.3173 285.7871 C 216.3173 281.8106 213.0938 278.5871 209.1173 278.5871 C 205.1409 278.5871 201.9173 281.8106 201.9173 285.7871 Z " fill="#d6d6d6" fill-rule="evenodd"/>
<path transform="matrix(.00007874016,0,0,.00007874016,84.9964,140.83951)" stroke-width="12700" stroke-linecap="butt" stroke-miterlimit="8" stroke-linejoin="miter" fill="none" stroke="#2f528f" d="M 0 91440 C 0 40939.08 40939.08 0 91440 0 C 141940.9 0 182880 40939.08 182880 91440 C 182880 141940.9 141940.9 182880 91440 182880 C 40939.08 182880 0 141940.9 0 91440 Z "/>
<path transform="matrix(.00007874016,0,0,.00007874016,19.080704,105.59589)" stroke-width="6350" stroke-linecap="butt" stroke-miterlimit="8" stroke-linejoin="miter" fill="none" stroke="#000000" d="M 0 0 L 201760 172530 "/>
<path transform="matrix(.00007874016,0,0,.00007874016,19.080704,105.59589)" stroke-width="6350" stroke-linecap="butt" stroke-miterlimit="8" stroke-linejoin="miter" fill="none" stroke="#000000" d="M 0 0 L 174978 539034 "/>
<path transform="matrix(.00007874016,0,0,.00007874016,19.080704,105.59589)" stroke-width="6350" stroke-linecap="butt" stroke-miterlimit="8" stroke-linejoin="miter" fill="none" stroke="#000000" d="M 0 0 L 201760 905538 "/>
<path transform="matrix(.00007874016,0,0,.00007874016,21.189499,124.272098)" stroke-width="6350" stroke-linecap="butt" stroke-miterlimit="8" stroke-linejoin="miter" fill="none" stroke="#000000" d="M 0 0 L 148196 1 "/>
<path transform="matrix(.00007874016,0,0,-.00007874016,21.189499,148.03949)" stroke-width="6350" stroke-linecap="butt" stroke-miterlimit="8" stroke-linejoin="miter" fill="none" stroke="#000000" d="M 0 0 L 148196 301846 "/>
<path transform="matrix(.00007874016,0,0,-.00007874016,21.189499,171.80689)" stroke-width="6350" stroke-linecap="butt" stroke-miterlimit="8" stroke-linejoin="miter" fill="none" stroke="#000000" d="M 0 0 L 148196 603692 "/>
<path transform="matrix(.00007874016,0,0,-.00007874016,21.189499,195.5743)" stroke-width="6350" stroke-linecap="butt" stroke-miterlimit="8" stroke-linejoin="miter" fill="none" stroke="#000000" d="M 0 0 L 148196 905538 "/>
<path transform="matrix(.00007874016,0,0,.00007874016,21.189499,148.03949)" stroke-width="6350" stroke-linecap="butt" stroke-miterlimit="8" stroke-linejoin="miter" fill="none" stroke="#000000" d="M 0 0 L 148196 1 "/>
<path transform="matrix(.00007874016,0,0,.00007874016,21.189499,148.03949)" stroke-width="6350" stroke-linecap="butt" stroke-miterlimit="8" stroke-linejoin="miter" fill="none" stroke="#000000" d="M 0 0 L 148196 301846 "/>
<path transform="matrix(.00007874016,0,0,-.00007874016,21.189499,171.80689)" stroke-width="6350" stroke-linecap="butt" stroke-miterlimit="8" stroke-linejoin="miter" fill="none" stroke="#000000" d="M 0 0 L 174978 237188 "/>
<path transform="matrix(.00007874016,0,0,-.00007874016,21.189499,195.5743)" stroke-width="6350" stroke-linecap="butt" stroke-miterlimit="8" stroke-linejoin="miter" fill="none" stroke="#000000" d="M 0 0 L 174978 539034 "/>
<path transform="matrix(.00007874016,0,0,.00007874016,21.189499,171.80689)" stroke-width="6350" stroke-linecap="butt" stroke-miterlimit="8" stroke-linejoin="miter" fill="none" stroke="#000000" d="M 0 0 L 148196 1 "/>
<path transform="matrix(.00007874016,0,0,.00007874016,47.2585,124.272098)" stroke-width="6350" stroke-linecap="butt" stroke-miterlimit="8" stroke-linejoin="miter" fill="none" stroke="#000000" d="M 0 0 L 148196 16362 "/>
<path transform="matrix(.00007874016,0,0,.00007874016,45.149599,129.36331)" stroke-width="6350" stroke-linecap="butt" stroke-miterlimit="8" stroke-linejoin="miter" fill="none" stroke="#000000" d="M 0 0 L 174978 237188 "/>
<path transform="matrix(.00007874016,0,0,.00007874016,45.149599,129.36331)" stroke-width="6350" stroke-linecap="butt" stroke-miterlimit="8" stroke-linejoin="miter" fill="none" stroke="#000000" d="M 0 0 L 157636 534148 "/>
<path transform="matrix(.00007874016,0,0,-.00007874016,47.2585,148.03949)" stroke-width="6350" stroke-linecap="butt" stroke-miterlimit="8" stroke-linejoin="miter" fill="none" stroke="#000000" d="M 0 0 L 148196 285484 "/>
<path transform="matrix(.00007874016,0,0,.00007874016,47.2585,148.03949)" stroke-width="6350" stroke-linecap="butt" stroke-miterlimit="8" stroke-linejoin="miter" fill="none" stroke="#000000" d="M 0 0 L 148196 1 "/>
<path transform="matrix(.00007874016,0,0,-.00007874016,47.2585,171.80689)" stroke-width="6350" stroke-linecap="butt" stroke-miterlimit="8" stroke-linejoin="miter" fill="none" stroke="#000000" d="M 0 0 L 148196 587330 "/>
<path transform="matrix(.00007874016,0,0,-.00007874016,47.2585,171.80689)" stroke-width="6350" stroke-linecap="butt" stroke-miterlimit="8" stroke-linejoin="miter" fill="none" stroke="#000000" d="M 0 0 L 148196 301846 "/>
<path transform="matrix(.00007874016,0,0,-.00007874016,47.2585,171.80689)" stroke-width="6350" stroke-linecap="butt" stroke-miterlimit="8" stroke-linejoin="miter" fill="none" stroke="#000000" d="M 0 0 L 130854 4886 "/>
<path transform="matrix(.00007874016,0,0,.00007874016,71.2186,130.65161)" stroke-width="6350" stroke-linecap="butt" stroke-miterlimit="8" stroke-linejoin="miter" fill="none" stroke="#000000" d="M 0 0 L 174978 220826 "/>
<path transform="matrix(.00007874016,0,0,.00007874016,73.32741,148.03949)" stroke-width="6350" stroke-linecap="butt" stroke-miterlimit="8" stroke-linejoin="miter" fill="none" stroke="#000000" d="M 0 0 L 148196 1 "/>
<path transform="matrix(.00007874016,0,0,-.00007874016,71.9619,171.42221)" stroke-width="6350" stroke-linecap="butt" stroke-miterlimit="8" stroke-linejoin="miter" fill="none" stroke="#000000" d="M 0 0 L 165538 296960 "/>
<path transform="matrix(1,0,0,-1,-116.9209,433.8266)" d="M 238.2041 219.6896 C 232.4638 217.8096 227.1774 227.4898 226.3966 241.3111 C 226.0802 246.9116 226.5531 252.6058 227.7398 257.4825 C 223.6942 262.65 222.1566 274.7253 224.3056 284.4535 C 224.6814 286.1546 225.1577 287.7158 225.7196 289.0885 C 222.3661 293.1131 221.0036 302.916 222.6765 310.984 C 223.1395 313.217 223.8091 315.1649 224.6339 316.6781 C 221.4625 323.1649 221.0708 334.6274 223.7589 342.2804 C 224.8887 345.4969 226.447 347.6647 228.1666 348.4122 C 229.3712 359.0408 233.9337 365.3108 238.3574 362.4168 C 238.7293 362.1735 239.0937 361.8682 239.4479 361.5033 C 244.0573 370.0274 250.664 367.9407 254.2043 356.8425 C 255.3063 353.3877 256.0199 349.3072 256.276 344.9949 C 261.235 344.899 265.2228 335.135 265.183 323.1863 C 265.1698 319.1942 264.6983 315.2888 263.8209 311.9024 C 269.3806 307.8609 272.523 293.7639 270.8396 280.4159 C 270.1342 274.8218 268.6423 269.9885 266.6184 266.7402 C 270.0424 253.0735 268.2005 235.3346 262.5044 227.1192 C 262.4326 227.0157 262.3604 226.9139 262.2877 226.814 C 262.7226 217.8697 260.0715 209.7679 256.3663 208.7181 C 254.3914 208.1585 252.4147 209.728 250.963 213.0083 C 249.0691 205.2638 244.9123 202.6623 241.6785 207.1977 C 239.8128 209.8142 238.5795 214.4032 238.3577 219.5535 Z " fill="#d6d6d6" fill-rule="evenodd"/>
<path transform="matrix(0,-.00007874016,.00007874016,0,104.8813,228.7229)" stroke-width="12700" stroke-linecap="butt" stroke-miterlimit="8" stroke-linejoin="miter" fill="none" stroke="#000000" d="M 185240.8 208304.5 C 161364.4 135402.5 284303.7 68264.87 459833.5 58348.38 C 530960 54330.12 603276.3 60336.98 665210.7 75407.79 C 730837.4 24028.32 884194 4501.511 1007742 31793.43 C 1029346 36565.75 1049174 42614.34 1066607 49750.78 C 1117719 7161.129 1242216 -10141.99 1344679 11103.19 C 1373038 16983.29 1397777 25487.45 1416994 35962.21 C 1499377 -4314.036 1644951 -9289.145 1742144 24849.99 C 1782993 39198.53 1810525 58989.1 1820018 80828.49 C 1955001 96125.89 2034630 154070.4 1997876 210251.2 C 1994786 214974.3 1990910 219602 1986275 224100.9 C 2094531 282640.3 2068030 366544.7 1927082 411506.6 C 1883207 425502.7 1831384 434564.4 1776618 437817 C 1775401 500796.6 1651397 551442.1 1499649 550936.8 C 1448950 550768.1 1399351 544780.7 1356343 533637.6 C 1305016 604245.5 1125985 644153.9 956464.5 622775.4 C 885419.9 613815.8 824036.9 594868.7 782783.5 569165.2 C 609216.1 612650.8 383931.7 589259 279596.8 516917.9 C 278281.9 516006.2 276989.9 515088.8 275720.9 514165.8 C 162128.2 519688.7 59235.06 486020 45902.75 438964.6 C 38796.38 413883.3 58728.81 388779 100388.2 370341.9 C 2033.706 346290.3 -31005.46 293498.7 26593.18 252428.5 C 59822.7 228734.5 118103 213071.1 183512.4 210254.8 Z "/>
<path transform="matrix(0,-.00007874016,.00007874016,0,104.8813,228.7229)" stroke-width="12700" stroke-linecap="butt" stroke-miterlimit="8" stroke-linejoin="miter" fill="none" stroke="#000000" d="M 222906.4 379456.2 C 180917.2 380821.8 138932.5 376790.3 102589.5 367903 M 329063.7 505888.5 C 312178.6 508680.8 294479.4 510539.9 276422.5 511417.9 M 782666.1 566640.3 C 769966 558727.4 759332.9 550271.7 750947.9 541417.3 M 1369214 503743.1 C 1367347 513128.7 1363102 522405.7 1356549 531419.4 M 1621047 332736.3 C 1716251 351983.4 1776331 392223.7 1775482 436172.9 M 1985306 222568.3 C 1969888 237533.8 1946351 250809.6 1916540 261354.5 M 1820300 78654.14 C 1822927 84697.56 1824143 90831.81 1823930 96971.86 M 1381136 57287.35 C 1390096 48836.54 1401962 40968 1416364 33926.71 M 1051645 68420.11 C 1055301 61436.39 1061032 54668.8 1068708 48273.24 M 664967 75262.13 C 687376.7 80715.19 708108.8 87278.56 726707.7 94808.02 M 196022.8 228874 C 191131 222147.9 187528.2 215271.6 185248 208309.5 "/>
<text xml:space="preserve" transform="matrix(0 -.24 .24 0 675.5931 196.7066)" font-size="75" font-family="ArialMT"><tspan y="-2250" x="0 37.5 79.170009 120.84001 175.00502 191.67003 233.34003 275.01005 316.68006">knowledge</tspan></text>
<path transform="matrix(1,0,0,-1,-116.9209,433.8266)" d="M 340.9487 210.528 C 340.9487 214.5044 344.1723 217.728 348.1487 217.728 C 352.1252 217.728 355.3487 214.5044 355.3487 210.528 C 355.3487 206.5515 352.1252 203.328 348.1487 203.328 C 344.1723 203.328 340.9487 206.5515 340.9487 210.528 Z " fill="#c00000" fill-rule="evenodd"/>
<path transform="matrix(.00007874016,0,0,.00007874016,224.0278,216.0986)" stroke-width="12700" stroke-linecap="butt" stroke-miterlimit="8" stroke-linejoin="miter" fill="none" stroke="#2f528f" d="M 0 91440 C 0 40939.08 40939.08 0 91440 0 C 141940.9 0 182880 40939.08 182880 91440 C 182880 141940.9 141940.9 182880 91440 182880 C 40939.08 182880 0 141940.9 0 91440 Z "/>
<path transform="matrix(1,0,0,-1,-116.9209,433.8266)" d="M 340.9487 186.7606 C 340.9487 190.737 344.1723 193.9606 348.1487 193.9606 C 352.1252 193.9606 355.3487 190.737 355.3487 186.7606 C 355.3487 182.7841 352.1252 179.5606 348.1487 179.5606 C 344.1723 179.5606 340.9487 182.7841 340.9487 186.7606 Z " fill="#c00000" fill-rule="evenodd"/>
<path transform="matrix(.00007874016,0,0,.00007874016,224.0278,239.866)" stroke-width="12700" stroke-linecap="butt" stroke-miterlimit="8" stroke-linejoin="miter" fill="none" stroke="#2f528f" d="M 0 91440 C 0 40939.08 40939.08 0 91440 0 C 141940.9 0 182880 40939.08 182880 91440 C 182880 141940.9 141940.9 182880 91440 182880 C 40939.08 182880 0 141940.9 0 91440 Z "/>
<path transform="matrix(1,0,0,-1,-116.9209,433.8266)" d="M 340.9487 162.9932 C 340.9487 166.9696 344.1723 170.1932 348.1487 170.1932 C 352.1252 170.1932 355.3487 166.9696 355.3487 162.9932 C 355.3487 159.0167 352.1252 155.7932 348.1487 155.7932 C 344.1723 155.7932 340.9487 159.0167 340.9487 162.9932 Z " fill="#c00000" fill-rule="evenodd"/>
<path transform="matrix(.00007874016,0,0,.00007874016,224.0278,263.6334)" stroke-width="12700" stroke-linecap="butt" stroke-miterlimit="8" stroke-linejoin="miter" fill="none" stroke="#2f528f" d="M 0 91440 C 0 40939.08 40939.08 0 91440 0 C 141940.9 0 182880 40939.08 182880 91440 C 182880 141940.9 141940.9 182880 91440 182880 C 40939.08 182880 0 141940.9 0 91440 Z "/>
<path transform="matrix(1,0,0,-1,-116.9209,433.8266)" d="M 364.6547 199.6794 C 364.6547 203.6558 367.8783 206.8794 371.8547 206.8794 C 375.8312 206.8794 379.0547 203.6558 379.0547 199.6794 C 379.0547 195.7029 375.8312 192.4794 371.8547 192.4794 C 367.8783 192.4794 364.6547 195.7029 364.6547 199.6794 Z " fill="#c00000" fill-opacity=".298" fill-rule="evenodd"/>
<path transform="matrix(.00007874016,0,0,.00007874016,247.7338,226.9472)" stroke-width="12700" stroke-linecap="butt" stroke-miterlimit="8" stroke-linejoin="miter" fill="none" stroke="#2f528f" d="M 0 91440 C 0 40939.08 40939.08 0 91440 0 C 141940.9 0 182880 40939.08 182880 91440 C 182880 141940.9 141940.9 182880 91440 182880 C 40939.08 182880 0 141940.9 0 91440 Z "/>
<path transform="matrix(1,0,0,-1,-116.9209,433.8266)" d="M 364.3896 173.6697 C 364.3896 177.6461 367.6132 180.8697 371.5896 180.8697 C 375.5661 180.8697 378.7896 177.6461 378.7896 173.6697 C 378.7896 169.6932 375.5661 166.4697 371.5896 166.4697 C 367.6132 166.4697 364.3896 169.6932 364.3896 173.6697 Z " fill="#c00000" fill-opacity=".298" fill-rule="evenodd"/>
<path transform="matrix(.00007874016,0,0,.00007874016,247.46869,252.9569)" stroke-width="12700" stroke-linecap="butt" stroke-miterlimit="8" stroke-linejoin="miter" fill="none" stroke="#2f528f" d="M 0 91440 C 0 40939.08 40939.08 0 91440 0 C 141940.9 0 182880 40939.08 182880 91440 C 182880 141940.9 141940.9 182880 91440 182880 C 40939.08 182880 0 141940.9 0 91440 Z "/>
<path transform="matrix(1,0,0,-1,-116.9209,433.8266)" d="M 386.2547 187.0688 C 386.2547 191.0453 389.4783 194.2688 393.4547 194.2688 C 397.4312 194.2688 400.6547 191.0453 400.6547 187.0688 C 400.6547 183.0924 397.4312 179.8688 393.4547 179.8688 C 389.4783 179.8688 386.2547 183.0924 386.2547 187.0688 Z " fill="#d6d6d6" fill-opacity=".298" fill-rule="evenodd"/>
<path transform="matrix(.00007874016,0,0,.00007874016,269.3338,239.5578)" stroke-width="12700" stroke-linecap="butt" stroke-miterlimit="8" stroke-linejoin="miter" fill="none" stroke="#2f528f" d="M 0 91440 C 0 40939.08 40939.08 0 91440 0 C 141940.9 0 182880 40939.08 182880 91440 C 182880 141940.9 141940.9 182880 91440 182880 C 40939.08 182880 0 141940.9 0 91440 Z "/>
<path transform="matrix(.00007874016,0,0,.00007874016,238.4278,223.2986)" stroke-width="6350" stroke-linecap="butt" stroke-miterlimit="8" stroke-linejoin="miter" fill="none" stroke="#000000" d="M 0 0 L 144968 73119 "/>
<path transform="matrix(.00007874016,0,0,.00007874016,238.4278,223.2986)" stroke-width="6350" stroke-linecap="butt" stroke-miterlimit="8" stroke-linejoin="miter" fill="none" stroke="#000000" d="M 0 0 L 114819 468100 "/>
<path transform="matrix(.00007874016,0,0,.00007874016,238.4278,223.2986)" stroke-width="6350" stroke-linecap="butt" stroke-miterlimit="8" stroke-linejoin="miter" fill="none" stroke="#000000" d="M 0 0 L 118186 137777 "/>
<path transform="matrix(.00007874016,0,0,-.00007874016,238.4278,247.066)" stroke-width="6350" stroke-linecap="butt" stroke-miterlimit="8" stroke-linejoin="miter" fill="none" stroke="#000000" d="M 0 0 L 118186 164069 "/>
<path transform="matrix(.00007874016,0,0,-.00007874016,238.4278,270.8334)" stroke-width="6350" stroke-linecap="butt" stroke-miterlimit="8" stroke-linejoin="miter" fill="none" stroke="#000000" d="M 0 0 L 118186 465915 "/>
<path transform="matrix(.00007874016,0,0,.00007874016,238.4278,247.066)" stroke-width="6350" stroke-linecap="butt" stroke-miterlimit="8" stroke-linejoin="miter" fill="none" stroke="#000000" d="M 0 0 L 114819 166254 "/>
<path transform="matrix(.00007874016,0,0,.00007874016,262.1338,234.1472)" stroke-width="6350" stroke-linecap="butt" stroke-miterlimit="8" stroke-linejoin="miter" fill="none" stroke="#000000" d="M 0 0 L 91440 160154 "/>
<path transform="matrix(.00007874016,0,0,-.00007874016,261.8687,260.15693)" stroke-width="6350" stroke-linecap="butt" stroke-miterlimit="8" stroke-linejoin="miter" fill="none" stroke="#000000" d="M 0 0 L 94807 170169 "/>
<path transform="matrix(.00007874016,0,0,-.00007874016,238.4278,270.8334)" stroke-width="6350" stroke-linecap="butt" stroke-miterlimit="8" stroke-linejoin="miter" fill="none" stroke="#000000" d="M 0 0 L 114819 135592 "/>
<path transform="matrix(1,0,0,-1,-116.9209,433.8266)" d="M 305.7814 359.6506 C 302.9726 359.6506 300.6956 361.9276 300.6956 364.7365 L 300.6956 410.3018 C 300.6956 413.1106 302.9726 415.3876 305.7814 415.3876 L 326.1239 415.3876 C 328.9327 415.3876 331.2097 413.1106 331.2097 410.3018 L 331.2097 364.7365 C 331.2097 361.9276 328.9327 359.6506 326.1239 359.6506 Z " fill="#d6d6d6" fill-rule="evenodd"/>
<path transform="matrix(0,-.00007874016,.00007874016,0,183.77469,74.175998)" stroke-width="12700" stroke-linecap="butt" stroke-miterlimit="8" stroke-linejoin="miter" fill="none" stroke="#000000" d="M 0 64589.84 C 0 28917.86 28917.84 0 64589.81 0 L 643269.2 0 C 678941.2 0 707859 28917.86 707859 64589.84 L 707859 322939.1 C 707859 358611.1 678941.2 387529 643269.2 387529 L 64589.81 387529 C 28917.84 387529 0 358611.1 0 322939.1 Z "/>
<text xml:space="preserve" transform="matrix(0 -.24 .24 0 746.2317 63.746614)" font-size="75" font-family="ArialMT"><tspan y="-2250" x="0 41.670003 83.340007 104.16">data</tspan></text>
<path transform="matrix(1,0,0,-1,-116.9209,433.8266)" d="M 338.7757 310.488 C 338.7757 314.4644 341.9992 317.688 345.9757 317.688 C 349.9521 317.688 353.1757 314.4644 353.1757 310.488 C 353.1757 306.5115 349.9521 303.288 345.9757 303.288 C 341.9992 303.288 338.7757 306.5115 338.7757 310.488 Z " fill="#c00000" fill-rule="evenodd"/>
<path transform="matrix(.00007874016,0,0,.00007874016,221.8548,116.13861)" stroke-width="12700" stroke-linecap="butt" stroke-miterlimit="8" stroke-linejoin="miter" fill="none" stroke="#2f528f" d="M 0 91440 C 0 40939.08 40939.08 0 91440 0 C 141940.9 0 182880 40939.08 182880 91440 C 182880 141940.9 141940.9 182880 91440 182880 C 40939.08 182880 0 141940.9 0 91440 Z "/>
<path transform="matrix(1,0,0,-1,-116.9209,433.8266)" d="M 338.7757 286.7206 C 338.7757 290.697 341.9992 293.9206 345.9757 293.9206 C 349.9521 293.9206 353.1757 290.697 353.1757 286.7206 C 353.1757 282.7441 349.9521 279.5206 345.9757 279.5206 C 341.9992 279.5206 338.7757 282.7441 338.7757 286.7206 Z " fill="#c00000" fill-rule="evenodd"/>
<path transform="matrix(.00007874016,0,0,.00007874016,221.8548,139.906)" stroke-width="12700" stroke-linecap="butt" stroke-miterlimit="8" stroke-linejoin="miter" fill="none" stroke="#2f528f" d="M 0 91440 C 0 40939.08 40939.08 0 91440 0 C 141940.9 0 182880 40939.08 182880 91440 C 182880 141940.9 141940.9 182880 91440 182880 C 40939.08 182880 0 141940.9 0 91440 Z "/>
<path transform="matrix(1,0,0,-1,-116.9209,433.8266)" d="M 338.7757 262.9532 C 338.7757 266.9296 341.9992 270.1532 345.9757 270.1532 C 349.9521 270.1532 353.1757 266.9296 353.1757 262.9532 C 353.1757 258.9767 349.9521 255.7532 345.9757 255.7532 C 341.9992 255.7532 338.7757 258.9767 338.7757 262.9532 Z " fill="#c00000" fill-rule="evenodd"/>
<path transform="matrix(.00007874016,0,0,.00007874016,221.8548,163.6734)" stroke-width="12700" stroke-linecap="butt" stroke-miterlimit="8" stroke-linejoin="miter" fill="none" stroke="#2f528f" d="M 0 91440 C 0 40939.08 40939.08 0 91440 0 C 141940.9 0 182880 40939.08 182880 91440 C 182880 141940.9 141940.9 182880 91440 182880 C 40939.08 182880 0 141940.9 0 91440 Z "/>
<path transform="matrix(1,0,0,-1,-116.9209,433.8266)" d="M 362.4816 299.6394 C 362.4816 303.6158 365.7052 306.8394 369.6816 306.8394 C 373.6581 306.8394 376.8816 303.6158 376.8816 299.6394 C 376.8816 295.6629 373.6581 292.4394 369.6816 292.4394 C 365.7052 292.4394 362.4816 295.6629 362.4816 299.6394 Z " fill="#c00000" fill-opacity=".298" fill-rule="evenodd"/>
<path transform="matrix(.00007874016,0,0,.00007874016,245.5607,126.98721)" stroke-width="12700" stroke-linecap="butt" stroke-miterlimit="8" stroke-linejoin="miter" fill="none" stroke="#2f528f" d="M 0 91440 C 0 40939.08 40939.08 0 91440 0 C 141940.9 0 182880 40939.08 182880 91440 C 182880 141940.9 141940.9 182880 91440 182880 C 40939.08 182880 0 141940.9 0 91440 Z "/>
<path transform="matrix(1,0,0,-1,-116.9209,433.8266)" d="M 362.2165 273.6297 C 362.2165 277.6061 365.4401 280.8297 369.4165 280.8297 C 373.393 280.8297 376.6165 277.6061 376.6165 273.6297 C 376.6165 269.6532 373.393 266.4297 369.4165 266.4297 C 365.4401 266.4297 362.2165 269.6532 362.2165 273.6297 Z " fill="#c00000" fill-opacity=".298" fill-rule="evenodd"/>
<path transform="matrix(.00007874016,0,0,.00007874016,245.2956,152.99689)" stroke-width="12700" stroke-linecap="butt" stroke-miterlimit="8" stroke-linejoin="miter" fill="none" stroke="#2f528f" d="M 0 91440 C 0 40939.08 40939.08 0 91440 0 C 141940.9 0 182880 40939.08 182880 91440 C 182880 141940.9 141940.9 182880 91440 182880 C 40939.08 182880 0 141940.9 0 91440 Z "/>
<path transform="matrix(1,0,0,-1,-116.9209,433.8266)" d="M 384.0816 287.0288 C 384.0816 291.0053 387.3052 294.2288 391.2816 294.2288 C 395.2581 294.2288 398.4816 291.0053 398.4816 287.0288 C 398.4816 283.0524 395.2581 279.8288 391.2816 279.8288 C 387.3052 279.8288 384.0816 283.0524 384.0816 287.0288 Z " fill="#d6d6d6" fill-opacity=".298" fill-rule="evenodd"/>
<path transform="matrix(.00007874016,0,0,.00007874016,267.1607,139.59781)" stroke-width="12700" stroke-linecap="butt" stroke-miterlimit="8" stroke-linejoin="miter" fill="none" stroke="#2f528f" d="M 0 91440 C 0 40939.08 40939.08 0 91440 0 C 141940.9 0 182880 40939.08 182880 91440 C 182880 141940.9 141940.9 182880 91440 182880 C 40939.08 182880 0 141940.9 0 91440 Z "/>
<path transform="matrix(.00007874016,0,0,.00007874016,236.25479,123.33859)" stroke-width="6350" stroke-linecap="butt" stroke-miterlimit="8" stroke-linejoin="miter" fill="none" stroke="#000000" d="M 0 0 L 144968 73119 "/>
<path transform="matrix(.00007874016,0,0,.00007874016,236.25479,123.33859)" stroke-width="6350" stroke-linecap="butt" stroke-miterlimit="8" stroke-linejoin="miter" fill="none" stroke="#000000" d="M 0 0 L 114819 468100 "/>
<path transform="matrix(.00007874016,0,0,.00007874016,236.25479,123.33859)" stroke-width="6350" stroke-linecap="butt" stroke-miterlimit="8" stroke-linejoin="miter" fill="none" stroke="#000000" d="M 0 0 L 118186 137777 "/>
<path transform="matrix(.00007874016,0,0,-.00007874016,236.25479,147.10599)" stroke-width="6350" stroke-linecap="butt" stroke-miterlimit="8" stroke-linejoin="miter" fill="none" stroke="#000000" d="M 0 0 L 118186 164069 "/>
<path transform="matrix(.00007874016,0,0,-.00007874016,236.25479,170.87342)" stroke-width="6350" stroke-linecap="butt" stroke-miterlimit="8" stroke-linejoin="miter" fill="none" stroke="#000000" d="M 0 0 L 118186 465915 "/>
<path transform="matrix(.00007874016,0,0,.00007874016,236.25479,147.10599)" stroke-width="6350" stroke-linecap="butt" stroke-miterlimit="8" stroke-linejoin="miter" fill="none" stroke="#000000" d="M 0 0 L 114819 166254 "/>
<path transform="matrix(.00007874016,0,0,.00007874016,259.9607,134.1872)" stroke-width="6350" stroke-linecap="butt" stroke-miterlimit="8" stroke-linejoin="miter" fill="none" stroke="#000000" d="M 0 0 L 91440 160154 "/>
<path transform="matrix(.00007874016,0,0,-.00007874016,259.6956,160.1969)" stroke-width="6350" stroke-linecap="butt" stroke-miterlimit="8" stroke-linejoin="miter" fill="none" stroke="#000000" d="M 0 0 L 94807 170169 "/>
<path transform="matrix(.00007874016,0,0,-.00007874016,236.25479,170.87342)" stroke-width="6350" stroke-linecap="butt" stroke-miterlimit="8" stroke-linejoin="miter" fill="none" stroke="#000000" d="M 0 0 L 114819 135592 "/>
<path transform="matrix(1,0,0,-1,-116.9209,433.8266)" d="M 338.7757 412.9141 C 338.7757 416.8905 341.9992 420.1141 345.9757 420.1141 C 349.9521 420.1141 353.1757 416.8905 353.1757 412.9141 C 353.1757 408.9376 349.9521 405.7141 345.9757 405.7141 C 341.9992 405.7141 338.7757 408.9376 338.7757 412.9141 Z " fill="#c00000" fill-rule="evenodd"/>
<path transform="matrix(.00007874016,0,0,.00007874016,221.8548,13.712494)" stroke-width="12700" stroke-linecap="butt" stroke-miterlimit="8" stroke-linejoin="miter" fill="none" stroke="#2f528f" d="M 0 91440 C 0 40939.08 40939.08 0 91440 0 C 141940.9 0 182880 40939.08 182880 91440 C 182880 141940.9 141940.9 182880 91440 182880 C 40939.08 182880 0 141940.9 0 91440 Z "/>
<path transform="matrix(1,0,0,-1,-116.9209,433.8266)" d="M 338.7757 389.1467 C 338.7757 393.1232 341.9992 396.3467 345.9757 396.3467 C 349.9521 396.3467 353.1757 393.1232 353.1757 389.1467 C 353.1757 385.1703 349.9521 381.9467 345.9757 381.9467 C 341.9992 381.9467 338.7757 385.1703 338.7757 389.1467 Z " fill="#c00000" fill-rule="evenodd"/>
<path transform="matrix(.00007874016,0,0,.00007874016,221.8548,37.47989)" stroke-width="12700" stroke-linecap="butt" stroke-miterlimit="8" stroke-linejoin="miter" fill="none" stroke="#2f528f" d="M 0 91440 C 0 40939.08 40939.08 0 91440 0 C 141940.9 0 182880 40939.08 182880 91440 C 182880 141940.9 141940.9 182880 91440 182880 C 40939.08 182880 0 141940.9 0 91440 Z "/>
<path transform="matrix(1,0,0,-1,-116.9209,433.8266)" d="M 338.7757 365.3793 C 338.7757 369.3557 341.9992 372.5793 345.9757 372.5793 C 349.9521 372.5793 353.1757 369.3557 353.1757 365.3793 C 353.1757 361.4028 349.9521 358.1793 345.9757 358.1793 C 341.9992 358.1793 338.7757 361.4028 338.7757 365.3793 Z " fill="#c00000" fill-rule="evenodd"/>
<path transform="matrix(.00007874016,0,0,.00007874016,221.8548,61.247285)" stroke-width="12700" stroke-linecap="butt" stroke-miterlimit="8" stroke-linejoin="miter" fill="none" stroke="#2f528f" d="M 0 91440 C 0 40939.08 40939.08 0 91440 0 C 141940.9 0 182880 40939.08 182880 91440 C 182880 141940.9 141940.9 182880 91440 182880 C 40939.08 182880 0 141940.9 0 91440 Z "/>
<path transform="matrix(1,0,0,-1,-116.9209,433.8266)" d="M 362.4816 402.0655 C 362.4816 406.042 365.7052 409.2655 369.6816 409.2655 C 373.6581 409.2655 376.8816 406.042 376.8816 402.0655 C 376.8816 398.0891 373.6581 394.8655 369.6816 394.8655 C 365.7052 394.8655 362.4816 398.0891 362.4816 402.0655 Z " fill="#c00000" fill-opacity=".298" fill-rule="evenodd"/>
<path transform="matrix(.00007874016,0,0,.00007874016,245.5607,24.561097)" stroke-width="12700" stroke-linecap="butt" stroke-miterlimit="8" stroke-linejoin="miter" fill="none" stroke="#2f528f" d="M 0 91440 C 0 40939.08 40939.08 0 91440 0 C 141940.9 0 182880 40939.08 182880 91440 C 182880 141940.9 141940.9 182880 91440 182880 C 40939.08 182880 0 141940.9 0 91440 Z "/>
<path transform="matrix(1,0,0,-1,-116.9209,433.8266)" d="M 362.2165 376.0558 C 362.2165 380.0323 365.4401 383.2558 369.4165 383.2558 C 373.393 383.2558 376.6165 380.0323 376.6165 376.0558 C 376.6165 372.0794 373.393 368.8558 369.4165 368.8558 C 365.4401 368.8558 362.2165 372.0794 362.2165 376.0558 Z " fill="#c00000" fill-opacity=".298" fill-rule="evenodd"/>
<path transform="matrix(.00007874016,0,0,.00007874016,245.2956,50.5708)" stroke-width="12700" stroke-linecap="butt" stroke-miterlimit="8" stroke-linejoin="miter" fill="none" stroke="#2f528f" d="M 0 91440 C 0 40939.08 40939.08 0 91440 0 C 141940.9 0 182880 40939.08 182880 91440 C 182880 141940.9 141940.9 182880 91440 182880 C 40939.08 182880 0 141940.9 0 91440 Z "/>
<path transform="matrix(1,0,0,-1,-116.9209,433.8266)" d="M 384.0816 389.455 C 384.0816 393.4314 387.3052 396.655 391.2816 396.655 C 395.2581 396.655 398.4816 393.4314 398.4816 389.455 C 398.4816 385.4785 395.2581 382.255 391.2816 382.255 C 387.3052 382.255 384.0816 385.4785 384.0816 389.455 Z " fill="#d6d6d6" fill-opacity=".298" fill-rule="evenodd"/>
<path transform="matrix(.00007874016,0,0,.00007874016,267.1607,37.1716)" stroke-width="12700" stroke-linecap="butt" stroke-miterlimit="8" stroke-linejoin="miter" fill="none" stroke="#2f528f" d="M 0 91440 C 0 40939.08 40939.08 0 91440 0 C 141940.9 0 182880 40939.08 182880 91440 C 182880 141940.9 141940.9 182880 91440 182880 C 40939.08 182880 0 141940.9 0 91440 Z "/>
<path transform="matrix(.00007874016,0,0,.00007874016,236.25479,20.912507)" stroke-width="6350" stroke-linecap="butt" stroke-miterlimit="8" stroke-linejoin="miter" fill="none" stroke="#000000" d="M 0 0 L 144968 73119 "/>
<path transform="matrix(.00007874016,0,0,.00007874016,236.25479,20.912507)" stroke-width="6350" stroke-linecap="butt" stroke-miterlimit="8" stroke-linejoin="miter" fill="none" stroke="#000000" d="M 0 0 L 114819 468100 "/>
<path transform="matrix(.00007874016,0,0,.00007874016,236.25479,20.912507)" stroke-width="6350" stroke-linecap="butt" stroke-miterlimit="8" stroke-linejoin="miter" fill="none" stroke="#000000" d="M 0 0 L 118186 137777 "/>
<path transform="matrix(.00007874016,0,0,-.00007874016,236.25479,44.6799)" stroke-width="6350" stroke-linecap="butt" stroke-miterlimit="8" stroke-linejoin="miter" fill="none" stroke="#000000" d="M 0 0 L 118186 164069 "/>
<path transform="matrix(.00007874016,0,0,-.00007874016,236.25479,68.447299)" stroke-width="6350" stroke-linecap="butt" stroke-miterlimit="8" stroke-linejoin="miter" fill="none" stroke="#000000" d="M 0 0 L 118186 465915 "/>
<path transform="matrix(.00007874016,0,0,.00007874016,236.25479,44.6799)" stroke-width="6350" stroke-linecap="butt" stroke-miterlimit="8" stroke-linejoin="miter" fill="none" stroke="#000000" d="M 0 0 L 114819 166254 "/>
<path transform="matrix(.00007874016,0,0,.00007874016,259.9607,31.761109)" stroke-width="6350" stroke-linecap="butt" stroke-miterlimit="8" stroke-linejoin="miter" fill="none" stroke="#000000" d="M 0 0 L 91440 160154 "/>
<path transform="matrix(.00007874016,0,0,-.00007874016,259.6956,57.770814)" stroke-width="6350" stroke-linecap="butt" stroke-miterlimit="8" stroke-linejoin="miter" fill="none" stroke="#000000" d="M 0 0 L 94807 170169 "/>
<path transform="matrix(.00007874016,0,0,-.00007874016,236.25479,68.447299)" stroke-width="6350" stroke-linecap="butt" stroke-miterlimit="8" stroke-linejoin="miter" fill="none" stroke="#000000" d="M 0 0 L 114819 135592 "/>
<path transform="matrix(1,0,0,-1,-116.9209,433.8266)" d="M 310.143 158.3685 C 307.3342 158.3685 305.0572 160.6455 305.0572 163.4543 L 305.0572 209.0196 C 305.0572 211.8284 307.3342 214.1054 310.143 214.1054 L 330.4854 214.1054 C 333.2943 214.1054 335.5713 211.8284 335.5713 209.0196 L 335.5713 163.4543 C 335.5713 160.6455 333.2943 158.3685 330.4854 158.3685 Z " fill="#d6d6d6" fill-rule="evenodd"/>
<path transform="matrix(0,-.00007874016,.00007874016,0,188.13629,275.4581)" stroke-width="12700" stroke-linecap="butt" stroke-miterlimit="8" stroke-linejoin="miter" fill="none" stroke="#000000" d="M 0 64589.84 C 0 28917.86 28917.84 0 64589.81 0 L 643269.2 0 C 678941.2 0 707859 28917.86 707859 64589.84 L 707859 322939.1 C 707859 358611.1 678941.2 387529 643269.2 387529 L 64589.81 387529 C 28917.84 387529 0 358611.1 0 322939.1 Z "/>
<text xml:space="preserve" transform="matrix(0 -.24 .24 0 750.5933 265.1066)" font-size="75" font-family="ArialMT"><tspan y="-2250" x="0 41.670003 83.340007 104.16">data</tspan></text>
<path transform="matrix(1,0,0,-1,-116.9209,433.8266)" d="M 306.2457 257.1925 C 303.4369 257.1925 301.1599 259.4695 301.1599 262.2783 L 301.1599 307.8436 C 301.1599 310.6525 303.4369 312.9295 306.2457 312.9295 L 326.5882 312.9295 C 329.397 312.9295 331.674 310.6525 331.674 307.8436 L 331.674 262.2783 C 331.674 259.4695 329.397 257.1925 326.5882 257.1925 Z " fill="#d6d6d6" fill-rule="evenodd"/>
<path transform="matrix(0,-.00007874016,.00007874016,0,184.23902,176.6341)" stroke-width="12700" stroke-linecap="butt" stroke-miterlimit="8" stroke-linejoin="miter" fill="none" stroke="#000000" d="M 0 64589.84 C 0 28917.86 28917.84 0 64589.81 0 L 643269.2 0 C 678941.2 0 707859 28917.86 707859 64589.84 L 707859 322939.1 C 707859 358611.1 678941.2 387529 643269.2 387529 L 64589.81 387529 C 28917.84 387529 0 358611.1 0 322939.1 Z "/>
<text xml:space="preserve" transform="matrix(0 -.24 .24 0 746.6961 166.2266)" font-size="75" font-family="ArialMT"><tspan y="-2250" x="0 41.670003 83.340007 104.16">data</tspan></text>
<path transform="matrix(1,0,0,-1,-116.9209,433.8266)" d="M 216.3203 285.5371 L 219.6249 285.5769 L 219.6188 286.0769 L 216.3143 286.0371 Z M 218.6581 282.8151 L 224.6215 285.8871 L 218.5858 288.8146 Z "/>
<path transform="matrix(1,0,0,-1,-116.9209,433.8266)" d="M 271.0582 285.6371 L 275.6867 285.6371 L 275.6867 332.5981 L 275.4367 332.3481 L 275.7217 332.3481 L 275.7217 388.6435 L 275.4717 388.3935 L 288.4717 388.3935 L 288.4717 388.8935 L 275.2217 388.8935 L 275.2217 332.5981 L 275.4717 332.8481 L 275.1867 332.8481 L 275.1867 285.8871 L 275.4367 286.1371 L 271.0582 286.1371 Z M 287.4717 385.6435 L 293.4717 388.6435 L 287.4717 391.6435 Z "/>
<path transform="matrix(1,0,0,-1,-116.9209,433.8266)" d="M 271.0582 286.1371 L 275.6867 286.1371 L 275.6867 241.4216 L 275.4367 241.6716 L 275.7217 241.6716 L 275.7217 187.623 L 275.4717 187.873 L 288.4717 187.873 L 288.4717 187.373 L 275.2217 187.373 L 275.2217 241.4216 L 275.4717 241.1716 L 275.1867 241.1716 L 275.1867 285.8871 L 275.4367 285.6371 L 271.0582 285.6371 Z M 287.4717 190.623 L 293.4717 187.623 L 287.4717 184.623 Z "/>
<path transform="matrix(1,0,0,-1,-116.9209,433.8266)" d="M 271.0719 286.1367 L 286.3199 285.2989 L 286.2925 284.7997 L 271.0445 285.6375 Z M 285.4723 288.0996 L 291.2987 284.775 L 285.1431 282.1087 Z "/>
<path transform="matrix(.00007874016,0,0,.00007874016,176.55081,11.195007)" stroke-width="12700" stroke-linecap="butt" stroke-dasharray="38100,12700" stroke-miterlimit="8" stroke-linejoin="miter" fill="none" stroke="#000000" d="M 0 0 L 1361224 0 L 1361224 863297 L 0 863297 Z "/>
<path transform="matrix(.00007874016,0,0,.00007874016,174.37772,115.06351)" stroke-width="12700" stroke-linecap="butt" stroke-dasharray="38100,12700" stroke-miterlimit="8" stroke-linejoin="miter" fill="none" stroke="#000000" d="M 0 0 L 1361224 0 L 1361224 863297 L 0 863297 Z "/>
<path transform="matrix(.00007874016,0,0,.00007874016,176.55081,212.2155)" stroke-width="12700" stroke-linecap="butt" stroke-dasharray="38100,12700" stroke-miterlimit="8" stroke-linejoin="miter" fill="none" stroke="#000000" d="M 0 0 L 1361224 0 L 1361224 863297 L 0 863297 Z "/>
</g>
</g>
</svg>
